<svg xmlns="http://www.w3.org/2000/svg" viewBox="0 0 255.51 255.51"><defs><style>.a{fill:#1c4246;}.b{fill:none;}.c{fill:#429db2;}.d{fill:#37848c;}.e{fill:#d9d9d9;}.f{fill:#e3e3e3;}.g{fill:#b5b5b5;}.h{fill:#b76c19;}.i{fill:#c77823;}.j{fill:#ececec;}</style></defs><title>icon</title><rect class="a" width="255.51" height="255.51"/><polygon class="b" points="176.08 166.37 176.46 156.3 176.08 166.37 176.08 166.37"/><polygon class="c" points="176.08 166.38 176.08 166.37 176.08 166.37 176.08 166.38"/><polygon class="c" points="155.27 124.22 150.74 131.77 104.14 131.77 99.61 124.22 84.2 124.22 85.67 148.34 105.65 161.52 106.56 148.34 148.32 148.34 149.23 161.52 169.21 148.34 170.82 124.22 155.27 124.22"/><polygon class="d" points="99.61 124.22 104.14 131.77 150.74 131.77 155.27 124.22 170.82 124.22 171.12 119.39 152.85 119.39 148.32 126.93 106.56 126.93 102.03 119.39 83.9 119.39 84.2 124.22 99.61 124.22"/><polygon class="e" points="83.9 119.39 71.14 119.39 64.97 128.19 65.06 128.25 68.88 153.26 78.42 156.3 85.67 148.34 84.2 124.22 83.9 119.39"/><polygon class="e" points="53.85 120.69 53.22 141.49 53.99 120.79 53.85 120.69"/><polygon class="e" points="68.88 153.26 53.22 141.49 32.51 159.52 42.1 170.39 68.88 153.26"/><polygon class="f" points="32.51 159.52 32.51 202.08 42.1 206.59 42.1 170.39 32.51 159.52"/><polygon class="e" points="183.74 119.39 171.12 119.39 170.82 124.22 169.21 148.34 176.08 155.89 176.46 156.3 186.14 153.26 189.96 128.25 183.74 119.39"/><polygon class="e" points="201.17 120.69 201.03 120.79 201.8 141.49 201.17 120.69"/><polygon class="e" points="212.92 170.39 222.51 159.52 201.8 141.49 186.14 153.26 212.92 170.39"/><polygon class="f" points="212.92 170.39 212.92 206.59 222.51 202.08 222.51 159.52 212.92 170.39"/><path class="e" d="M102.21,88.76,107,79.5h41.76l4.84,9.26,22.22-5,9.4-25c-7.51-4.34-17.27-7.81-28.46-10,0,0-6.49,5.72-7.77,24.17l1.23-36.27-3-3.39h-38l-3.7,3.39V37L107,78.88l-.09.61c0-23.05-7.54-30.32-8-30.71C87.81,51,78.08,54.47,70.59,58.8l9.4,25Z" transform="translate(-0.49 -0.49)"/><path class="g" d="M156.8,48.77h0l-6.54-12.1L149,72.93C150.32,54.49,156.78,48.79,156.8,48.77Z" transform="translate(-0.49 -0.49)"/><path class="g" d="M106.94,79.5l.09-.61L105.61,37l-.12-.35-6.54,12.1,0,0C99.4,49.18,106.94,56.44,106.94,79.5Z" transform="translate(-0.49 -0.49)"/><polygon class="h" points="105.65 161.52 85.67 148.34 78.42 156.3 80.23 204.56 106.56 222.24 101.72 218.61 105.65 161.52"/><polygon class="h" points="176.08 166.37 176.46 156.3 176.08 155.89 169.21 148.34 149.23 161.52 153.16 218.61 148.32 222.24 174.65 204.56 176.08 166.38 176.08 166.37"/><polygon class="i" points="149.23 161.52 148.32 148.34 106.56 148.34 105.65 161.52 101.72 218.61 106.56 222.24 148.32 222.24 153.16 218.61 149.23 161.52"/><polygon class="e" points="58.53 40.04 36.59 37.62 34.17 52.94 38.69 54.72 42.72 76.33 43.69 115.53 56.27 118.11 65.47 119.08 58.53 40.04"/><polygon class="e" points="198.61 118.11 211.19 115.53 212.16 76.33 216.19 54.72 220.71 52.94 218.29 37.62 196.35 40.04 189.41 119.08 198.61 118.11"/><polygon class="g" points="186.14 153.26 201.8 141.49 201.03 120.79 201.03 120.69 189.96 128.25 186.14 153.26"/><polygon class="g" points="65.06 128.25 64.97 128.19 53.99 120.69 53.99 120.79 53.22 141.49 68.88 153.26 65.06 128.25"/><polygon class="j" points="53.99 120.69 64.97 128.19 71.14 119.39 83.9 119.39 102.03 119.39 106.56 126.93 148.32 126.93 152.85 119.39 171.12 119.39 183.74 119.39 189.96 128.25 201.03 120.69 198.61 118.11 189.41 119.08 196.35 40.04 192.06 38.95 184.78 58.31 175.38 83.27 153.16 88.27 148.32 79.01 106.56 79.01 101.72 88.27 79.5 83.27 70.1 58.31 62.82 38.95 58.53 40.04 65.47 119.08 56.27 118.11 53.85 120.69 53.99 120.79 53.99 120.69"/><polygon class="j" points="68.88 153.26 42.1 170.39 42.1 206.59 75.3 222.24 80.23 204.56 78.42 156.3 68.88 153.26"/><polygon class="j" points="186.14 153.26 176.46 156.3 176.08 166.37 176.08 166.38 174.65 204.56 179.72 222.24 212.92 206.59 212.92 170.39 186.14 153.26"/></svg>