<?xml version="1.0" encoding="UTF-8"?>
<svg xmlns="http://www.w3.org/2000/svg" xmlns:xlink="http://www.w3.org/1999/xlink" width="103px" height="98px" viewBox="0 0 103 98">
  <!-- Generator: Sketch 44.1 (41455) - http://www.bohemiancoding.com/sketch -->
  <desc>Created with Sketch.</desc>
  <defs>
    <polygon id="path-1" points="102.686098 0.230035928 0 0.230035928 0 97.4131737 102.686098 97.4131737 102.686098 0.230035928"></polygon>
  </defs>
  <g id="Design" stroke="none" stroke-width="1" fill="none" fill-rule="evenodd">
    <g id="Ad-Products-—-App-Install" transform="translate(-262.000000, -1516.000000)">
      <g id="Group-3" transform="translate(262.000000, 1516.000000)">
        <path d="M39.0750806,34.078121 C37.2722863,33.8146359 35.4971549,33.4202886 33.7273206,32.9924922 C32.7726577,32.7612826 31.7797377,32.4238575 31.6796806,33.7876419 C31.5254749,35.882612 33.8403263,37.7463725 35.490092,38.6007916 C37.323492,39.5502766 39.4258691,39.910588 41.4758634,39.9135222 C43.6129663,39.9170431 45.7288806,39.4734024 47.6099549,38.4482168 C48.9866234,37.6982527 52.1013434,35.6426 51.6705091,33.655606 C47.4981263,34.6209353 43.3628234,34.7042647 39.0750806,34.078121" id="Fill-1" fill="#FF002C"></path>
        <path d="M85.5574503,34.8881174 L84.8623474,38.1426563 L84.7222674,38.7999018 C84.6563474,39.1062251 84.4091474,39.3280455 84.1166274,39.3808599 C84.0236331,39.3978778 83.9265189,39.3990515 83.8282274,39.3785126 C83.4232903,39.2922491 83.1619646,38.8914467 83.2484846,38.4871234 L83.3185246,38.1579138 L84.1648903,34.1956623 L84.5851303,32.2262731 L86.1966389,24.6808599 C86.2831589,24.2771234 86.6851531,24.0165725 87.0906789,24.1028359 C87.495616,24.1890994 87.7569417,24.5899018 87.6704217,24.9942251 L85.5574503,34.8881174 Z M78.2921246,37.4349437 L79.2261874,33.0636743 L79.457496,31.9792192 L79.7441303,30.6359737 L80.5763703,26.7400335 C80.6623017,26.3357102 81.0648846,26.0757461 81.4698217,26.1620096 L81.4698217,26.1620096 C81.8753474,26.2476862 82.1360846,26.6490754 82.0501531,27.052812 L81.3297417,30.4258898 L81.0283931,31.837794 L80.7741303,33.027291 L79.7659074,37.7477222 C79.679976,38.1520455 79.2773931,38.4120096 78.872456,38.3263329 C78.4669303,38.2400695 78.2061931,37.8392671 78.2921246,37.4349437 L78.2921246,37.4349437 Z M83.3973931,32.8735425 L82.9312446,35.0559497 L82.5098274,37.0294467 L82.2396731,38.2946443 C82.1555074,38.6872311 81.764696,38.9401533 81.3709417,38.856824 L81.3297417,38.8480216 C81.2679417,38.8345246 81.216736,38.8022491 81.1625874,38.7752551 C80.8718331,38.630309 80.6952617,38.3128359 80.7658903,37.9818659 L81.7364446,33.4374826 L82.0425017,32.003279 L82.3485589,30.5702491 L82.4468503,30.1119377 C82.5304274,29.7187641 82.9212389,29.4658419 83.3155817,29.5497581 L83.3567817,29.5585605 C83.750536,29.6418898 84.0042103,30.0315425 83.9200446,30.4247162 L83.7364103,31.2855904 L83.3973931,32.8735425 Z M76.6906217,32.8060575 L76.8819074,31.9099737 L77.6805989,28.1695425 C77.7671189,27.765806 78.1691131,27.5052551 78.5746389,27.5915186 C78.979576,27.6771952 79.2409017,28.0785844 79.1543817,28.482321 L78.6058331,31.0508599 L78.349216,32.2544407 L78.0831817,33.4990994 L77.2880217,37.2219257 C77.2015017,37.6256623 76.7995074,37.8862132 76.3945703,37.7999497 C75.9890446,37.7142731 75.7283074,37.3128838 75.8142389,36.9091473 L76.285096,34.7038539 L76.6906217,32.8060575 Z M77.051416,15.1854228 L73.3428274,32.3524407 L73.0597246,33.662824 L72.5918103,35.8293868 L70.4129189,45.9139976 L73.1485989,46.5014108 L75.1691646,46.9350754 L76.4922731,47.2196862 L86.2148846,49.3076144 L92.8527931,18.5790395 L77.051416,15.1854228 Z" id="Fill-3" fill="#FFF100"></path>
        <path d="M77.3186274,51.2254802 L77.7282731,51.3135042 C78.2056046,51.4161988 78.6758731,51.1133964 78.7788731,50.6374802 L78.8671589,50.2290491 C78.9701589,49.7525461 78.666456,49.2836719 78.1891246,49.1815641 L77.7794789,49.0935401 C77.3015589,48.9908455 76.8312903,49.2936479 76.7288789,49.7695641 L76.6405931,50.1779952 C76.6170503,50.2871449 76.6170503,50.3957078 76.6335303,50.499576 C76.6976846,50.6468695 76.7694903,50.7976838 76.849536,50.9520192 C76.9696046,51.0852287 77.129696,51.1849892 77.3186274,51.2254802" id="Fill-5" fill="#000000"></path>
        <path d="M76.6333537,50.4994587 C76.6598394,50.6696383 76.7357651,50.826321 76.8493594,50.9524886 C76.7699023,50.7975665 76.6980966,50.6467521 76.6333537,50.4994587" id="Fill-7" fill="#000000"></path>
        <path d="M86.214708,49.3073796 L76.4920966,47.2194515 L75.1695766,46.9354275 L73.1484223,46.501176 L70.4133309,45.9137629 L72.5916337,35.8297389 L73.059548,33.663176 L73.3426509,32.352206 L77.0512394,15.185188 L92.8532051,18.5788048 L86.214708,49.3073796 Z M78.8669823,50.228697 L78.7786966,50.6371281 C78.6762851,51.1130443 78.2060166,51.4158467 77.7280966,51.3137389 L77.3184509,51.225715 C77.1295194,51.1846371 76.969428,51.0854635 76.8493594,50.9522539 C76.7357651,50.8260862 76.6598394,50.6694036 76.6333537,50.499224 C76.6168737,50.3953557 76.6168737,50.2873796 76.6404166,50.1782299 L76.7287023,49.769212 C76.8317023,49.2932958 77.3019709,48.9910802 77.7793023,49.093188 L78.188948,49.181212 C78.6662794,49.2839066 78.9699823,49.7527808 78.8669823,50.228697 L78.8669823,50.228697 Z M84.6073194,15.029679 C84.6632337,14.7703018 84.9198509,14.6054036 85.1794109,14.6611521 C85.4395594,14.7169006 85.604948,14.9721701 85.5490337,15.2315473 C85.4925309,15.4909246 85.2365023,15.6558228 84.9769423,15.6000743 C84.7167937,15.5437389 84.5514051,15.2884695 84.6073194,15.029679 L84.6073194,15.029679 Z M60.8531651,30.5565174 C58.4570909,31.6286491 55.9433023,32.4948048 53.4142109,33.2066251 C53.8085537,35.1120503 52.5231137,36.8924814 51.132908,38.1600263 C49.3989766,39.7403497 47.2259709,40.8658826 44.9305423,41.3605772 C40.433268,42.331188 35.1049309,41.5025892 31.8212909,38.0808048 C30.4181366,36.6184335 29.1509423,34.2030563 30.2862966,32.2254515 C31.1544394,30.7120263 32.5917309,30.8675353 34.0566851,31.2196311 C38.6910966,32.3322539 43.5980166,33.2060383 48.3607366,32.4865892 C52.373028,31.8803976 56.3700166,30.5764695 60.0709537,28.9204455 C61.1380337,28.4427689 61.9208337,30.0782539 60.8531651,30.5565174 L60.8531651,30.5565174 Z M47.3248509,52.6652 C46.757468,54.1979904 45.4031651,55.0975952 44.1548051,56.0693796 C42.2743194,57.5329246 40.3279137,58.8826251 38.1607937,59.8896192 C37.0948909,60.3849006 36.1584737,59.0393078 36.7970737,58.3327689 C36.8800623,58.241224 36.9860051,58.1590683 37.124908,58.0945174 C38.756428,57.3363377 40.2614051,56.3956551 41.7134109,55.3393677 C42.9229251,54.4591281 45.1377194,53.2285533 45.4932166,51.573703 C46.3278109,47.6894994 42.118348,50.1987689 40.5127251,50.8278467 C37.1973023,52.1264934 33.5181423,52.7109725 29.943748,52.9938228 C29.5346909,53.026685 29.1256337,53.0572 28.720108,53.0824335 C27.3846394,53.1645892 27.4046509,51.0930922 28.7342337,51.0109365 C31.5205309,50.8389964 34.3297823,50.4340862 37.0366223,49.7516072 C38.970668,49.2639545 40.5868851,48.3983856 42.3790851,47.6020623 C43.362588,47.1654635 44.4555651,46.950685 45.4837994,47.3720263 C47.503188,48.1988647 48.0199537,50.7891162 47.3248509,52.6652 L47.3248509,52.6652 Z M27.5070623,26.1676431 C29.3993194,25.0485653 31.7877423,24.9323737 34.0619823,25.2527808 C31.1503194,22.9254275 26.726028,22.3227569 23.178708,22.7083018 C21.8426509,22.8538347 21.4683194,20.8022898 22.8132051,20.6555832 C28.3022223,20.058194 34.8600851,21.5082419 37.866508,26.512697 C38.3762109,27.3600743 37.3526851,28.1851521 36.5610566,27.9404455 C34.0619823,27.1705293 30.7542109,26.6623377 28.4075766,28.0507689 C27.2457366,28.7379425 26.3587594,26.8489485 27.5070623,26.1676431 L27.5070623,26.1676431 Z M54.8273709,15.3230922 C56.6954966,14.992709 58.5906966,16.8863976 59.0656737,19.554697 C59.5406509,22.2224096 58.4147137,24.6518707 56.546588,24.9828407 C54.6796394,25.3126371 52.7826737,23.4183617 52.3076966,20.7506491 C51.8327194,18.0823497 52.9604223,15.6534754 54.8273709,15.3230922 L54.8273709,15.3230922 Z M76.1065823,53.6358108 C75.8964623,53.3617629 75.7187137,53.1211641 75.5745137,52.9210563 L76.6527766,53.1528527 L78.8822851,53.631703 L85.2058966,54.9896192 C86.8803823,55.3493437 88.530148,54.287188 88.8909423,52.6176671 L90.3823823,45.7148287 C90.1999251,45.5915952 90.029828,45.4554515 89.8679709,45.3087449 C89.4453766,44.9255473 89.0857594,44.4742778 88.8214909,43.9502419 C88.5495709,43.4109485 88.3906566,42.8352719 88.3412166,42.2513796 C88.2882451,41.6281701 88.3600509,40.9949844 88.5642851,40.3840982 C88.6572794,40.1024216 88.777348,39.8348287 88.9180166,39.5813198 C89.3700394,38.7668048 90.0551366,38.1060383 90.9097423,37.6788287 C91.125748,37.5708527 91.348228,37.4857629 91.5736509,37.4124096 C91.7831823,37.3443377 91.9956566,37.2868287 92.2110737,37.2492719 L96.1391994,19.0664575 C96.4999937,17.3969365 95.4346794,15.7520623 93.7601937,15.3923377 L77.5403423,11.9089365 C75.8658566,11.5497988 74.2166794,12.6113677 73.8558851,14.2803018 L71.2285023,26.441691 L70.5987309,29.358218 L69.9342337,32.4326012 C69.8842051,31.9502299 69.8076909,31.3645772 69.7070451,30.6985293 C68.9689766,25.8073317 66.9913766,16.6997868 65.6117651,14.0461581 C56.8426394,1.13421796 43.3455194,2.45516407 39.4803709,3.13940359 C39.399148,3.15348743 39.3226337,3.16815808 39.2496509,3.18106826 C39.2496509,3.18106826 37.553388,3.49971497 37.4568623,3.51673293 C33.5452166,4.2086012 20.4907023,7.62862515 16.7273766,22.7059545 C15.4849023,27.688697 17.5007594,35.9535593 19.1210966,42.5993677 C19.9133137,46.2165653 22.3617709,54.8528886 20.9792166,61.8824814 C20.7296623,62.9469844 16.7291423,79.1034874 2.16199943,84.2235473 C2.17789086,84.2927928 2.20967371,84.3708407 2.265588,84.4565174 C2.62755943,85.0069605 4.61281086,86.7885653 14.946948,86.5567689 C16.5631651,86.5197988 17.2647423,88.2192479 18.0775594,90.1880503 C18.3677251,90.8904814 18.6684851,91.6181461 19.029868,92.3428766 C19.153468,92.591691 19.1640623,92.6116431 19.5277994,92.5470922 C19.973348,92.4684575 20.6290166,92.216709 21.3870966,91.9238826 C22.7637651,91.3939784 24.6513137,90.6680743 27.146268,90.2267808 C28.5394166,89.9803138 29.997308,89.8471042 31.4799194,89.8300862 C34.6481994,89.7960503 37.4674566,91.1187569 40.4515137,92.5183377 C44.4579194,94.3973557 48.6014623,96.3397509 54.2152566,95.3462539 C54.3565137,95.3216072 54.4954166,95.2910922 54.630788,95.2558826 L54.6937651,95.2394515 L54.7573309,95.2312359 C54.9998223,95.1995473 55.2411366,95.1649246 55.4848051,95.1220862 C61.1003651,94.1280024 64.3192623,90.8828527 67.4322166,87.7433317 C69.751188,85.4065892 71.9418509,83.197188 74.9276737,82.1420743 C76.3255309,81.6497269 77.7404566,81.2741581 79.1341937,81.027691 C81.6297366,80.5858108 83.6450051,80.581703 85.1217309,80.6063497 C85.9327823,80.6204335 86.6284737,80.5934395 87.0746109,80.514218 C87.1187537,80.5065892 87.1575994,80.4995473 87.1917366,80.493679 C87.4412909,80.4490802 87.4518851,80.4332359 87.4783709,80.1902898 C87.5678337,79.3857509 87.6025594,78.6193557 87.631988,77.8594156 C87.7149766,75.7333437 87.7891366,73.9065533 89.3200109,73.3866251 C99.1032451,70.0587329 100.352782,67.7096671 100.502279,67.067679 C100.526411,66.9690922 100.529354,66.8875234 100.521114,66.8165174 C87.5666566,66.976721 78.9152451,57.3011281 76.1065823,53.6358108 L76.1065823,53.6358108 Z" id="Fill-9" fill="#FFFFFF"></path>
        <path d="M94.2040354,39.3672455 C94.1145726,39.3208862 94.0080411,39.2774611 93.8838526,39.2363832 C93.3959269,39.0744192 92.886224,39.0603353 92.3977097,39.1724192 C92.1828811,39.2211257 91.9709954,39.2874371 91.7685269,39.3889581 C91.7602869,39.3930659 91.7538126,39.3989341 91.7455726,39.4030419 C91.4724754,39.5432934 91.2346926,39.7299042 91.0269269,39.9446826 C90.7420583,40.2380958 90.5166354,40.5866707 90.3836183,40.9851257 C90.1864469,41.5754731 90.2076354,42.1986826 90.4148126,42.7772934 C90.4524811,42.883509 90.4854411,42.991485 90.5366469,43.0941796 C90.6225783,43.2649461 90.7296983,43.4198683 90.8462354,43.5665749 C90.9916126,43.7496647 91.1552354,43.9163234 91.3424011,44.0571617 C91.4660011,44.1492934 91.5960754,44.2337964 91.7349783,44.3053892 C91.8650526,44.3722874 92.000424,44.4286228 92.1393269,44.4755689 C92.853264,44.7114731 93.1351897,44.5037365 93.3417783,44.2913054 C93.767904,43.8594012 94.0792583,43.039018 94.3299897,42.291988 C94.5636526,41.5919042 94.8196811,40.710491 94.7366926,40.1001916 C94.7025554,39.8443353 94.6148583,39.578503 94.2040354,39.3672455" id="Fill-11" fill="#FFFFFF"></path>
        <path d="M56.5465291,24.9825473 C58.4146549,24.6521641 59.540592,22.2221162 59.0656149,19.5549904 C58.5906377,16.8861042 56.6954377,14.9924156 54.827312,15.3227988 C52.9603634,15.653182 51.8326606,18.0820563 52.3076377,20.7509425 C52.7826149,23.4180683 54.6801691,25.3129305 56.5465291,24.9825473" id="Fill-13" fill="#000000"></path>
        <path d="M28.4075177,28.0505928 C30.754152,26.6621617 34.0619234,27.1703533 36.5609977,27.9408563 C37.3526263,28.184976 38.376152,27.3598982 37.8664491,26.5131078 C34.8600263,21.5080659 28.302752,20.058018 22.8131463,20.6554072 C21.4682606,20.8027006 21.8431806,22.8536587 23.1786491,22.7081257 C26.7259691,22.3231677 31.1508491,22.9252515 34.0619234,25.2531916 C31.7876834,24.9321976 29.3992606,25.0483892 27.5070034,26.1674671 C26.3587006,26.8487725 27.2456777,28.7377665 28.4075177,28.0505928" id="Fill-15" fill="#000000"></path>
        <path d="M47.6100137,38.4483341 C45.7289394,39.4735198 43.6130251,39.9171605 41.4759223,39.9136395 C39.4253394,39.9101186 37.3235509,39.550394 35.4901509,38.600909 C33.8403851,37.7464898 31.5255337,35.8821425 31.6797394,33.7877593 C31.7797966,32.4239749 32.7727166,32.7614 33.7273794,32.9926096 C35.4972137,33.4198192 37.2723451,33.8147533 39.0751394,34.0782383 C43.3628823,34.704382 47.4981851,34.6204659 51.670568,33.6557234 C52.1014023,35.6427174 48.9866823,37.6983701 47.6100137,38.4483341 M60.071248,28.9200347 C56.3703109,30.5760587 52.3733223,31.8805737 48.3610309,32.4867653 C43.5983109,33.2056275 38.6908023,32.3324299 34.0569794,31.2192204 C32.5920251,30.8677114 31.1547337,30.7122024 30.2860023,32.2256275 C29.1512366,34.2026455 30.4184309,36.6186096 31.8209966,38.080394 C35.1046366,41.5021784 40.4335623,42.3313641 44.9308366,41.3607533 C47.2256766,40.8654719 49.3992709,39.7405257 51.1332023,38.1596156 C52.523408,36.8926575 53.8082594,35.1116395 53.4139166,33.2068012 C55.943008,32.4949808 58.4567966,31.6288251 60.8528709,30.5561066 C61.921128,30.0784299 61.138328,28.4423581 60.071248,28.9200347" id="Fill-17" fill="#000000"></path>
        <g id="Group-21" transform="translate(0.000000, 0.356790)">
          <mask id="mask-2" fill="white"></mask>
          <g id="Clip-20"></g>
          <path d="M102.666457,66.2023449 C102.534617,65.1096743 101.598199,64.2916383 100.494039,64.3057222 C90.4794966,64.4289557 83.1653194,58.0665844 79.5285366,54.0133749 L77.2766623,53.5304168 L76.1065823,53.2786683 C78.9152451,56.9445725 87.5666566,66.6201653 100.521114,66.4599617 C100.529354,66.5303808 100.526411,66.6119497 100.502279,66.7111234 C100.352782,67.3531114 99.1032451,69.7015904 89.3200109,73.0294826 C87.7891366,73.5499976 87.7149766,75.376788 87.631988,77.5022731 C87.6025594,78.2622132 87.5678337,79.0286084 87.4783709,79.8337341 C87.4518851,80.0766802 87.4418794,80.0925246 87.1917366,80.1365365 C87.1575994,80.1429916 87.1187537,80.1494467 87.0751994,80.1576623 C86.6284737,80.236297 85.9327823,80.2638778 85.1217309,80.2492072 C83.6450051,80.2245605 81.6297366,80.2292551 79.1341937,80.6711353 C77.7404566,80.9176024 76.3255309,81.2925844 74.9276737,81.7855186 C71.9418509,82.8400455 69.751188,85.0494467 67.4322166,87.386776 C64.3192623,90.526297 61.1003651,93.7714467 55.4848051,94.7649437 C55.2411366,94.8083689 54.9998223,94.8429916 54.7573309,94.8746802 L54.6937651,94.882309 L54.630788,94.8987401 C54.4954166,94.9339497 54.3565137,94.9644647 54.2152566,94.9896982 C48.6014623,95.9831952 44.4579194,94.0408 40.4515137,92.161782 C37.4674566,90.7622012 34.6481994,89.4394946 31.4799194,89.4729437 C29.997308,89.4905485 28.5394166,89.6231713 27.1468566,89.8696383 C24.6513137,90.3115186 22.7637651,91.0374228 21.3870966,91.5673269 C20.6290166,91.8595665 19.973348,92.1119018 19.5277994,92.1905365 C19.1640623,92.2550874 19.153468,92.2345485 19.029868,91.9857341 C18.6684851,91.2615904 18.3677251,90.5339257 18.0775594,89.8309078 C17.2647423,87.8626922 16.5631651,86.1632431 14.946948,86.1996263 C4.61281086,86.4314228 2.62755943,84.6504048 2.265588,84.0999617 C2.20967371,84.014285 2.17789086,83.9362371 2.16199943,83.8664048 C16.7291423,78.7469317 20.7296623,62.5898419 20.9792166,61.5253389 C22.3617709,54.4963329 19.9133137,45.8600096 19.1210966,42.2422251 C17.5007594,35.5970036 15.4849023,27.3321413 16.7273766,22.348812 C20.4907023,7.27148263 33.5458051,3.85204551 37.4568623,3.15959042 C37.553388,3.14257246 39.2496509,2.82451257 39.2496509,2.82451257 C39.3226337,2.81101557 39.399148,2.79693174 39.4803709,2.78226108 C43.3455194,2.09860838 56.8426394,0.777075449 65.6117651,13.6896024 C66.9919651,16.3432311 68.9689766,25.450776 69.7070451,30.3413868 L70.3209251,27.4999737 L70.9312737,24.6744048 C69.920108,19.9117222 68.5322566,13.819291 67.4010223,12.4819138 C57.935028,-1.45755928 43.3484623,-0.0902538922 39.102508,0.660883832 L39.098388,0.661470659 C39.0101023,0.67731497 38.9282909,0.692572455 38.8488337,0.707243114 C38.8488337,0.707243114 37.2061309,1.01532695 37.0766451,1.0388 C32.8430509,1.78759042 18.7061537,5.50161437 14.6308851,21.8288838 C13.2601023,27.3233389 15.3436451,35.8710515 17.0187194,42.7404407 C17.6767423,45.7931114 20.3211937,55.7879377 18.9033251,60.9261892 C18.8927309,60.9625725 18.8839023,60.9995425 18.8750737,61.0370994 C18.7226337,61.6896503 14.9810851,77.076824 1.44276514,81.8342251 C0.402170857,82.2004048 -0.195229143,83.2889677 0.0578565714,84.3610994 C0.133193714,84.6797461 0.267388,84.9860695 0.454553714,85.2742012 C1.93481086,87.5282012 6.66869086,88.5340216 14.9287023,88.3550395 C15.2618337,88.6713389 15.7703594,89.9013269 16.079948,90.6507042 C16.3842394,91.3895186 16.6997137,92.1523928 17.0946451,92.9451952 C17.4831023,93.7256743 18.2870909,94.5976982 19.9056623,94.3113269 C20.5589766,94.1957222 21.3035194,93.9099377 22.1657766,93.5772072 C23.4582794,93.0795784 25.2292909,92.3970994 27.5241309,91.9910156 C28.798388,91.7656743 30.1379766,91.6436144 31.5040509,91.6277701 C34.1761651,91.5996024 36.6558166,92.7621054 39.5280451,94.1088719 C43.6415709,96.0389437 48.3018794,98.2248719 54.5931194,97.1116623 C54.7655709,97.0811473 54.9386109,97.0441772 55.1075309,97.0013389 C55.3129423,96.9737581 55.5813309,96.936788 55.8620794,96.8869078 C62.1562623,95.7731114 65.775388,92.1230515 68.9689766,88.9013749 C71.2061366,86.6473749 73.1331194,84.7049796 75.6504394,83.8159377 C76.9376451,83.362321 78.2372109,83.0178539 79.511468,82.7919257 C81.7021309,82.4046204 83.4843251,82.3764527 85.0846509,82.4040335 C86.0858109,82.4210515 86.8827366,82.3793868 87.4524737,82.2784527 L87.5107423,82.2684766 L87.5695994,82.2585006 C88.7643994,82.0472431 89.4948166,81.2685246 89.6266566,80.067291 C89.7231823,79.2040695 89.7596737,78.401291 89.7914566,77.586776 C89.8232394,76.7798898 89.8756223,75.4571832 90.079268,75.0481653 C97.8984394,72.3816263 101.996074,69.8148479 102.607011,67.2011234 C102.685879,66.8666323 102.705891,66.5303808 102.666457,66.2023449" id="Fill-19" fill="#000000" mask="url(#mask-2)"></path>
        </g>
        <path d="M45.483976,47.3720263 C44.4557417,46.9512719 43.362176,47.1654635 42.3792617,47.6020623 C40.5870617,48.3983856 38.9708446,49.2639545 37.0367989,49.7516072 C34.3299589,50.4340862 31.5201189,50.8389964 28.7344103,51.0109365 C27.4048274,51.0930922 27.384816,53.1645892 28.7202846,53.0824335 C29.1258103,53.0572 29.5342789,53.026685 29.943336,52.9938228 C33.5177303,52.7109725 37.1974789,52.1264934 40.5123131,50.8278467 C42.1185246,50.1987689 46.3279874,47.6894994 45.4933931,51.573703 C45.1373074,53.2285533 42.9231017,54.4591281 41.7135874,55.3393677 C40.2609931,56.3956551 38.7566046,57.3363377 37.1250846,58.0945174 C36.9861817,58.1590683 36.8796503,58.241224 36.7972503,58.3327689 C36.1586503,59.0393078 37.0950674,60.3849006 38.1609703,59.8896192 C40.3280903,58.8826251 42.2739074,57.5329246 44.1549817,56.0693796 C45.4033417,55.0975952 46.757056,54.1979904 47.3250274,52.6652 C48.0201303,50.7891162 47.5033646,48.1988647 45.483976,47.3720263" id="Fill-22" fill="#000000"></path>
        <path d="M76.6527177,53.1526766 L75.5744549,52.9214671 C75.7186549,53.1215749 75.8964034,53.3615868 76.1065234,53.6356347 L77.2766034,53.8867964 L79.5284777,54.3703413 C79.2983463,54.1138982 79.0823406,53.8668443 78.8822263,53.6315269 L76.6527177,53.1526766 Z" id="Fill-24" fill="#000000"></path>
        <path d="M76.6527177,53.1526766 L75.5744549,52.9214671 C75.7186549,53.1215749 75.8964034,53.3615868 76.1065234,53.6356347 L77.2766034,53.8867964 L79.5284777,54.3703413 C79.2983463,54.1138982 79.0823406,53.8668443 78.8822263,53.6315269 L76.6527177,53.1526766 Z" id="Fill-26" fill="#000000"></path>
        <path d="M69.7070451,30.6982946 C69.8076909,31.3649293 69.8842051,31.9499952 69.9342337,32.4329533 L70.5987309,29.3585701 L71.2285023,26.4414563 C71.1337423,25.9890132 71.0348623,25.5177916 70.9312737,25.0313126 L70.3209251,27.8568814 L69.7070451,30.6982946 Z" id="Fill-28" fill="#000000"></path>
        <path d="M69.7070451,30.6982946 C69.8076909,31.3649293 69.8842051,31.9499952 69.9342337,32.4329533 L70.5987309,29.3585701 L71.2285023,26.4414563 C71.1337423,25.9890132 71.0348623,25.5177916 70.9312737,25.0313126 L70.3209251,27.8568814 L69.7070451,30.6982946 Z" id="Fill-30" fill="#000000"></path>
        <path d="M70.5984954,29.3583353 L69.9345869,32.4327186 C69.8845583,31.9497605 69.8074554,31.3646946 69.7068097,30.6980599 L66.0323583,47.708982 C65.6038783,49.6918683 66.8734269,51.6524551 68.8616211,52.0796647 L76.1063469,53.6359281 C75.8962269,53.3612934 75.7190669,53.1212814 75.5748669,52.9211737 L76.6525411,53.1523832 L78.8820497,53.6312335 C79.082164,53.8671377 79.2981697,54.1141916 79.5283011,54.3706347 L85.0820611,55.5630659 C85.3433869,55.6194012 85.6058897,55.646982 85.8672154,55.646982 C86.568204,55.646982 87.2568326,55.4462874 87.8601183,55.0578084 C88.6882383,54.5243832 89.258564,53.7022395 89.4663297,52.7416048 L90.9159811,46.0318323 C90.8953811,46.0218563 90.8724269,46.015988 90.8524154,46.0054251 C90.6870269,45.9203353 90.5345869,45.8176407 90.3821469,45.7143593 C90.2002783,45.5917126 90.0295926,45.454982 89.8677354,45.3082754 L88.3156726,52.4945509 C88.1744154,53.1488623 87.7853697,53.7086946 87.2215183,54.0719401 C86.6570783,54.4345988 85.9843411,54.5572455 85.3304383,54.4158204 L78.2769983,52.9012216 L76.0775069,52.4288263 L75.0892954,52.2163952 L69.1099983,50.9324192 C67.7556954,50.6413533 66.891084,49.3063234 67.1830154,47.9566228 L70.2300497,33.8516647 L70.9045526,30.7291617 L71.5249069,27.8566467 L74.4312726,14.4036527 C74.5725297,13.7499281 74.9603983,13.1900958 75.5242497,12.8268503 C76.0886897,12.4641916 76.762604,12.3421317 77.4159183,12.4829701 L93.6369469,15.9657844 C94.2926154,16.1072096 94.8541126,16.4939281 95.2184383,17.0566946 C95.582764,17.6188743 95.7051869,18.2884431 95.5633411,18.9427545 L91.5734154,37.4125269 C91.7835354,37.3444551 91.9954211,37.2869461 92.2108383,37.2493892 C92.414484,37.2135928 92.6198954,37.1965749 92.8258954,37.1889461 L96.7139983,19.1903952 C96.921764,18.2297605 96.7416611,17.2456527 96.2072383,16.419988 C95.6728154,15.5943234 94.8482269,15.0256886 93.8847354,14.8185389 L77.6642954,11.3357246 C76.7002154,11.127988 75.7143583,11.3081437 74.8856497,11.840982 C74.0581183,12.3738204 73.4877926,13.1965509 73.2806154,14.1565988 L70.9310383,25.0310778 C71.0346269,25.5181437 71.1335069,25.9893653 71.2288554,26.4418084 L70.5984954,29.3583353 Z" id="Fill-32" fill="#000000"></path>
        <path d="M84.9768246,15.5997808 C85.2369731,15.6555293 85.4930017,15.4906311 85.548916,15.2318407 C85.6048303,14.9724635 85.4394417,14.717194 85.1792931,14.6614455 C84.9197331,14.605697 84.6637046,14.7700084 84.6077903,15.0293856 C84.5512874,15.2887629 84.716676,15.5440323 84.9768246,15.5997808" id="Fill-34" fill="#000000"></path>
        <path d="M85.763568,48.6099952 L76.7966823,46.684618 L75.521248,46.4105701 L73.2852651,45.9305461 L71.1122594,45.4640192 L73.1869737,35.8600192 L73.6531223,33.7022587 L73.9038537,32.5432766 L77.502968,15.8826898 L92.1530994,19.0286659 L85.763568,48.6099952 Z M93.3473109,18.2605102 C93.2625566,18.1296479 93.1295394,18.0375162 92.9770994,18.0052407 L77.1757223,14.611624 C76.8543623,14.5423784 76.5441851,14.7454204 76.4764994,15.0617198 L72.826768,31.9552766 L72.4965794,33.4821988 L72.0180709,35.6974683 L69.8374137,45.7897078 C69.7691394,46.106594 69.971608,46.4193725 70.288848,46.4874443 L73.0933909,47.0895281 L74.8797051,47.4733126 L76.2905109,47.776115 L86.0908137,49.8810611 C86.1320137,49.8898635 86.1732137,49.8939713 86.2150023,49.8939713 C86.3268309,49.8939713 86.4380709,49.8622826 86.534008,49.800079 C86.6652594,49.7161629 86.7570766,49.5829533 86.7900366,49.4309653 L88.3409223,42.2511449 C88.2879509,41.6279353 88.3603451,40.9947497 88.5639909,40.3838635 C88.6575737,40.1027737 88.7770537,39.8351808 88.9177223,39.581085 L93.4279451,18.7023904 C93.4609051,18.5498156 93.4320651,18.3913725 93.3473109,18.2605102 L93.3473109,18.2605102 Z" id="Fill-36" fill="#000000"></path>
        <path d="M93.8838526,39.2363832 C94.0080411,39.2774611 94.1145726,39.3208862 94.2040354,39.3672455 C94.6148583,39.578503 94.7025554,39.8443353 94.7366926,40.1001916 C94.8196811,40.710491 94.5636526,41.5919042 94.3294011,42.291988 C94.0792583,43.039018 93.767904,43.8594012 93.3417783,44.2913054 C93.1351897,44.5037365 92.853264,44.7114731 92.1393269,44.4755689 C92.000424,44.4286228 91.8650526,44.3722874 91.7349783,44.3053892 C91.5960754,44.2337964 91.4660011,44.1492934 91.3424011,44.0571617 C91.1552354,43.9163234 90.9916126,43.7496647 90.8462354,43.5665749 C90.7296983,43.4198683 90.6225783,43.2649461 90.5366469,43.0941796 C90.4854411,42.991485 90.4524811,42.883509 90.4148126,42.7772934 C90.2076354,42.1986826 90.1864469,41.5754731 90.3836183,40.9851257 C90.5166354,40.5866707 90.7420583,40.2380958 91.0269269,39.9446826 C91.2346926,39.7299042 91.4724754,39.5432934 91.7455726,39.4030419 C91.7538126,39.3989341 91.7602869,39.3930659 91.7685269,39.3889581 C91.9709954,39.2874371 92.1828811,39.2211257 92.3977097,39.1724192 C92.886224,39.0603353 93.3959269,39.0744192 93.8838526,39.2363832 M91.5737097,37.4125269 C91.3482869,37.4858802 91.1258069,37.5703832 90.9098011,37.6789461 C90.0551954,38.1061557 89.3700983,38.7669222 88.9180754,39.5814371 C88.7774069,39.8349461 88.6573383,40.1025389 88.564344,40.3842156 C88.3601097,40.9951018 88.288304,41.6282874 88.3412754,42.251497 C88.3907154,42.8353892 88.5496297,43.410479 88.8215497,43.9503593 C89.0858183,44.4738084 89.4454354,44.9256647 89.8680297,45.3082754 C90.0298869,45.454982 90.199984,45.5917126 90.3824411,45.7143593 C90.5348811,45.8176407 90.6873211,45.9203353 90.8527097,46.0054251 C90.8727211,46.015988 90.8956754,46.0218563 90.9156869,46.0318323 C91.114624,46.1304192 91.3200354,46.2196168 91.5354526,46.2912096 C93.1122354,46.8123114 94.134584,46.2202036 94.7143269,45.6298563 C95.4164926,44.9139281 95.8343783,43.8441437 96.149264,42.893485 C96.4676811,41.9422395 96.7731497,40.8372455 96.6389554,39.8437485 C96.5483154,39.1706587 96.2051783,38.246994 95.082184,37.6683832 C94.9044354,37.5768383 94.7060869,37.4917485 94.4859611,37.4201557 C93.9421211,37.2405868 93.3818011,37.1672335 92.8261897,37.1883593 C92.6201897,37.1965749 92.4147783,37.2135928 92.2111326,37.2493892 C91.9957154,37.2869461 91.7832411,37.3444551 91.5737097,37.4125269" id="Fill-38" fill="#000000"></path>
        <path d="M76.690504,32.8061162 L76.2849783,34.7039126 L75.8141211,36.909206 C75.7281897,37.3129425 75.9889269,37.7143317 76.3944526,37.8000084 C76.7993897,37.8862719 77.2019726,37.625721 77.287904,37.2219844 L78.083064,33.4991581 L78.3490983,32.2539126 L78.6057154,31.0503317 L79.154264,28.4823796 C79.240784,28.0786431 78.9794583,27.6772539 78.5745211,27.5915772 C78.1689954,27.5053138 77.7670011,27.7658647 77.6804811,28.1696012 L76.8817897,31.9100323 L76.690504,32.8061162 Z" id="Fill-40" fill="#000000"></path>
        <path d="M78.8722794,38.3261569 C79.2778051,38.4124204 79.6797994,38.1518695 79.7657309,37.7481329 L80.7739537,33.027115 L81.0282166,31.8382048 L81.3295651,30.4257138 L82.0499766,27.0526359 C82.1364966,26.6488994 81.8751709,26.2475102 81.4702337,26.1618335 L81.4702337,26.1618335 C81.064708,26.0755701 80.6627137,26.336121 80.5761937,26.7398575 L79.7445423,30.6363844 L79.4573194,31.9790431 L79.2260109,33.0634982 L78.2925366,37.4353545 C78.2060166,37.839091 78.4667537,38.2398934 78.8722794,38.3261569" id="Fill-42" fill="#000000"></path>
        <path d="M81.7364446,33.4371892 L80.7658903,37.9815725 C80.6952617,38.3125425 80.8718331,38.6300156 81.1625874,38.7755485 C81.216736,38.8025425 81.2679417,38.834818 81.3297417,38.8477281 L81.3709417,38.8565305 C81.764696,38.9404467 82.156096,38.6875246 82.2396731,38.2943509 L82.5098274,37.0297401 L82.9312446,35.0556563 L83.3973931,32.8732491 L83.7364103,31.2858838 L83.9206331,30.4244228 C84.0042103,30.0318359 83.750536,29.6421832 83.3567817,29.5582671 L83.3155817,29.5494647 C82.9212389,29.4661353 82.5304274,29.7190575 82.4468503,30.1116443 L82.3485589,30.5705425 L82.0425017,32.0029856 L81.7364446,33.4371892 Z" id="Fill-44" fill="#000000"></path>
        <path d="M83.248308,38.4871234 C83.161788,38.8914467 83.4231137,39.2922491 83.8280509,39.3779257 C83.9263423,39.3990515 84.0234566,39.3978778 84.1170394,39.3808599 C84.4089709,39.3280455 84.6567594,39.1062251 84.7220909,38.7999018 L84.8621709,38.1426563 L85.5572737,34.8881174 L87.6702451,24.9936383 C87.7567651,24.5899018 87.4954394,24.1890994 87.0905023,24.1028359 C86.6849766,24.0165725 86.2829823,24.2771234 86.1964623,24.6808599 L84.5855423,32.2262731 L84.1647137,34.1950754 L83.318348,38.1579138 L83.248308,38.4871234 Z" id="Fill-46" fill="#000000"></path>
      </g>
    </g>
  </g>
</svg>
