<?xml version="1.0" encoding="UTF-8"?>
<svg xmlns="http://www.w3.org/2000/svg" xmlns:xlink="http://www.w3.org/1999/xlink" width="111" height="116" viewBox="0 0 111 116">
  <desc>Created with Sketch.</desc>
  <defs>
    <filter x="-5%" y="-3.4%" width="110.1%" height="110.6%" filterUnits="objectBoundingBox" id="a">
      <feOffset dy="2" in="SourceAlpha"></feOffset>
      <feGaussianBlur stdDeviation="1.5" in="shadowOffsetOuter1"></feGaussianBlur>
      <feColorMatrix in="shadowBlurOuter1"></feColorMatrix>
      <feMerge>
        <feMergeNode in="shadowMatrixOuter1"></feMergeNode>
        <feMergeNode in="SourceGraphic"></feMergeNode>
      </feMerge>
    </filter>
    <path id="b" d="M0 16.743v-16.268h16.856v16.268h-16.856z"></path>
  </defs>
  <g filter="url(#a)" fill="none">
    <path d="M106.235 95.907c-14.433-5.087-18.422-21.487-18.591-22.17l-.023-.077c-.591-1.989-.481-3.637.311-4.839 1.442-2.21 4.932-2.681 7.27-2.993.559-.083 1.117-.165 1.528-.238 4.139-.864 5.221-2.267 5.366-3.293.157-1.096-.605-2.318-2.024-3.112l-.035-.006c-.483-.339-1.097-.557-1.73-.668-.386-.068-1.032-.11-1.602.043-1.983.556-3.751.715-5.24.524-1.914-.447-2.615-1.404-2.701-1.528.232-.902.435-1.844.678-2.816l.091-.31c1.699-6.95 3.772-15.609 2.44-20.992-4.033-16.154-17.992-19.816-22.175-20.555l-.246-.043-1.834-.288c-4.182-.739-18.517-2.075-27.833 11.685-3.096 4.601-4.116 13.446-4.9 20.558l-.07.585c.164-.076.337-.136.511-.192.846-.943-4.173 1.115-3.601-.457-1.016-.413-1.718-1.87-2.822-2.641-.286-.231-2.498.473-2.954.392-1.688-.298-5.814 2.743-6.368 4.24-.337.883-2.348 3.855 1.741 6.353.355.244 2.991 1.494 3.487 1.763 2.061 1.053 4.304 2.557 4.901 5.128.332 1.4 1.59 1.849.353 3.515l-.048.064c-.399.618-9.76 14.624-25.062 14.458-.575-.029-1.048.395-1.113.964-.037.211-.004.434.029.657.378 1.553 2.795 4.082 12.193 7.302.819.29.918 1.576.992 3.619.039.804.072 1.644.176 2.496.113.999.721 1.251 1.319 1.357.562.099 1.36.095 2.235.069 1.455-.033 3.457-.079 5.917.356 1.336.236 2.758.596 4.121 1.091 2.795 1.001 4.986 3.165 7.258 5.487 3.324 3.342 6.735 6.808 12.851 7.889l.533.058c.24.079.486.122.767.172 6.081 1.074 10.508-1.007 14.823-3.073 2.931-1.404 5.695-2.691 8.699-2.668 1.449.002 2.874.145 4.244.387 2.32.41 4.092 1.049 5.688 1.658.918.343 1.602.573 2.129.666l.106.019c.738.13 1.216-.111 1.551-.777.389-.766.701-1.508 1.013-2.25.871-2.057 1.373-3.056 2.165-3.025 9.962.237 13.099-1.311 13.951-2.647.108-.199.215-.397.252-.608.128-.521-.172-1.082-.715-1.286" fill="#fff"></path>
    <path d="M106.638 94.855c-13.889-4.882-17.725-20.711-17.866-21.353l-.017-.112c-.5-1.683-.446-3.015.191-3.953 1.15-1.791 4.382-2.235 6.497-2.514.593-.076 1.152-.159 1.604-.26 3.798-.779 5.896-2.185 6.214-4.194.244-1.588-.738-3.212-2.553-4.221-.618-.399-1.366-.677-2.105-.807-.527-.093-1.313-.159-2.077.068-1.83.51-3.451.659-4.764.499-.872-.19-1.398-.501-1.677-.767.166-.732.331-1.464.538-2.225l.091-.31c1.718-7.055 3.851-15.849 2.421-21.503-4.314-16.82-18.829-20.617-23.188-21.387l-.246-.043-1.828-.323c-4.324-.764-19.262-2.17-28.936 12.179-3.245 4.828-4.253 13.82-5.093 21.031l-.051.459.218.028c.313.055.597.142.865.244.179-.085.364-.158.554-.219.185-.205.391-.392.617-.555.796-6.956 1.76-15.48 4.673-19.802 8.937-13.247 22.731-11.934 26.738-11.226l1.828.323c.134.06.204.072.275.085 3.972.702 17.423 4.165 21.309 19.713 1.271 5.118-.778 13.637-2.452 20.446-.263 1.077-.519 2.119-.735 3.132l-.11.416.226.366c.081.159 1.006 1.483 3.413 2.017l.07.012c1.629.215 3.544.046 5.673-.52.306-.091.705-.093 1.127-.019.457.081.93.273 1.327.488l.064.048c.992.538 1.571 1.365 1.494 2.004-.062.351-.532 1.573-4.477 2.362-.376.079-.893.132-1.451.215-2.526.351-6.346.836-8.085 3.502-.988 1.493-1.113 3.428-.438 5.758.242 1.094 4.376 17.701 19.288 22.946l-.113.233c-.352.554-2.418 2.4-12.995 2.163-1.66-.04-2.37 1.72-3.193 3.713-.306.707-.584 1.456-.966 2.186-.114.233-.114.233-.394.184l-.106-.019c-.457-.081-1.142-.31-1.925-.593-1.427-.542-3.368-1.248-5.899-1.695-1.441-.255-2.942-.375-4.42-.418-3.256-.032-6.145 1.343-9.187 2.763-4.109 1.921-8.342 3.928-14.105 2.91-.246-.043-.492-.087-.732-.166l-.563-.099c-5.764-1.018-9.053-4.354-12.255-7.566-2.365-2.411-4.615-4.657-7.684-5.743-1.433-.507-2.89-.873-4.297-1.122-2.566-.453-4.637-.42-6.128-.393-.839.032-1.561.014-2.018-.067-.386-.068-.38-.103-.407-.361-.11-.817-.107-1.651-.153-2.42-.084-2.189-.148-4.086-1.721-4.617-10.019-3.401-11.292-5.837-11.468-6.484l-.027-.259c13.984.166 23.047-10.86 25.396-14.101-.574-.665-.888-1.498-.963-2.363l-.24.365-.054.099c-.393.583-9.415 14.105-24.1 13.94-1.121-.017-2.103.825-2.231 1.962-.021.323-.013.687.072 1.028.648 2.689 4.818 5.346 12.854 8.071.213.437.265 1.787.298 2.627.039.804.065 1.679.163 2.566.097.887.55 2.018 2.237 2.316.668.118 1.501.12 2.453.071 1.42-.039 3.38-.055 5.7.355 1.301.23 2.653.577 3.945 1.06 2.59.929 4.561 2.908 6.833 5.23 3.295 3.301 6.979 7.069 13.446 8.211.176.031.352.062.534.058l.767.172c6.467 1.142 11.213-1.101 15.445-3.108 2.965-1.397 5.494-2.582 8.211-2.573 1.408.031 2.768.126 4.069.356 2.25.397 3.957.989 5.483 1.585.947.385 1.743.598 2.341.704l.14.025c1.23.217 2.186-.266 2.748-1.399.395-.8.713-1.578 1.026-2.32.319-.778.83-2.029 1.179-2.366 8.448.188 13.311-.874 14.842-3.178.196-.291.329-.63.42-.94.269-1.113-.365-2.24-1.424-2.608" fill="#000"></path>
    <path d="M42.672 22.14c-1.366 1.363-2.635 2.83-3.736 4.495-.471.713-1.194 1.15-1.999 1.357-1.077 3.573-1.665 7.857-2.134 11.293-.101.737-.196 1.433-.284 2.027-.178 1.197-.493 2.407-.846 3.512-1.186-1.558-2.9-2.979-5.323-3.407-.602-.106-1.23-.145-1.864-.115-3.936.185-6.003 1.918-7.043 3.34-1.333 1.821-1.777 4.228-1.189 6.438.361 1.356 1.51 3.1 4.934 3.705.528.093 1.043.148 1.503.178.683 1.743 2.151 4.264 5.175 5.607-.113.75-.344 1.762-.993 2.765l-.396.666c-.402.647.078 1.546.642 2.113l.219.216c.098-.169.245-.28.365-.433l1.053-1.435c1.761-2.773 1.396-5.485 1.396-5.485-4.974-1.192-5.787-6.243-5.787-6.243s-1.36.089-2.786-.163c-1.377-.243-2.816-.804-3.153-2.07-.685-2.576.494-6.689 6.166-6.956.485-.023.94.008 1.367.083 2.664.471 4.23 2.679 5.071 4.437.385.804 1.536.789 1.87-.038.675-1.666 1.491-4.027 1.842-6.387.647-4.353 1.522-13.136 4.046-16.962.604-.917 1.235-1.758 1.884-2.539M28.22 51.648c-.579.833-1.748 1.264-2.944 1.088-1.353-.199-1.728 1.896-.37 2.096 1.765.26 3.86-.26 4.937-1.806.777-1.117-.841-2.502-1.623-1.377" fill="#020202"></path>
    <path d="M85.097 31.748c-2.672-1.582-6.239-1.743-8.933-.179-2.391 1.387-4.141 4.135-4.472 6.887-.098.815.885 1.663 1.626 1.037 1.98-1.675 4.768-1.941 7.102-.922 1.231.537 2.129-1.348.896-1.885-2.14-.934-4.656-1.063-6.848-.256.581-1.188 1.458-2.238 2.539-2.934 2.158-1.389 5.035-1.14 7.194.139 1.157.685 2.043-1.206.896-1.886M54.637 27.766c-1.996-2.392-5.402-3.463-8.454-2.892-1.308.245-1.128 2.326.196 2.079 2.467-.461 5.255.29 6.806 2.334.777 1.024 1.241 2.312 1.38 3.627-1.782-1.509-4.19-2.25-6.522-2.106-1.339.083-1.145 2.161.197 2.078 2.541-.157 5.07 1.048 6.356 3.3.482.843 1.694.387 1.883-.417.632-2.699-.072-5.881-1.842-8.002" fill="#000"></path>
    <path d="M29.781 18.686c-4.737.776-4.607 6.018-4.607 6.018s-3.383-4.007-7.44-1.442c-2.586 1.635-2.411 5.306.073 8.262 2.484 2.956 12.301 6.174 12.301 6.174s5.207-8.925 5.102-12.785c-.105-3.86-2.409-6.722-5.43-6.228" fill="#FF002C"></path>
    <path d="M33.266 29.747c-.983 2.444-2.176 4.824-3.483 7.115-3.537-1.176-7.327-2.563-10.31-4.773-2.13-1.578-4.232-5.406-1.994-7.733 2.074-2.158 5.475-1.165 7.125.748.457.529 1.274.258 1.262-.464-.041-2.489 1.475-4.774 3.98-5.26 2.885-.353 4.391 2.435 4.629 4.944.178 1.87-.523 3.716-1.21 5.424m1.92-8.285c-.949-2.186-2.878-3.7-5.303-3.482l-.167.013-.166.04c-2.677.589-4.459 2.639-4.936 5.2-1.777-1.378-4.14-1.98-6.292-1.064-3.485 1.483-3.788 5.338-2.066 8.349 1.564 2.735 4.538 4.141 7.306 5.382 2.037.913 4.128 1.729 6.248 2.427.382.125.718.03.927-.33 1.821-3.129 3.526-6.456 4.598-9.921.683-2.207.792-4.445-.15-6.615" fill="#000"></path>
    <path d="M27.593 2.35c-3.823-.778-5.239 3.243-5.239 3.243s-1.414-4.021-5.238-3.244c-2.438.495-3.364 3.336-2.33 6.3 1.033 2.964 7.566 8.245 7.566 8.245s6.534-5.278 7.569-8.242c1.035-2.964.11-5.805-2.328-6.301" fill="#FF002C"></path>
    <path d="M68.208 43.175c-.826-.236-1.365-1.941-1.834-2.579-.677-.92-1.533-1.579-2.63-1.923-1.827-.573-4.32-.27-5.655 1.225-2.021 2.262-1.718 6.095.246 8.288-1.544 1.181-2.504 3.05-2.243 5.049.222 1.706 1.032 2.984 2.67 3.597.745.279 1.561.42 2.358.38.899-.044 1.893-.792 2.737-.605 1.094.242 1.394-1.471.303-1.713-1.331-.294-2.287.67-3.6.576-1.514-.108-2.53-.856-2.736-2.399-.226-1.693.929-3.321 2.243-3.942.721-.342.712-1.191.072-1.602-2.082-1.335-2.451-5.91.057-7.024 1.93-.857 3.952-.198 5.057 1.542.743 1.169 1.213 2.431 2.652 2.842 1.075.306 1.37-1.409.303-1.713" fill="#000"></path>
    <g transform="matrix(.985 .174 -.174 .985 3.544 9.121)">
      <mask id="c"></mask>
      <path d="M15.804 6.656c-.239 1.356-1.032 2.603-1.761 3.743-1.157 1.809-2.476 3.53-3.875 5.162-2.738-1.522-5.777-3.277-7.787-5.669-1.797-2.138-2.131-6.385 1.4-6.841 1.687-.217 3.271.888 4.094 2.312.209.362.874.331.953-.125.368-2.096 1.9-3.701 4.091-3.721 2.513.186 3.257 3.031 2.885 5.138m-2.885-6.181c-2.25.02-4.057 1.424-4.809 3.441-.94-1.092-2.279-1.895-3.711-1.945-3.109-.107-4.855 2.556-4.297 5.437.538 2.778 2.677 4.495 4.857 6.063 1.62 1.165 3.321 2.237 5.067 3.205.19.106.479.094.632-.081 2.001-2.305 4.002-4.811 5.372-7.548 1.534-3.062 1.165-8.256-3.111-8.572" fill="#000" mask="url(#c)"></path>
    </g>
  </g>
</svg>
