<?xml version="1.0" encoding="UTF-8"?>
<svg xmlns="http://www.w3.org/2000/svg" xmlns:xlink="http://www.w3.org/1999/xlink" width="112px" height="110px" viewBox="0 0 112 110">
  <!-- Generator: Sketch 44.1 (41455) - http://www.bohemiancoding.com/sketch -->
  <desc>Created with Sketch.</desc>
  <defs>
    <filter x="-4.9%" y="-4.3%" width="109.8%" height="111.4%" filterUnits="objectBoundingBox" id="filter-1">
      <feOffset dy="2" in="SourceAlpha"></feOffset>
      <feGaussianBlur stdDeviation="1.5" in="shadowOffsetOuter1"></feGaussianBlur>
      <feColorMatrix type="matrix" in="shadowBlurOuter1"></feColorMatrix>
      <feMerge>
        <feMergeNode in="shadowMatrixOuter1"></feMergeNode>
        <feMergeNode in="SourceGraphic"></feMergeNode>
      </feMerge>
    </filter>
    <polygon id="path-2" points="0.939692621 0.342020143 0.939692621 104.34202 56.4396926 104.34202 111.939693 104.34202 111.939693 0.342020143 56.4396926 0.342020143"></polygon>
  </defs>
  <g id="Design" stroke="none" stroke-width="1" fill="none" fill-rule="evenodd">
    <g id="Ad-Products-—-App-Install" transform="translate(-1211.000000, -3660.000000)">
      <g id="Page-1" filter="url(#filter-1)" transform="translate(1258.578844, 3712.486991) rotate(-20.000000) translate(-1258.578844, -3712.486991) translate(1202.578844, 3659.986991)">
        <path d="M56.1879959,103 C55.8903585,103 55.6300926,103 55.3698268,102.962739 C55.1836365,102.962739 54.9981137,103 54.8119235,103 C48.3413131,103 44.2137631,100.070981 40.1976602,97.2530807 C37.4455153,95.2882025 34.8054849,93.4710395 31.75637,92.9520402 C30.2688503,92.6925405 28.7439592,92.5814214 27.3311826,92.5814214 C24.7278563,92.5814214 22.6824334,92.9893017 21.1949138,93.2853974 C20.3026689,93.4710395 19.4844997,93.6194201 18.8892249,93.6194201 C18.257246,93.6194201 17.5878955,93.4710395 17.2902581,92.4703024 C17.0299922,91.6172804 16.8444694,90.7642585 16.6582791,89.948498 C16.2118231,87.8725007 15.8774815,86.5750024 14.9845693,86.4266219 C4.75812198,84.8323624 1.8204542,82.6818422 1.15110373,81.1614404 C1.07702806,80.9392022 1.00228503,80.7162986 1.00228503,80.4940605 C0.965580868,79.9005382 1.37466545,79.3815389 1.9692729,79.3076813 C17.6993427,76.7120193 24.7652279,60.694902 25.0621979,59.9902606 C25.0621979,59.9529991 25.0621979,59.9529991 25.0995694,59.9157376 C26.0665573,57.9881209 26.2527475,56.282077 25.6574727,54.9107212 C24.5790376,52.3889168 21.0460951,51.2397991 18.7404062,50.5351577 C18.1831703,50.350181 17.625267,50.2018005 17.2161824,50.0161584 C12.5674333,48.1996608 12.1583487,46.3086402 12.3445389,45.3444992 C12.6421763,43.7129782 14.8364179,42.5638605 16.6209076,42.5638605 C17.1047352,42.5638605 17.550524,42.6377181 17.8855329,42.8233602 C19.96766,43.7875012 21.8642642,44.3065005 23.5006026,44.3065005 C25.7315484,44.3065005 26.7359078,43.379621 26.8473549,43.2312404 C26.7732793,42.1559803 26.7359078,41.0434587 26.6618321,39.9309371 C26.1780045,32.5159007 25.6201012,23.2837014 27.9631615,18.0185198 C35.0283793,2.2602368 49.9776515,1.03659611 54.4028389,1.03659611 C54.5142861,1.03659611 56.3368146,1 56.3368146,1 L56.5970805,1 C61.0222679,1 76.0089116,2.22364069 83.0741294,18.0185198 C85.4171897,23.2837014 84.8592864,32.5159007 84.3754588,39.9309371 L84.3387547,40.2649597 C84.2640116,41.3029583 84.2266401,42.3043609 84.1525645,43.2685019 C84.2640116,43.379621 85.1569238,44.2319776 87.2016794,44.3430966 C88.7639421,44.269239 90.5484318,43.7875012 92.4824075,42.8606217 C93.0403108,42.6004566 93.7096613,42.526599 94.1187459,42.526599 C94.7880963,42.526599 95.4574468,42.6377181 96.0153501,42.8972178 L96.0527216,42.8972178 C97.6516885,43.4534786 98.6553805,44.5660002 98.692752,45.7151179 C98.7301235,46.790378 97.8745828,48.421899 93.783737,50.0534199 C93.3746524,50.2018005 92.8174164,50.3867771 92.2595132,50.5724192 C89.9164528,51.3143221 86.4208818,52.4261783 85.3424467,54.9473173 C84.7478392,56.3193385 84.9333621,58.024717 85.90035,59.9529991 C85.90035,59.9902606 85.90035,59.9902606 85.9377215,60.0275221 C86.2353589,60.694902 93.3005767,76.7492808 109.030646,79.3442774 C109.625921,79.4560618 110.035006,79.9750612 109.997634,80.531322 C109.997634,80.7535601 109.922891,80.9757983 109.848816,81.1987018 C109.216837,82.7184383 106.279169,84.8689585 96.0153501,86.4266219 C95.1971809,86.537741 94.862172,87.6495972 94.3416402,89.9119019 C94.1561174,90.7276624 93.9699272,91.5427574 93.7096613,92.3957794 C93.4867669,93.1376822 93.0403108,93.4710395 92.2595132,93.4710395 L92.148066,93.4710395 C91.5901627,93.4710395 90.8460692,93.3599204 89.8423771,93.1742784 C88.0945916,92.8409211 86.1606159,92.5068985 83.7061084,92.5068985 C82.2559602,92.5068985 80.7684406,92.6180175 79.2809209,92.8775172 C76.1944344,93.3971819 73.5917756,95.2136795 70.8396307,97.1785577 C66.7861563,100.070981 62.6212348,103 56.1879959,103" id="Fill-1" fill="#FFFFFF"></path>
        <g id="Group-5" transform="translate(0.000000, -0.000000)">
          <mask id="mask-3" fill="white"></mask>
          <g id="Clip-4"></g>
          <path d="M56.0904613,2.03704075 C60.268517,2.03704075 74.6133739,3.14297168 81.3797407,18.2542743 C83.5978192,23.2303021 83.0431337,32.2603075 82.5627602,39.4845764 C82.4891117,40.6268866 82.4147998,41.7328175 82.3776438,42.8017077 L82.3411514,43.2442124 L82.6364086,43.5755948 C82.7478765,43.7230964 83.9308959,44.9024473 86.4820511,45.0135696 L86.5185436,45.0135696 L86.5556995,45.0135696 C88.2562485,44.9394881 90.1790697,44.4235634 92.2498513,43.465134 C92.5451086,43.3176324 92.9518337,43.2442124 93.3957148,43.2442124 C93.8760884,43.2442124 94.3942814,43.3546732 94.837499,43.5021747 L94.9118109,43.5392155 C96.0205184,43.9076387 96.7603202,44.644485 96.7974762,45.3079112 C96.7974762,45.6769959 96.5380479,47.0038484 92.6565765,48.5145818 C92.2863438,48.6620833 91.7688143,48.8095849 91.2141288,48.9941272 C88.7001296,49.805055 84.8923065,50.984406 83.5978192,54.0065342 C82.8586809,55.7018099 83.0802897,57.6920888 84.1896607,59.9409914 C84.6335418,61.0098815 91.8431262,77.1530336 108,79.8074001 C108,79.8808202 107.962844,79.9542402 107.925688,80.0653625 C107.666923,80.691748 105.892726,82.9399892 95.0597713,84.5988856 C93.3585588,84.8568479 92.9518337,86.7730452 92.4714601,88.9478663 C92.2863438,89.7217534 92.1383834,90.5326812 91.8796187,91.3436091 C91.8059702,91.6015714 91.8059702,91.6015714 91.5100495,91.6015714 L91.3992451,91.6015714 C90.9188716,91.6015714 90.1790697,91.4911106 89.3284635,91.3436091 C87.7758749,91.048606 85.6686008,90.6801828 83.0066413,90.6801828 C81.4905451,90.6801828 79.9379565,90.8276844 78.4218604,91.048606 C75.094411,91.6015714 72.3952954,93.5184302 69.5482195,95.508709 C65.7032405,98.1994548 61.7474571,101 55.6837361,101 C55.4249714,101 55.1662066,101 54.9074418,100.963621 L54.8331299,100.963621 L54.7594815,100.963621 L54.3156004,100.963621 C48.2525429,100.963621 44.296096,98.1624141 40.451117,95.4716682 C37.6040411,93.4443487 34.9049255,91.5645307 31.5774761,91.0115652 C30.0248875,90.7536029 28.4722989,90.643142 26.9933587,90.643142 C24.2942432,90.643142 22.1869691,91.048606 20.670873,91.3436091 C19.8202668,91.5281514 19.0811284,91.6386122 18.6000914,91.6386122 C18.1933663,91.6386122 18.1933663,91.6015714 18.1197178,91.3436091 C17.8609531,90.5326812 17.7129927,89.6847127 17.5278764,88.9108256 C17.0475028,86.6996252 16.6407777,84.7827664 14.9402287,84.5248041 C4.10727408,82.8665691 2.36956916,80.6176665 2.07364843,79.991281 C2.03649247,79.8808202 2,79.8074001 2,79.7333186 C18.1933663,77.0796136 25.3664582,60.9358 25.8096758,59.8669099 C26.9190468,57.6186687 27.1041631,55.6283899 26.4015173,53.9331142 C25.1076935,50.9103245 21.2992069,49.7309735 18.7852077,48.9200457 C18.1933663,48.7361648 17.7129927,48.5886633 17.3434235,48.4411617 C14.0896225,47.1513499 13.0545634,45.8608767 13.2025238,45.0869896 C13.3869766,44.165601 14.9402287,43.2442124 16.3083645,43.2442124 C16.6036217,43.2442124 16.8995424,43.2812531 17.0846588,43.3917139 C19.3027372,44.4235634 21.3735189,44.9765288 23.1477162,44.9765288 C25.9576362,44.9765288 27.2149675,43.686717 27.3629279,43.5392155 L27.6588486,43.2071716 L27.6216927,42.764667 C27.5473807,41.6957768 27.5108883,40.5905073 27.4365763,39.4475356 C26.9933587,32.1868874 26.4015173,23.1932613 28.6195958,18.217895 C35.3488066,3.14297168 49.6571711,2 53.8723828,2 L55.7945405,2 C55.9425009,2.03704075 56.0168128,2.03704075 56.0904613,2.03704075 M56.5198618,0 L56.5198618,0 L56.2603207,0 L54.3317308,0 C49.7704624,0 34.2326021,1.25683966 26.9275184,17.6289173 C24.4798463,23.1357984 25.0734633,32.4861549 25.5180106,39.9887249 C25.5925455,40.8754767 25.6291475,41.7993699 25.6664149,42.6867849 C25.295737,42.9083071 24.5909831,43.1669707 23.5155513,43.1669707 C22.0694415,43.1669707 20.3637907,42.7232631 18.3979332,41.7993699 C17.878851,41.5778478 17.2858995,41.4299453 16.655015,41.4299453 C14.3930145,41.4299453 11.6858012,42.9083071 11.2778558,45.1255182 C10.9817128,46.7153043 11.6858012,49.0432764 16.8406867,51.0761068 C17.3225014,51.2611507 17.878851,51.4455314 18.4352007,51.6305754 C20.5487969,52.295805 23.7750924,53.3304593 24.6282505,55.3632897 C25.0734633,56.4350854 24.8877916,57.8026861 24.1091683,59.4282872 C24.1091683,59.4654286 24.0719009,59.5025701 24.0719009,59.5397115 C23.7750924,60.2049411 16.9890909,75.6159841 1.93304539,78.092522 C0.783744177,78.2769027 -0.0694139908,79.3122202 0.00445539813,80.494777 C0.0417228376,80.8270602 0.116257717,81.1971481 0.264661984,81.5294313 C1.4139632,84.1532084 6.1609033,86.1124192 14.8754947,87.4428785 C15.1716378,87.8494445 15.4684463,89.2170453 15.654118,90.0666556 C15.8391242,90.8797878 16.0247959,91.7665395 16.284337,92.6539546 C16.5438781,93.5407064 17.2113646,94.6125021 18.9915503,94.6125021 C19.6963042,94.6125021 20.5487969,94.4645996 21.5130919,94.2430774 C22.9592016,93.9472724 24.961661,93.5778478 27.4093332,93.5778478 C28.7815736,93.5778478 30.2276833,93.6886089 31.6371911,93.9472724 C34.4555412,94.4281214 36.8286785,96.0908639 39.5724938,98.0494114 C43.5408106,100.821754 47.9909421,104 54.814211,104 C54.9992172,104 55.1848889,104 55.3705606,103.962859 C55.5928343,103.962859 55.8896428,104 56.1857859,104 C63.0097202,104 67.4591863,100.858232 71.4275031,98.0494114 C74.2085858,96.0908639 76.5817231,94.4281214 79.3634713,93.9472724 C80.809581,93.7257503 82.2184233,93.5778478 83.5906637,93.5778478 C85.963801,93.5778478 87.8185216,93.8736528 89.486905,94.205936 C90.5250694,94.4281214 91.3782275,94.501741 92.0084466,94.501741 L92.0829814,94.501741 L92.1568508,94.501741 C93.4552218,94.501741 94.3449819,93.8365114 94.7156598,92.5796717 C94.9752009,91.6929199 95.1608726,90.8426463 95.3458789,90.0295142 C95.5315506,89.1799038 95.8283591,87.8123031 96.1251676,87.405737 C104.802492,86.0752777 109.586034,84.1167302 110.736,81.4922898 C110.884405,81.1600066 110.958274,80.790582 110.995541,80.4576355 C111.069411,79.2750788 110.216918,78.2404245 109.066951,78.0553805 C93.974304,75.5795059 87.1876371,60.1306583 86.928096,59.5025701 C86.928096,59.4654286 86.891494,59.4282872 86.891494,59.391809 C86.0756033,57.7655447 85.8899316,56.397944 86.3717463,55.3261482 C87.2249045,53.2933179 90.4512,52.2586636 92.5647962,51.5934339 C93.1584133,51.40839 93.7147629,51.2240093 94.1593102,51.0389653 C97.9046879,49.5606035 99.7960104,47.7499585 99.7594085,45.6435085 C99.722141,43.9801028 98.4244356,42.501741 96.3847087,41.7993699 C95.6799548,41.5042282 94.8640641,41.3563257 94.0854408,41.3563257 C93.5290912,41.3563257 92.7132005,41.4299453 91.9718446,41.7993699 C90.1916589,42.6496435 88.5598774,43.093351 87.1876371,43.1669707 C86.2606095,43.1298292 85.6676579,42.9083071 85.333582,42.6867849 C85.3708494,41.9107942 85.4081168,41.1341403 85.4819862,40.3210081 L85.5192537,39.9887249 C86.0010684,32.4861549 86.5946855,23.1357984 84.1097459,17.6289173 C76.656258,1.25683966 61.1183977,0 56.5198618,0" id="Fill-3" fill="#000000" mask="url(#mask-3)"></path>
        </g>
        <path d="M12.0312936,43.099361 C12.0052936,42.983361 11.9762936,42.951361 12.0312936,43.099361" id="Fill-6" fill="#000000"></path>
        <path d="M46.5596771,17.1228121 C41.7713644,16.1664086 40.0000537,21.1099983 40.0000537,21.1099983 C40.0000537,21.1099983 38.2287431,16.1664086 33.4404304,17.1228121 C30.386927,17.732617 29.2281753,21.224011 30.5236412,24.8672047 C31.819107,28.5103984 40.0000537,35 40.0000537,35 C40.0000537,35 48.1810004,28.5103984 49.4764663,24.8672047 C50.7719322,21.224011 49.6125168,17.732617 46.5596771,17.1228121" id="Fill-8" fill="#FF002C"></path>
        <path d="M45.6911275,28.4160182 C43.9302367,30.412032 41.9991244,32.2684125 39.9932177,34 C38.9009625,33.051573 37.8351432,32.06672 36.8022076,31.0501628 C34.9181641,29.1964805 32.6782027,27.1094015 31.5865922,24.6047719 C30.1493804,21.3061887 31.3009553,16.2011423 35.6196834,17.1057231 C37.337374,17.4659365 38.7629798,19.1132043 39.3271612,20.7463065 C39.5618607,21.427609 40.4181269,21.4289581 40.6541159,20.7463065 C41.4736297,18.3718663 43.6755491,16.6672611 46.1805146,17.1205633 C48.9730514,17.8389664 49.3857098,21.0889814 48.7254564,23.6037295 C48.2315558,25.4830449 46.9291027,27.0122653 45.6911275,28.4160182 M47.1161664,16.215673 C44.3332853,15.7197223 41.8684292,17.0628103 40.490321,19.4105335 C38.5893252,16.3691496 34.4432941,14.5461958 31.5823701,17.496432 C29.5974781,19.5432338 29.6787728,23.0490688 30.7356042,25.541556 C31.7358546,27.8979918 33.7409077,29.8831349 35.4968738,31.6477809 C36.9400178,33.0981015 38.4462464,34.4941356 40.0129584,35.8017028 C40.3283819,36.0650928 40.6763234,36.0671034 40.9943483,35.8017028 C43.8266566,33.4378947 46.6388038,30.8368346 48.8636778,27.852418 C50.2378839,26.0100283 51.108713,23.9163123 50.9890472,21.5391001 C50.8628777,19.0379003 49.5641132,16.8356113 47.1161664,16.215673" id="Fill-10" fill="#000000"></path>
        <path d="M76.5596771,17.1228121 C71.7713644,16.1664086 70.0000537,21.1099983 70.0000537,21.1099983 C70.0000537,21.1099983 68.2287431,16.1664086 63.4404304,17.1228121 C60.386927,17.732617 59.2281753,21.224011 60.5236412,24.8672047 C61.819107,28.5103984 70.0000537,35 70.0000537,35 C70.0000537,35 78.1810004,28.5103984 79.4764663,24.8672047 C80.7719322,21.224011 79.6125168,17.732617 76.5596771,17.1228121" id="Fill-12" fill="#FF002C"></path>
        <path d="M75.6911275,28.4160182 C73.9308815,30.412032 71.9991244,32.2684125 69.9938624,34 C68.9009625,33.051573 67.8351432,32.06672 66.8022076,31.0501628 C64.9181641,29.1964805 62.6782027,27.1094015 61.5865922,24.6047719 C60.1493804,21.3061887 61.3009553,16.2011423 65.6196834,17.1057231 C67.3380187,17.4659365 68.7629798,19.1132043 69.3271612,20.7463065 C69.5618607,21.427609 70.4187716,21.4289581 70.6541159,20.7463065 C71.4736297,18.3718663 73.6755491,16.6672611 76.1805146,17.1205633 C78.9730514,17.8389664 79.3857098,21.0889814 78.7254564,23.6037295 C78.2315558,25.4830449 76.9291027,27.0122653 75.6911275,28.4160182 M77.1161664,16.215673 C74.3332853,15.7197223 71.8684292,17.0628103 70.490321,19.4105335 C68.5893252,16.3691496 64.4432941,14.5461958 61.5823701,17.496432 C59.5974781,19.5432338 59.6787728,23.0490688 60.7356042,25.541556 C61.7358546,27.8979918 63.7409077,29.8831349 65.4968738,31.6477809 C66.9400178,33.0981015 68.4462464,34.4941356 70.0129584,35.8017028 C70.3283819,36.0650928 70.6763234,36.0671034 70.9943483,35.8017028 C73.8266566,33.4378947 76.6388038,30.8368346 78.8636778,27.852418 C80.2378839,26.0100283 81.108713,23.9163123 80.9890472,21.5391001 C80.8628777,19.0379003 79.5641132,16.8356113 77.1161664,16.215673" id="Fill-14" fill="#000000"></path>
        <path d="M63.9866861,34 L55.4996749,34 L47.0133139,34 C47.0133139,34 46.538707,45.2472945 51.2568195,48.6095946 C52.9335471,49.804878 54.3554173,49.9082539 55.4892726,50 C56.6231279,49.9082539 58.0664529,49.804878 59.7431805,48.6095946 C64.461293,45.2472945 63.9866861,34 63.9866861,34" id="Fill-16" fill="#FF002C"></path>
        <path d="M60.2309119,46.3995538 C58.0172934,49.4192741 53.2819996,49.9091721 50.5314439,47.3411587 C48.4322656,45.3815669 47.7429633,42.063562 47.3497416,39.3493694 C47.0982394,37.6162896 46.9764804,35.9753949 47.0037597,34 L62.9867903,34 C63.0879235,37.9507898 62.649458,43.0999858 60.2309119,46.3995538 M64.9762823,33.835274 C64.9702421,33.684618 64.9165515,33.505964 64.8474248,33.4046379 C64.7400435,33.2106517 64.5514551,33 64.2595123,33 L46.7382438,33 C46.340262,33 46.037581,33.388639 46.0221449,33.7732784 C45.9422801,35.7644702 46.0845603,37.8123246 46.350329,39.7841844 C46.764418,42.8652988 47.5409188,46.3823821 49.7959256,48.6922179 C52.5422017,51.5046847 57.2260388,51.7393347 60.3481493,49.4354984 C62.9078505,47.5456328 63.9118654,44.1392082 64.4400471,41.1614199 C64.8668876,38.7602572 65.0735966,36.2751005 64.9762823,33.835274" id="Fill-18" fill="#000000"></path>
      </g>
    </g>
  </g>
</svg>
