<?xml version="1.0" encoding="UTF-8"?>
<svg xmlns="http://www.w3.org/2000/svg" width="68" height="72" viewBox="0 0 68 72">
  <style type="text/css">.st0{fill:#FFF100;} .st1{fill:#FFFFFF;} .st2{fill:none;stroke:#000000;stroke-width:2;}</style>
  <desc>Created with Sketch.</desc>
  <g id="Group-18-Copy-14">
    <g id="phone">
      <path id="Path" class="st0" d="M17.5 1h33c1.1 0 2 .9 2 2v64c0 1.1-.9 2-2 2h-33c-1.1 0-2-.9-2-2v-64c0-1.1.9-2 2-2z"></path>
      <path id="Rectangle-19" class="st1" d="M19.5 10.9h29c1.7 0 3 1.3 3 3v56.2h-35v-56.2c0-1.7 1.3-3 3-3z"></path>
    </g>
    <g id="Rectangle-8">
      <path id="path-1" class="st2" d="M17.5 2h33c1.1 0 2 .9 2 2v64c0 1.1-.9 2-2 2h-33c-1.1 0-2-.9-2-2v-64c0-1.1.9-2 2-2z"></path>
      <path id="path-1_1_" class="st2" d="M17.5 2h33c1.1 0 2 .9 2 2v64c0 1.1-.9 2-2 2h-33c-1.1 0-2-.9-2-2v-64c0-1.1.9-2 2-2z"></path>
    </g>
  </g>
</svg>
