<?xml version="1.0" encoding="UTF-8"?>
<svg xmlns="http://www.w3.org/2000/svg" width="68" height="71" viewBox="0 0 68 71">
  <style type="text/css">.st0{fill:#FFFFFF;} .st1{fill:none;stroke:#000000;stroke-width:2;stroke-linecap:round;stroke-linejoin:round;} .st2{fill:none;stroke:#000000;stroke-width:2;} .st3{fill:#FFF100;} .st4{fill:#FFF100;stroke:#000000;stroke-width:2;}</style>
  <desc>Created with Sketch.</desc>
  <g id="Group-12-Copy-4" transform="translate(-1132 -1628) translate(1133 1628)">
    <g id="Group-18-Copy-2">
      <g id="phone">
        <path id="Path" class="st0" d="M16.5 1h33c1.1 0 2 .9 2 2v65c0 1.1-.9 2-2 2h-33c-1.1 0-2-.9-2-2v-65c0-1.1.9-2 2-2z"></path>
        <path id="Line" class="st1" d="M20.5 9h25.7"></path>
      </g>
      <path id="Rectangle-8" class="st2" d="M16.5 1h33c1.1 0 2 .9 2 2v65c0 1.1-.9 2-2 2h-33c-1.1 0-2-.9-2-2v-65c0-1.1.9-2 2-2z"></path>
    </g>
    <g id="Fill-8">
      <path id="path-1" class="st3" d="M26.5 40h8v-7h-8v7zm13-1l-3-1.3v-2.5l3-1.2v5z"></path>
      <path class="st1" d="M35.5 41h-10v-9h10v9zm5-.5l-5-2.1v-3.8l5-2.1v8z"></path>
    </g>
    <circle id="Oval" class="st4" cx="40.5" cy="9" r="2"></circle>
  </g>
</svg>
