<?xml version="1.0" encoding="UTF-8"?>
<svg xmlns="http://www.w3.org/2000/svg" width="68" height="71" viewBox="0 0 68 71">
  <style type="text/css">.st0{fill:#9A9FA7;} .st1{fill:#FFFFFF;} .st2{fill:#FFF100;stroke:#FFF100;stroke-width:2;stroke-linecap:round;stroke-linejoin:round;} .st3{fill:none;stroke:#FFFFFF;stroke-width:4;stroke-linecap:round;stroke-linejoin:round;} .st4{fill:none;stroke:#000000;stroke-width:2;}</style>
  <desc>Created with Sketch.</desc>
  <g id="Group-16">
    <path id="Path" class="st0" d="M17.5 0h33c1.1 0 2 .9 2 2v65c0 1.1-.9 2-2 2h-33c-1.1 0-2-.9-2-2v-65c0-1.1.9-2 2-2z"></path>
    <path id="Rectangle-19" class="st1" d="M19.5 13h29c1.7 0 3 1.3 3 3v53h-35v-53c0-1.7 1.3-3 3-3z"></path>
    <path id="Rectangle-20-Copy" class="st2" d="M20.5 18h27v15.4h-27z"></path>
    <path id="Rectangle-20-Copy-3" class="st2" d="M20.5 39h27v15.4h-27z"></path>
    <path id="Rectangle-20-Copy-4" class="st2" d="M20.5 60h27v10h-27z"></path>
    <path id="Line" class="st3" d="M21.5 8h25.4"></path>
    <path id="Rectangle-8" class="st4" d="M17.5 1h33c1.1 0 2 .9 2 2v65c0 1.1-.9 2-2 2h-33c-1.1 0-2-.9-2-2v-65c0-1.1.9-2 2-2z"></path>
  </g>
</svg>
