<?xml version="1.0" encoding="UTF-8"?>
<svg width="278px" height="264px" viewBox="0 0 278 264" version="1.1" xmlns="http://www.w3.org/2000/svg" xmlns:xlink="http://www.w3.org/1999/xlink">
    <!-- Generator: Sketch 44.1 (41455) - http://www.bohemiancoding.com/sketch -->
    <title>Page 1 Copy 4</title>
    <desc>Created with Sketch.</desc>
    <defs>
        <filter x="-8.5%" y="-7.3%" width="117.4%" height="117.8%" filterUnits="objectBoundingBox" id="filter-1">
            <feOffset dx="0" dy="4" in="SourceAlpha" result="shadowOffsetOuter1"></feOffset>
            <feGaussianBlur stdDeviation="6.5" in="shadowOffsetOuter1" result="shadowBlurOuter1"></feGaussianBlur>
            <feColorMatrix values="0 0 0 0 0   0 0 0 0 0   0 0 0 0 0  0 0 0 0.239102129 0" type="matrix" in="shadowBlurOuter1" result="shadowMatrixOuter1"></feColorMatrix>
            <feMerge>
                <feMergeNode in="shadowMatrixOuter1"></feMergeNode>
                <feMergeNode in="SourceGraphic"></feMergeNode>
            </feMerge>
        </filter>
        <polygon id="path-2" points="0 0.564633642 0 239.105063 252.228958 239.105063 252.228958 0.564633642"></polygon>
    </defs>
    <g id="Design" stroke="none" stroke-width="1" fill="none" fill-rule="evenodd">
        <g id="Get-Started" transform="translate(-584.000000, -194.000000)">
            <g id="Group-3" transform="translate(328.000000, 201.000000)">
                <g id="Page-1-Copy-4" filter="url(#filter-1)" transform="translate(269.000000, 0.000000)">
                    <path d="M95.9805377,83.6462969 C91.5523149,82.9995609 87.1920406,82.0316175 82.8447777,80.9815718 C80.4998291,80.4140574 78.0609091,79.585832 77.8151377,82.9333029 C77.4363606,88.0755021 83.1223549,92.6501869 87.174692,94.7473976 C91.678092,97.0779518 96.8421834,97.9623524 101.877606,97.9695544 C107.126995,97.9781967 112.324338,96.8892604 116.944841,94.3728957 C120.326366,92.5320748 127.977086,87.4863818 126.918823,82.6092147 C116.670155,84.9786594 106.512566,85.1831951 95.9805377,83.6462969" id="Fill-1" fill="#EC4E7F"></path>
                    <path d="M210.155679,85.6344699 L208.44829,93.6228836 L208.10421,95.2361226 C207.94229,95.9880072 207.33509,96.5324753 206.61657,96.6621106 C206.388147,96.703882 206.149605,96.7067628 205.90817,96.656349 C204.913519,96.4446114 204.271622,95.4608237 204.484142,94.4683937 L204.656182,93.6603338 L206.735119,83.9348074 L207.767359,79.100852 L211.725725,60.5802924 C211.938245,59.5893028 212.925667,58.9497688 213.921765,59.1615064 C214.916416,59.373244 215.558313,60.3570317 215.345793,61.3494617 L210.155679,85.6344699 Z M192.309782,91.8857709 L194.60413,81.1562913 L195.172296,78.494447 L195.876359,75.1973899 L197.920599,65.6346278 C198.131673,64.6421977 199.120542,64.0041041 200.115193,64.2158417 L200.115193,64.2158417 C201.11129,64.4261389 201.751742,65.411367 201.540667,66.4023567 L199.771113,74.6817296 L199.030907,78.1473126 L198.406359,81.066987 L195.92985,92.6534998 C195.718776,93.6459299 194.729907,94.2840235 193.735256,94.0737263 C192.739159,93.8619887 192.098707,92.878201 192.309782,91.8857709 L192.309782,91.8857709 Z M204.849907,80.6896044 L203.704902,86.046422 L202.66977,90.8904601 L202.006187,93.9959451 C201.79945,94.9595673 200.839496,95.5803763 199.872313,95.3758406 L199.771113,95.3542347 C199.619313,95.3211057 199.493536,95.2418842 199.36053,95.1756261 C198.646347,94.8198493 198.212633,94.0405973 198.386119,93.2282162 L200.770102,82.073821 L201.521873,78.5535031 L202.273645,75.036066 L202.515079,73.9111199 C202.72037,72.9460573 203.680325,72.3252483 204.648953,72.5312244 L204.750153,72.5528303 C205.717336,72.7573659 206.340439,73.7137862 206.133702,74.6788488 L205.682639,76.7919038 L204.849907,80.6896044 Z M188.375993,80.5239593 L188.84585,78.3244808 L190.807685,69.1434225 C191.020205,68.1524329 192.007627,67.5128989 193.003725,67.7246365 C193.998376,67.9349337 194.640273,68.9201618 194.427753,69.9111514 L193.080347,76.215747 L192.450016,79.1699909 L191.796553,82.2250622 L189.843393,91.3629087 C189.630873,92.3538983 188.64345,92.9934323 187.648799,92.7816947 C186.652702,92.5713975 186.01225,91.5861694 186.223325,90.5951797 L187.379896,85.1821868 L188.375993,80.5239593 Z M189.262216,37.2733104 L180.15277,79.4105363 L179.457382,82.6269315 L178.308039,87.9448586 L172.956005,112.697994 L179.675685,114.139826 L184.638822,115.204276 L187.888787,115.902866 L211.770542,121.027781 L228.075307,45.603097 L189.262216,37.2733104 Z" id="Fill-3" fill="#FFF100"></path>
                    <path d="M189.91857,125.73527 L190.924787,125.951328 C192.097262,126.203397 193.252387,125.460155 193.505387,124.291997 L193.722245,123.289484 C193.975245,122.119886 193.229256,120.969013 192.056782,120.718385 L191.050565,120.502326 C189.876645,120.250257 188.721519,120.993499 188.469965,122.161657 L188.253107,123.16417 C188.195279,123.432083 188.195279,123.698555 188.235759,123.953505 C188.393342,124.315043 188.569719,124.685224 188.766336,125.064047 C189.061262,125.391016 189.454496,125.635883 189.91857,125.73527" id="Fill-5" fill="#434A54"></path>
                    <path d="M188.235325,123.953217 C188.300382,124.37093 188.486879,124.755515 188.765902,125.065199 C188.570731,124.684936 188.394354,124.314755 188.235325,123.953217" id="Fill-7" fill="#434A54"></path>
                    <path d="M211.770108,121.027205 L187.888354,115.90229 L184.639834,115.20514 L179.675251,114.13925 L172.957017,112.697418 L178.307605,87.9457228 L179.456948,82.6277958 L180.152337,79.4099602 L189.261782,37.2727342 L228.076319,45.6025208 L211.770108,121.027205 Z M193.721811,123.28862 L193.504954,124.291133 C193.253399,125.459291 192.098274,126.202533 190.924354,125.951905 L189.918137,125.735846 C189.454062,125.635018 189.060828,125.391592 188.765902,125.064623 C188.486879,124.754939 188.300382,124.370354 188.235325,123.952641 C188.194845,123.697691 188.194845,123.432659 188.252674,123.164746 L188.469531,122.160793 C188.722531,120.992635 189.877657,120.250833 191.050131,120.501462 L192.056348,120.71752 C193.228822,120.969589 193.974811,122.120462 193.721811,123.28862 L193.721811,123.28862 Z M207.821862,36.8910304 C207.959205,36.2543771 208.589537,35.849627 209.227097,35.9864642 C209.866102,36.1233015 210.272348,36.749872 210.135005,37.3865252 C209.996217,38.0231784 209.367331,38.4279286 208.729771,38.2910913 C208.090765,38.1528137 207.684519,37.5262432 207.821862,36.8910304 L207.821862,36.8910304 Z M149.474279,75.0023608 C143.588777,77.6339569 137.414131,79.7599754 131.201897,81.5071708 C132.170525,86.1841235 129.013085,90.5542726 125.598308,93.6655192 C121.339234,97.5444947 116.001657,100.307166 110.363371,101.521417 C99.316668,103.903825 86.2286166,101.869992 78.1629766,93.4710663 C74.7163937,89.8816096 71.6037709,83.9529563 74.3925537,79.0988355 C76.5249823,75.3840647 80.0554166,75.7657685 83.6537994,76.6300037 C95.0373537,79.3609868 107.090274,81.5057304 118.788994,79.7398099 C128.644428,78.251885 138.462274,75.0513341 147.552925,70.9865481 C150.174005,69.814069 152.096805,73.8284414 149.474279,75.0023608 L149.474279,75.0023608 Z M116.244537,129.269127 C114.850868,133.031431 111.524279,135.239552 108.457919,137.624841 C103.838862,141.217178 99.0578851,144.53008 93.7347651,147.001792 C91.1165766,148.217483 88.8164451,144.914665 90.3850451,143.180433 C90.5888909,142.955732 90.8491194,142.754077 91.190308,142.595634 C95.197828,140.734647 98.8945194,138.425699 102.461097,135.832993 C105.432039,133.672405 110.872262,130.651904 111.745474,126.589998 C113.795497,117.056044 103.455748,123.21516 99.5118394,124.75926 C91.3681309,127.946847 82.3309709,129.381478 73.551148,130.075747 C72.5463766,130.156409 71.5416051,130.231309 70.545508,130.293246 C67.2651823,130.494901 67.3143366,125.410317 70.5802051,125.208662 C77.4242166,124.786628 84.3246109,123.792757 90.9734509,122.117581 C95.724068,120.920616 99.6939994,118.796037 104.096199,116.841426 C106.511988,115.769774 109.196679,115.242591 111.722342,116.276792 C116.682588,118.306304 117.951925,124.664194 116.244537,129.269127 L116.244537,129.269127 Z M67.5658909,64.2296695 C72.2138623,61.482842 78.0805709,61.1976444 83.6668109,61.9840984 C76.5148623,56.271504 65.647428,54.7922214 56.934108,55.738559 C53.6523366,56.0957762 52.7328623,51.0601659 56.0363194,50.7000679 C69.5190509,49.2337489 85.6271994,52.7929574 93.011908,65.0766199 C94.2638966,67.1565459 91.7497994,69.181737 89.8053137,68.5810935 C83.6668109,66.6912993 75.5418966,65.4439199 69.7778337,68.8518872 C66.9239937,70.5385862 64.7453023,65.9019645 67.5658909,64.2296695 L67.5658909,64.2296695 Z M134.673057,37.6112263 C139.261754,36.8002857 143.916954,41.4484305 145.083645,47.9978927 C146.250337,54.5459144 143.484685,60.5091371 138.895988,61.3215181 C134.310182,62.1310184 129.650645,57.4814332 128.483954,50.9334114 C127.317262,44.3839493 130.087251,38.422167 134.673057,37.6112263 L134.673057,37.6112263 Z M186.941411,131.651536 C186.425291,130.978873 185.988685,130.388312 185.634485,129.897138 L188.283034,130.466093 L193.759399,131.641453 L209.292154,134.97452 C213.405211,135.85748 217.457548,133.250371 218.343771,129.152456 L222.007211,112.209125 C221.559039,111.906643 221.141228,111.572472 220.743657,111.212374 C219.705634,110.271798 218.822302,109.164137 218.173177,107.877867 C217.505257,106.554146 217.114914,105.141122 216.993474,103.707932 C216.863359,102.178236 217.039737,100.624053 217.541399,99.1246047 C217.769822,98.4332165 218.064748,97.7763978 218.410274,97.1541485 C219.520582,95.1548845 221.203394,93.5330032 223.302571,92.4843978 C223.833148,92.2193657 224.379628,92.0105089 224.933337,91.8304599 C225.448011,91.6633744 225.969914,91.522216 226.499045,91.4300309 L236.147742,46.7994866 C237.033965,42.7015715 234.417222,38.6641529 230.304165,37.7811926 L190.463171,29.231026 C186.350114,28.3495062 182.299222,30.9551752 181.412999,35.0516499 L174.959331,64.9023325 L173.412417,72.0610805 L171.780205,79.6072938 C171.657319,78.4232917 171.469377,76.9857805 171.222159,75.3509357 C169.409234,63.3452688 164.551634,40.9903858 161.162879,34.4769335 C139.623182,2.78398955 106.470062,6.02631181 96.9760566,7.70580882 C96.776548,7.74037823 96.5886051,7.77638802 96.4093366,7.80807665 C96.4093366,7.80807665 92.242788,8.59020947 92.0056909,8.63198084 C82.3974737,10.3302029 50.3315309,18.7248072 41.0876337,55.7327974 C38.0357309,67.9631654 42.9873023,88.2496455 46.9673537,104.562084 C48.9132851,113.44066 54.9274566,134.638908 51.5314737,151.893364 C50.9184909,154.506235 41.0919709,194.163105 5.31054229,206.730525 C5.34957657,206.900491 5.42764514,207.092064 5.564988,207.302361 C6.45410229,208.653448 11.3304966,213.026478 36.714348,212.457524 C40.6842794,212.366779 42.4075709,216.538154 44.4041023,221.370669 C45.1168394,223.094818 45.8555994,224.880904 46.743268,226.659788 C47.046868,227.270514 47.0728909,227.319488 47.9663423,227.161045 C49.060748,226.968032 50.6712737,226.350104 52.5333537,225.631348 C55.9148794,224.330674 60.5512851,222.54891 66.679668,221.465735 C70.1016737,220.86077 73.682708,220.533801 77.3244623,220.49203 C85.1067423,220.408487 92.0317137,223.655131 99.3614851,227.090465 C109.202462,231.7026 119.380291,236.470298 133.169514,234.031714 C133.516485,233.971218 133.857674,233.896317 134.190188,233.809894 L134.344879,233.769563 L134.501017,233.749397 C135.096651,233.671616 135.689394,233.586633 136.287919,233.481484 C150.081479,231.04146 157.988091,223.076093 165.634474,215.369996 C171.330588,209.634355 176.711537,204.21128 184.045645,201.621455 C187.479217,200.412966 190.954714,199.491115 194.378165,198.886151 C200.507994,197.801536 205.458119,197.791453 209.085417,197.851949 C211.077611,197.886519 212.786445,197.820261 213.882297,197.625808 C213.990725,197.607083 214.086142,197.589798 214.169994,197.575394 C214.782977,197.465924 214.808999,197.427034 214.874057,196.830711 C215.093805,194.855934 215.179102,192.974782 215.251388,191.109475 C215.455234,185.890935 215.637394,181.406994 219.397697,180.130807 C243.428359,171.962344 246.497611,166.196456 246.864822,164.620667 C246.924097,164.378681 246.931325,164.178466 246.911085,164.004179 C215.090914,164.397406 193.840359,140.648224 186.941411,131.651536 L186.941411,131.651536 Z" id="Fill-9" fill="#FFFFFF"></path>
                    <path d="M231.394378,96.6286935 C231.17463,96.5149026 230.912955,96.4083136 230.60791,96.3074861 C229.409413,95.9099379 228.157424,95.8753685 226.957481,96.1504834 C226.429795,96.2700359 225.909338,96.4328002 225.412013,96.681988 C225.391773,96.6920708 225.37587,96.7064747 225.35563,96.7165574 C224.684818,97.0608111 224.10075,97.5188557 223.590413,98.0460392 C222.890687,98.7662352 222.336978,99.621828 222.010247,100.599854 C221.525933,102.048888 221.577978,103.578585 222.08687,104.998811 C222.179395,105.259522 222.260355,105.524554 222.386133,105.776623 C222.597207,106.195777 222.860327,106.57604 223.146578,106.936138 C223.50367,107.385541 223.905578,107.794612 224.365315,108.140306 C224.668915,108.366447 224.988418,108.573864 225.329607,108.749592 C225.64911,108.913796 225.981624,109.052074 226.322813,109.167305 C228.076464,109.746343 228.768961,109.236444 229.276407,108.715022 C230.323104,107.654894 231.087887,105.641226 231.703761,103.807607 C232.27771,102.089219 232.906595,99.9257507 232.70275,98.4277431 C232.618898,97.7997322 232.403487,97.1472346 231.394378,96.6286935" id="Fill-11" fill="#FFFFFF"></path>
                    <path d="M138.895843,61.3207979 C143.484541,60.5098573 146.250192,54.5451942 145.083501,47.9986128 C143.916809,41.4477103 139.261609,36.7995655 134.672912,37.6105062 C130.087106,38.4214468 127.317118,44.3832291 128.483809,50.9341316 C129.650501,57.480713 134.311483,62.1317386 138.895843,61.3207979" id="Fill-13" fill="#000000"></path>
                    <path d="M69.7776891,68.8514551 C75.541752,65.4434878 83.6666663,66.6908672 89.8051691,68.5821018 C91.7496549,69.1813048 94.263752,67.1561138 93.0117634,65.0776282 C85.6270549,52.7925253 69.520352,49.2333168 56.0361749,50.6996358 C52.7327177,51.0611742 53.6536377,56.095344 56.9339634,55.7381268 C65.6472834,54.7932297 76.5161634,56.2710719 83.6666663,61.9851067 C78.0804263,61.1972123 72.2137177,61.4824099 67.5657463,64.2292373 C64.7451577,65.9015324 66.9238491,70.5381541 69.7776891,68.8514551" id="Fill-15" fill="#000000"></path>
                    <path d="M116.944985,94.3731838 C112.324482,96.8895485 107.127139,97.9784848 101.877751,97.9698425 C96.8408823,97.9612001 91.6782366,97.0782398 87.1748366,94.7476857 C83.1224994,92.650475 77.4365051,88.0743498 77.8152823,82.933591 C78.0610537,79.5861201 80.4999737,80.4143455 82.8449223,80.9818599 C87.1921851,82.0304652 91.5524594,82.999849 95.9806823,83.646585 C106.512711,85.1834832 116.670299,84.9775071 126.918968,82.6095028 C127.977231,87.4866699 120.326511,92.5323629 116.944985,94.3731838 M147.553648,70.9855398 C138.462997,75.0503259 128.645151,78.2523171 118.789717,79.740242 C107.090997,81.5047222 95.0366309,79.3614189 83.6545223,76.6289954 C80.0561394,75.7662007 76.5257051,75.3844968 74.3918309,79.0992676 C71.6044937,83.9519481 74.7171166,89.8820417 78.1622537,93.470058 C86.2278937,101.868983 99.3173909,103.904257 110.364094,101.521849 C116.000934,100.306158 121.339957,97.5449268 125.599031,93.6645109 C129.013808,90.5547047 132.169802,86.1831152 131.201174,81.5076029 C137.413408,79.7604075 143.588054,77.634389 149.473557,75.0013525 C152.097528,73.8288735 150.174728,69.8130608 147.553648,70.9855398" id="Fill-17" fill="#000000"></path>
                    <g id="Group-21" transform="translate(0.000000, 0.875758)">
                        <mask id="mask-3" fill="white">
                            <use xlink:href="#path-2"></use>
                        </mask>
                        <g id="Clip-20"></g>
                        <path d="M252.180714,162.496665 C251.856874,159.814655 249.556742,157.806749 246.844582,157.841318 C222.245754,158.1438 204.279862,142.527071 195.346794,132.578284 L189.815491,131.392841 L186.941411,130.774913 C193.840359,139.773041 215.090914,163.522224 246.911085,163.128997 C246.931325,163.301844 246.924097,163.502058 246.864822,163.745485 C246.497611,165.321273 243.428359,171.085722 219.397697,179.254185 C215.637394,180.531812 215.455234,185.015752 215.251388,190.232852 C215.179102,192.09816 215.093805,193.979311 214.874057,195.955529 C214.808999,196.551851 214.784422,196.590742 214.169994,196.698771 C214.086142,196.714616 213.990725,196.73046 213.883742,196.750626 C212.786445,196.943638 211.077611,197.011337 209.085417,196.975327 C205.458119,196.91483 200.507994,196.926353 194.378165,198.010969 C190.954714,198.615933 187.479217,199.536344 184.045645,200.746273 C176.711537,203.334657 171.330588,208.757733 165.634474,214.494814 C157.988091,222.200911 150.081479,230.166278 136.287919,232.604862 C135.689394,232.711451 135.096651,232.796434 134.501017,232.874215 L134.344879,232.89294 L134.190188,232.933271 C133.857674,233.019695 133.516485,233.094595 133.169514,233.156532 C119.380291,235.595116 109.202462,230.827418 99.3614851,226.215283 C92.0317137,222.779948 85.1067423,219.533305 77.3244623,219.615407 C73.682708,219.658619 70.1016737,219.984148 66.6811137,220.589112 C60.5512851,221.673727 55.9148794,223.455492 52.5333537,224.756166 C50.6712737,225.473481 49.060748,226.09285 47.9663423,226.285862 C47.0728909,226.444305 47.046868,226.393892 46.743268,225.783166 C45.8555994,224.005722 45.1168394,222.219636 44.4041023,220.494046 C42.4075709,215.662972 40.6842794,211.491597 36.714348,211.580901 C11.3304966,212.149856 6.45410229,207.778266 5.564988,206.427179 C5.42764514,206.216881 5.34957657,206.025309 5.31054229,205.853903 C41.0919709,193.287923 50.9184909,153.629612 51.5314737,151.016741 C54.9274566,133.763726 48.9132851,112.565478 46.9673537,103.685462 C42.9873023,87.3744634 38.0357309,67.0879832 41.0876337,54.8561749 C50.3315309,17.8481846 82.3989194,9.45502079 92.0056909,7.7553583 C92.242788,7.71358694 96.4093366,6.9328945 96.4093366,6.9328945 C96.5886051,6.89976549 96.776548,6.86519608 96.9760566,6.82918628 C106.470062,5.15112967 139.623182,1.90736701 161.162879,33.6017513 C164.553079,40.1152037 169.409234,62.4700867 171.222159,74.4743131 L172.730039,67.4999353 L174.229245,60.5644481 C171.745508,48.8742271 168.336514,33.920078 165.557851,30.6374247 C142.306428,-3.57764551 106.477291,-0.221532281 96.047908,1.62216941 L96.037788,1.6236098 C95.8209309,1.66250038 95.6199766,1.69995057 95.4248051,1.73596037 C95.4248051,1.73596037 91.3898166,2.49216614 91.0717594,2.54978182 C80.6727366,4.38772194 45.9481251,13.5039625 35.9379994,53.5799876 C32.5709309,67.0663774 37.6887594,88.0471264 41.8032623,104.908354 C43.4195709,112.401273 49.9151651,136.934029 46.4324394,149.546101 C46.4064166,149.635405 46.3847309,149.72615 46.3630451,149.818335 C45.9886051,151.420051 36.7981994,189.188568 3.54387943,200.865825 C0.987856571,201.76463 -0.479543429,204.436557 0.142113714,207.068153 C0.327165143,207.850286 0.656788,208.60217 1.11652514,209.309403 C4.75249657,214.841948 16.3803766,217.31078 36.6695309,216.871461 C37.4878051,217.647832 38.7369023,220.666893 39.497348,222.506274 C40.2447823,224.319727 41.0196851,226.192237 41.9897594,228.138206 C42.9439309,230.053928 44.9187766,232.19435 48.8944909,231.491439 C50.4992337,231.207682 52.3280623,230.506211 54.4460337,229.689509 C57.6208223,228.468056 61.9709766,226.79288 67.6078166,225.796129 C70.737788,225.243019 74.0282337,224.943417 77.3837366,224.904527 C83.9472794,224.835388 90.0380737,227.688804 97.0931594,230.994504 C107.197257,235.731953 118.644422,241.097413 134.097662,238.364989 C134.521257,238.290089 134.946297,238.199344 135.361217,238.094196 C135.865771,238.026497 136.525017,237.935752 137.214622,237.813319 C152.675091,235.079455 161.564788,226.120217 169.409234,218.212466 C174.904394,212.67992 179.637662,207.912223 185.820982,205.730029 C188.982759,204.616606 192.174897,203.771096 195.304868,203.216545 C200.685817,202.265886 205.063439,202.196748 208.994337,202.264446 C211.453497,202.306217 213.410994,202.203949 214.810445,201.956202 L214.953571,201.931715 L215.098142,201.907229 C218.032942,201.388688 219.827074,199.477288 220.150914,196.528805 C220.388011,194.409989 220.477645,192.439532 220.555714,190.440268 C220.633782,188.45973 220.762451,185.213086 221.262668,184.209133 C240.468982,177.663992 250.534045,171.363718 252.034697,164.948212 C252.228422,164.127188 252.277577,163.301844 252.180714,162.496665" id="Fill-19" fill="#000000" mask="url(#mask-3)"></path>
                    </g>
                    <path d="M111.722776,116.276792 C109.197113,115.244031 106.510976,115.769774 104.096633,116.841426 C99.6944331,118.796037 95.7245017,120.920616 90.9738846,122.117581 C84.3250446,123.792757 77.4232046,124.786628 70.5806389,125.208662 C67.3147703,125.410317 67.265616,130.494901 70.5459417,130.293246 C71.5420389,130.231309 72.5453646,130.156409 73.550136,130.075747 C82.3299589,129.381478 91.3685646,127.946847 99.5108274,124.75926 C103.456182,123.21516 113.79593,117.056044 111.745907,126.589998 C110.87125,130.651904 105.432473,133.672405 102.46153,135.832993 C98.8935074,138.425699 95.1982617,140.734647 91.1907417,142.595634 C90.8495531,142.754077 90.5878789,142.955732 90.3854789,143.180433 C88.8168789,144.914665 91.1170103,148.217483 93.7351989,147.001792 C99.0583189,144.53008 103.83785,141.217178 108.458353,137.624841 C111.524713,135.239552 114.849856,133.031431 116.24497,129.269127 C117.952359,124.664194 116.683022,118.306304 111.722776,116.276792" id="Fill-22" fill="#000000"></path>
                    <path d="M188.282889,130.465661 L185.634341,129.898146 C185.988541,130.38932 186.425146,130.97844 186.941266,131.651103 L189.815346,132.267591 L195.346649,133.454474 C194.781375,132.825023 194.250798,132.218618 193.759255,131.641021 L188.282889,130.465661 Z" id="Fill-24" fill="#000000"></path>
                    <path d="M188.282889,130.465661 L185.634341,129.898146 C185.988541,130.38932 186.425146,130.97844 186.941266,131.651103 L189.815346,132.267591 L195.346649,133.454474 C194.781375,132.825023 194.250798,132.218618 193.759255,131.641021 L188.282889,130.465661 Z" id="Fill-26" fill="#000000"></path>
                    <path d="M171.222159,75.3503595 C171.469377,76.9866447 171.657319,78.4227155 171.780205,79.6081581 L173.412417,72.0619447 L174.959331,64.9017563 C174.726571,63.7912142 174.483691,62.6345794 174.229245,61.4404945 L172.730039,68.3759817 L171.222159,75.3503595 Z" id="Fill-28" fill="#000000"></path>
                    <path d="M171.222159,75.3503595 C171.469377,76.9866447 171.657319,78.4227155 171.780205,79.6081581 L173.412417,72.0619447 L174.959331,64.9017563 C174.726571,63.7912142 174.483691,62.6345794 174.229245,61.4404945 L172.730039,68.3759817 L171.222159,75.3503595 Z" id="Fill-30" fill="#000000"></path>
                    <path d="M173.411838,72.0613685 L171.781073,79.6075819 C171.658187,78.4221394 171.468798,76.9860686 171.221581,75.3497833 L162.195987,117.103865 C161.143507,121.970949 164.261913,126.783299 169.145535,127.831904 L186.940833,131.651824 C186.424713,130.97772 185.989553,130.3886 185.635353,129.897426 L188.282455,130.464941 L193.758821,131.6403 C194.250364,132.219338 194.780941,132.825743 195.346215,133.455194 L208.987975,136.382071 C209.629873,136.520348 210.274661,136.588047 210.916558,136.588047 C212.638404,136.588047 214.32989,136.095433 215.811747,135.141893 C217.845867,133.832577 219.246764,131.814588 219.757101,129.456666 L223.317895,112.987225 C223.267295,112.962738 223.210913,112.948334 223.161758,112.922407 C222.755513,112.71355 222.381073,112.461482 222.006633,112.207973 C221.559907,111.906931 221.14065,111.57132 220.743078,111.211222 L216.93073,128.850261 C216.583758,130.456298 215.628141,131.830432 214.243147,132.722035 C212.856707,133.612197 211.204255,133.913239 209.598067,133.566105 L192.272627,129.848453 L186.869993,128.688937 L184.442638,128.167516 L169.755627,125.015938 C166.429038,124.301504 164.305284,121.024612 165.022358,117.71171 L172.506821,83.0904496 L174.16361,75.4261241 L175.687393,68.3754056 L182.82633,35.3544203 C183.173301,33.7498236 184.126027,32.3756897 185.511021,31.4840871 C186.897461,30.5939249 188.552804,30.2943234 190.157547,30.6400174 L230.001433,39.1887436 C231.611958,39.5358781 232.99117,40.4850964 233.886067,41.8664322 C234.780964,43.2463277 235.081673,44.8898149 234.733255,46.4958519 L224.932758,91.830748 C225.448878,91.6636625 225.969335,91.5225041 226.498467,91.430319 C226.998684,91.3424551 227.503238,91.3006837 228.009238,91.2819586 L237.559627,47.1036973 C238.069964,44.7457757 237.627575,42.3302384 236.314867,40.303607 C235.002158,38.2769755 232.976713,36.8812357 230.610078,36.3727774 L190.767638,27.8240512 C188.399558,27.3141524 185.977987,27.7563527 183.942421,29.0642286 C181.909747,30.3721045 180.50885,32.391534 179.999958,34.7480152 L174.228667,61.4399183 C174.483113,62.6354437 174.725993,63.7920784 174.960198,64.9026206 L173.411838,72.0613685 Z" id="Fill-32" fill="#000000"></path>
                    <path d="M208.729482,38.2903711 C209.368487,38.4272084 209.997373,38.0224582 210.134716,37.3872454 C210.272059,36.7505922 209.865813,36.1240217 209.226807,35.9871844 C208.589247,35.8503472 207.960362,36.2536569 207.823019,36.8903102 C207.68423,37.5269634 208.090476,38.1535339 208.729482,38.2903711" id="Fill-34" fill="#000000"></path>
                    <path d="M210.661968,119.315443 L188.636511,114.589517 L185.503648,113.916854 L180.011379,112.738613 L174.673802,111.593502 L179.769945,88.020047 L180.914951,82.7237259 L181.530825,79.8789518 L190.371368,38.9847841 L226.356642,46.7067253 L210.661968,119.315443 Z M229.289997,44.8212523 C229.081814,44.5000449 228.755082,44.2739033 228.380642,44.1946818 L189.567551,35.8648952 C188.778191,35.6949289 188.016299,36.1933045 187.850042,36.9696758 L178.885168,78.435679 L178.074122,82.1835789 L176.898757,87.6210585 L171.542385,112.392919 C171.374682,113.170731 171.872008,113.93846 172.651248,114.105545 L179.540077,115.583387 L183.927819,116.525404 L187.393197,117.268646 L211.465785,122.435332 C211.566985,122.456938 211.668185,122.46702 211.770831,122.46702 C212.045517,122.46702 212.318757,122.389239 212.554408,122.236558 C212.876802,122.030582 213.102334,121.703613 213.183294,121.330551 L216.992751,103.707356 C216.862637,102.177659 217.040459,100.623477 217.540677,99.1240285 C217.770545,98.4340808 218.064025,97.7772621 218.409551,97.1535723 L229.488059,45.9058674 C229.569019,45.5313655 229.498179,45.1424597 229.289997,44.8212523 L229.289997,44.8212523 Z" id="Fill-36" fill="#000000"></path>
                    <path d="M230.60791,96.3074861 C230.912955,96.4083136 231.17463,96.5149026 231.394378,96.6286935 C232.403487,97.1472346 232.618898,97.7997322 232.70275,98.4277431 C232.906595,99.9257507 232.27771,102.089219 231.702315,103.807607 C231.087887,105.641226 230.323104,107.654894 229.276407,108.715022 C228.768961,109.236444 228.076464,109.746343 226.322813,109.167305 C225.981624,109.052074 225.64911,108.913796 225.329607,108.749592 C224.988418,108.573864 224.668915,108.366447 224.365315,108.140306 C223.905578,107.794612 223.50367,107.385541 223.146578,106.936138 C222.860327,106.57604 222.597207,106.195777 222.386133,105.776623 C222.260355,105.524554 222.179395,105.259522 222.08687,104.998811 C221.577978,103.578585 221.525933,102.048888 222.010247,100.599854 C222.336978,99.621828 222.890687,98.7662352 223.590413,98.0460392 C224.10075,97.5188557 224.684818,97.0608111 225.35563,96.7165574 C225.37587,96.7064747 225.391773,96.6920708 225.412013,96.681988 C225.909338,96.4328002 226.429795,96.2700359 226.957481,96.1504834 C228.157424,95.8753685 229.409413,95.9099379 230.60791,96.3074861 M224.933481,91.830748 C224.379773,92.010797 223.833293,92.2182134 223.302715,92.4846859 C221.203538,93.5332912 219.520727,95.1551726 218.410418,97.1544366 C218.064893,97.7766859 217.769967,98.4335046 217.541544,99.1248928 C217.039881,100.624341 216.863504,102.178524 216.993618,103.70822 C217.115058,105.14141 217.505401,106.552994 218.173321,107.878155 C218.822447,109.162984 219.705778,110.272086 220.743801,111.211222 C221.141373,111.57132 221.559184,111.906931 222.007355,112.207973 C222.381795,112.461482 222.756235,112.71355 223.162481,112.922407 C223.211635,112.948334 223.268018,112.962738 223.317173,112.987225 C223.805824,113.229211 224.310378,113.44815 224.83951,113.623878 C228.712578,114.902946 231.223784,113.449591 232.647813,112.000556 C234.37255,110.243278 235.399007,107.617444 236.172464,105.284009 C236.954595,102.949133 237.704921,100.236875 237.375298,97.7982918 C237.152658,96.1461622 236.309807,93.8789853 233.551384,92.4587588 C233.114778,92.2340577 232.627573,92.0252009 232.086875,91.8494731 C230.751035,91.4087131 229.374715,91.2286641 228.009961,91.2805182 C227.503961,91.3006837 226.999407,91.3424551 226.49919,91.430319 C225.970058,91.5225041 225.448155,91.6636625 224.933481,91.830748" id="Fill-38" fill="#000000"></path>
                    <path d="M188.375704,80.5241033 L187.379607,85.1823309 L186.223035,90.5953238 C186.011961,91.5863134 186.652413,92.5715415 187.64851,92.7818388 C188.643161,92.9935764 189.63203,92.3540424 189.843104,91.3630527 L191.796264,82.2252062 L192.449727,79.1686945 L193.080058,76.2144506 L194.427464,69.9112955 C194.639984,68.9203058 193.998087,67.9350777 193.003435,67.7247805 C192.007338,67.5130429 191.019915,68.1525769 190.807395,69.1435666 L188.845561,78.3246248 L188.375704,80.5241033 Z" id="Fill-40" fill="#000000"></path>
                    <path d="M193.734822,94.0732942 C194.730919,94.2850318 195.718342,93.6454978 195.929417,92.6545081 L198.405925,81.0665549 L199.030474,78.1483208 L199.770679,74.6812974 L201.540234,66.4019246 C201.752754,65.4109349 201.110857,64.4257068 200.116205,64.2154096 L200.116205,64.2154096 C199.120108,64.003672 198.132685,64.643206 197.920165,65.6341956 L195.877371,75.1983981 L195.171862,78.4940149 L194.603697,81.1558592 L192.310794,91.8867792 C192.098274,92.8777689 192.738725,93.8615566 193.734822,94.0732942" id="Fill-42" fill="#000000"></path>
                    <path d="M200.770102,82.0731008 L198.386119,93.227496 C198.212633,94.0398771 198.646347,94.8191291 199.36053,95.1763463 C199.493536,95.2426044 199.619313,95.3218259 199.771113,95.3535145 L199.872313,95.3751204 C200.839496,95.5810965 201.800896,94.9602875 202.006187,93.9952249 L202.66977,90.8911803 L203.704902,86.0457018 L204.849907,80.6888842 L205.682639,76.792624 L206.135147,74.6781286 C206.340439,73.7145064 205.717336,72.7580861 204.750153,72.5521101 L204.648953,72.5305042 C203.680325,72.3259685 202.72037,72.9467775 202.515079,73.9103997 L202.273645,75.0367862 L201.521873,78.5527829 L200.770102,82.0731008 Z" id="Fill-44" fill="#000000"></path>
                    <path d="M204.483708,94.4683937 C204.271188,95.4608237 204.913085,96.4446114 205.907737,96.6549087 C206.149171,96.7067628 206.387714,96.703882 206.617582,96.6621106 C207.334657,96.5324753 207.943302,95.9880072 208.103777,95.2361226 L208.447857,93.6228836 L210.155245,85.6344699 L215.345359,61.3480213 C215.557879,60.3570317 214.915982,59.373244 213.921331,59.1615064 C212.925234,58.9497688 211.937811,59.5893028 211.725291,60.5802924 L207.768371,79.100852 L206.734685,83.933367 L204.655748,93.6603338 L204.483708,94.4683937 Z" id="Fill-46" fill="#000000"></path>
                </g>
            </g>
        </g>
    </g>
</svg>