<?xml version="1.0" encoding="UTF-8"?>
<svg width="27px" height="16px" viewBox="0 0 27 16" version="1.1" xmlns="http://www.w3.org/2000/svg" xmlns:xlink="http://www.w3.org/1999/xlink">
    <!-- Generator: Sketch 47.1 (45422) - http://www.bohemiancoding.com/sketch -->
    <title>ic_confetti_eye-purple</title>
    <desc>Created with Sketch.</desc>
    <defs>
        <path d="M1.31,5.84855388 C3.951,2.30041311 8.18,0.000301456311 12.94,0.000301456311 C17.59,0.000301456311 21.74,2.20093252 24.4,5.61743738 C24.58,5.83750049 24.75,6.06962184 24.91,6.31078689 C25.03,6.47156359 25.14,6.64238883 25.24,6.81220922 C25.42,7.0835199 25.59,7.37593252 25.75,7.66734029 C25.29,8.57170922 24.73,9.41578689 24.1,10.1895248 C22.15,12.6102189 19.439,14.3797675 16.34,15.1525005 C16.22,15.183651 15.9,15.0831655 15.75,14.9022917 C15.51,14.6209325 15.54,14.3797675 15.54,14.3797675 C15.54,14.038117 15.77,13.7467092 16.1,13.6562723 C19.089,12.8322917 21.59,10.9130199 23.15,8.39083544 C21.411,5.67772864 18.59,3.70821408 15.27,3.07515583 C17.07,4.06996165 18.28,5.99827718 18.28,8.22001019 C18.28,11.4757383 15.65,14.1185053 12.411,14.1185053 C9.17,14.1185053 6.54,11.4757383 6.54,8.22001019 C6.54,6.32083544 7.43,4.6326801 8.82,3.55648107 C6.201,4.49200049 4.01,6.28064126 2.6,8.58175777 C4.16,11.0135053 6.62,12.8523888 9.531,13.6562723 C9.86,13.7467092 10.089,14.038117 10.089,14.3797675 C10.089,14.3797675 10.11,14.6902675 9.93,14.8922432 C9.74,15.0932141 9.35,15.1736024 9.2,15.1324034 C5.22,14.1084568 1.91,11.4556413 0,7.91855388 C0.02,7.87835971 0.04,7.84821408 0.06,7.8080199 C0.33,7.29554417 0.63,6.81220922 0.95,6.34093252 C1.07,6.17915097 1.19,6.00933058 1.31,5.84855388 Z M8.8,6.29068981 C8.8,7.35483058 9.66,8.22001019 10.72,8.22001019 C11.781,8.22001019 12.64,7.35483058 12.64,6.29068981 C12.64,5.22554417 11.781,4.36136942 10.72,4.36136942 C9.66,4.36136942 8.8,5.22554417 8.8,6.29068981 Z" id="path-1"></path>
    </defs>
    <g id="Home-Page" stroke="none" stroke-width="1" fill="none" fill-rule="evenodd">
        <g id="ic_confetti_eye-purple" transform="translate(13.526384, 8.384715) rotate(4.000000) translate(-13.526384, -8.384715) translate(0.526384, 0.384715)">
            <path d="M10.7202,8.21960825 C9.6602,8.21960825 8.8002,7.3554335 8.8002,6.29028786 C8.8002,5.22514223 9.6602,4.36096748 10.7202,4.36096748 C11.7802,4.36096748 12.6402,5.22514223 12.6402,6.29028786 C12.6402,7.3554335 11.7802,8.21960825 10.7202,8.21960825 M25.2402,6.81281214 C25.1402,6.64198689 25.0302,6.47116165 24.9102,6.31038495 C24.7502,6.0692199 24.5802,5.8381034 24.4002,5.61703544 C21.7402,2.20053058 17.5902,-0.000100485437 12.9402,-0.000100485437 C8.1802,-0.000100485437 3.9502,2.30101602 1.3102,5.84815194 C1.1902,6.00892864 1.0702,6.17975388 0.9502,6.34053058 C0.6302,6.81281214 0.3302,7.29514223 0.0602,7.80761796 C0.0402,7.84781214 0.0202,7.87795777 0.0002,7.91815194 C1.9102,11.4552393 5.2202,14.1080549 9.2002,15.1330063 C9.3502,15.1732005 9.7402,15.0928121 9.9302,14.8918413 C10.1102,14.6908704 10.0902,14.3793655 10.0902,14.3793655 C10.0902,14.037715 9.8602,13.7463073 9.5302,13.6558704 C6.6202,12.8519869 4.1602,11.0131034 2.6002,8.58135583 C4.0102,6.28023932 6.2002,4.49159854 8.8202,3.55708398 C7.4302,4.63227816 6.5402,6.3204335 6.5402,8.21960825 C6.5402,11.4753364 9.1702,14.1181034 12.4102,14.1181034 C15.6502,14.1181034 18.2802,11.4753364 18.2802,8.21960825 C18.2802,5.9988801 17.0702,4.06955971 15.2702,3.07475388 C18.5902,3.70781214 21.4102,5.6773267 23.1502,8.3904335 C21.5902,10.912618 19.0902,12.8318898 16.1002,13.6558704 C15.7702,13.7463073 15.5402,14.037715 15.5402,14.3793655 C15.5402,14.3793655 15.5102,14.6205306 15.7502,14.9018898 C15.9002,15.0827636 16.2202,15.183249 16.3402,15.1531034 C19.4402,14.3793655 22.1502,12.6108218 24.1002,10.1891228 C24.7302,9.41538495 25.2902,8.57130728 25.7502,7.66693835 C25.5902,7.37553058 25.4202,7.08412282 25.2402,6.81281214" id="Fill-1" fill="#C293E0"></path>
            <mask id="mask-2" fill="white">
                <use xlink:href="#path-1"></use>
            </mask>
            <g id="Clip-4"></g>
        </g>
    </g>
</svg>