<?xml version="1.0" encoding="UTF-8"?>
<svg width="20px" height="20px" viewBox="0 0 20 20" version="1.1" xmlns="http://www.w3.org/2000/svg" xmlns:xlink="http://www.w3.org/1999/xlink">
    <!-- Generator: Sketch 47.1 (45422) - http://www.bohemiancoding.com/sketch -->
    <title>ic_confetti_replay</title>
    <desc>Created with Sketch.</desc>
    <defs></defs>
    <g id="Home-Page" stroke="none" stroke-width="1" fill="none" fill-rule="evenodd">
        <path d="M9.60069172,19.8930943 C8.52569172,19.9212302 7.48169172,19.7805506 6.48669172,19.4760797 C4.91769172,18.9967642 3.48369172,18.1064632 2.32469172,16.8594389 C0.579691717,14.9924195 -0.335308283,12.5596671 -0.250308283,10.0013079 C-0.192308283,8.22271562 0.366691717,6.48230785 1.34669172,5.00617679 C1.67769172,4.49872533 2.37469172,4.40728358 2.83069172,4.79917679 C3.14169172,5.05039038 3.25569172,5.46439038 3.14569172,5.82915251 C3.11969172,5.91657484 3.08069172,6.0100263 3.02569172,6.08740009 C2.24069172,7.26508941 1.79869172,8.62164281 1.74769172,10.0656185 C1.68969172,12.0853758 2.41169172,14.0187156 3.78469172,15.4888176 C5.39269172,17.2201816 7.67069172,18.0843564 10.0756917,17.8431913 C13.4606917,17.5025457 16.2676917,14.7894389 16.7426917,11.3950409 C17.3716917,6.90233698 14.0186917,2.95727873 9.63869172,2.75228844 L9.57869172,5.05541465 C9.56669172,5.57693407 8.97669172,5.86934669 8.55769172,5.56286611 L4.43469172,2.5372496 C4.08369172,2.28302145 4.08269172,1.76753116 4.42369172,1.50425931 L8.69669172,-1.79970185 C9.13069172,-2.12929409 9.74669172,-1.81477467 9.72869172,-1.27416302 L9.68369172,0.738560281 C12.1916917,0.84406999 14.5196917,1.92428844 16.2416917,3.76317193 C18.2466917,5.90954086 19.1446917,8.81055543 18.7066917,11.7748758 C18.0406917,16.2876768 14.1266917,19.7544244 9.60069172,19.8930943" id="ic_confetti_replay" fill="#FFE774" transform="translate(9.279839, 8.981185) rotate(-39.000000) translate(-9.279839, -8.981185) "></path>
    </g>
</svg>