<?xml version="1.0" encoding="UTF-8"?>
<svg width="12px" height="12px" viewBox="0 0 12 12" version="1.1" xmlns="http://www.w3.org/2000/svg" xmlns:xlink="http://www.w3.org/1999/xlink">
    <!-- Generator: Sketch 46.2 (44496) - http://www.bohemiancoding.com/sketch -->
    <title>arrow-white</title>
    <desc>Created with Sketch.</desc>
    <defs>
        <rect id="path-1" x="0" y="0" width="12" height="12"></rect>
    </defs>
    <g id="Symbols" stroke="none" stroke-width="1" fill="none" fill-rule="evenodd">
        <g id="arrow-white">
            <g id="arrow">
                <mask id="mask-2" fill="white">
                    <use xlink:href="#path-1"></use>
                </mask>
                <g id="Mask"></g>
                <path d="M9.80751953,3.2482046 C9.85163974,3.29208206 9.87854821,3.35268628 9.87879063,3.41983576 C9.87854821,3.35268628 9.85163974,3.29208206 9.80751953,3.2482046 M3.41905866,9.87879155 C3.38584729,9.87879155 3.35384802,9.87176146 3.32475777,9.85964062 C3.35384802,9.87176146 3.38584729,9.87879155 3.41905866,9.87879155 M3.17663992,9.63637466 C3.17663992,9.56922517 3.20403324,9.50862095 3.24766861,9.46498591 C3.20403324,9.50862095 3.17663992,9.56922517 3.17663992,9.63637466 C3.17663992,9.70328172 3.20403324,9.76388594 3.24766861,9.8077634 C3.20403324,9.76388594 3.17663992,9.70328172 3.17663992,9.63637466 M3.41905866,9.39395776 L3.41905866,9.39395776 C3.38584729,9.39395776 3.35384802,9.40074543 3.32475777,9.41286628 C3.35384802,9.40074543 3.38584729,9.39395776 3.41905866,9.39395776 M8.97796262,9.32099027 C8.8831769,9.36632223 8.778452,9.39395776 8.66645455,9.39395776 C8.778452,9.39395776 8.8831769,9.36632223 8.97796262,9.32099027 M2.36356749,2.12120845 L2.36356749,2.12120845 C2.3015083,2.12120845 2.2394491,2.1449653 2.19217745,2.19247902 C2.2394491,2.1449653 2.3015083,2.12120845 2.36356749,2.12120845 M2.53495754,2.19247902 C2.49132217,2.14884397 2.43532344,2.1277537 2.37835504,2.12411745 C2.43532344,2.1277537 2.49132217,2.14884397 2.53495754,2.19247902 M9.46449702,3.2482046 C9.42061923,3.29208206 9.39371075,3.35268628 9.39371075,3.41983576 C9.39371075,3.35268628 9.42061923,3.29208206 9.46449702,3.2482046 M9.63612948,3.05621042 C9.43564919,3.05621042 9.27250138,3.21911457 9.27250138,3.41983576 L9.27250138,8.66694949 C9.27250138,8.69555468 9.27031961,8.72391746 9.26595608,8.75228023 L2.62077377,2.10666343 C2.55168443,2.03781704 2.46053499,2 2.36356749,2 C2.2666,2 2.17520814,2.03781704 2.10636122,2.10666343 C1.96454626,2.24847732 1.96454626,2.47901579 2.10636122,2.62082967 L8.75178594,9.26596164 C8.72342295,9.27056756 8.69481754,9.27274931 8.66645455,9.27274931 L3.41905866,9.27274931 C3.21857837,9.27274931 3.05543056,9.43565347 3.05543056,9.63637466 C3.05543056,9.83685343 3.21857837,10 3.41905866,10 L8.66669697,10 C9.40171057,10 10,9.4017151 10,8.66670707 L10,3.41983576 C9.99951516,3.21911457 9.83636736,3.05621042 9.63612948,3.05621042" id="Fill-3" stroke="#FFFFFF" fill="#FFFFFF" mask="url(#mask-2)" transform="translate(6.000000, 6.000000) rotate(-45.000000) translate(-6.000000, -6.000000) "></path>
            </g>
        </g>
    </g>
</svg>