<svg width="47" height="45" viewBox="0 0 47 45" xmlns="http://www.w3.org/2000/svg"><title>ghost</title><desc>Created with Sketch.</desc><g fill="none"><path d="M23.817 43.81c-.133 0-.255 0-.347-.02l-.235.02c-2.728 0-4.547-1.278-6.171-2.404-1.155-.811-2.238-1.582-3.515-1.795-.623-.112-1.257-.152-1.839-.152-1.083 0-1.941.162-2.554.284-.388.071-.715.132-.971.132-.266 0-.603-.071-.736-.517-.112-.365-.184-.71-.255-1.045-.184-.842-.337-1.359-.654-1.41-3.413-.517-5.456-1.298-5.855-2.221l-.072-.284c-.02-.284.184-.517.47-.568 2.708-.446 5.139-1.876 7.193-4.23 1.594-1.826 2.37-3.591 2.442-3.783l.02-.02c.388-.801.47-1.481.235-2.039-.439-1.045-1.89-1.491-2.881-1.795-.255-.071-.47-.152-.654-.213-.848-.335-2.258-1.045-2.074-2.029.133-.71 1.083-1.217 1.86-1.217.215 0 .398.03.552.112.868.396 1.655.598 2.33.598.838 0 1.236-.314 1.338-.416-.02-.446-.051-.913-.082-1.349-.204-3.104-.439-6.958.552-9.169 2.973-6.613 9.288-7.14 11.157-7.14l.817-.02h.112c1.87 0 8.184.517 11.157 7.14 1.001 2.211.756 6.075.552 9.169l-.02.152-.072 1.217c.102.081.47.385 1.226.396.654-.02 1.369-.233 2.187-.598.255-.112.521-.152.715-.152.286 0 .572.071.817.152h.02c.685.254 1.134.73 1.134 1.227.02.467-.347 1.177-2.095 1.876-.184.071-.398.152-.654.213-.971.294-2.422.761-2.881 1.795-.255.548-.153 1.248.235 2.039l.02.02c.112.284 3.065 6.938 9.635 8.023.286.051.47.284.47.568 0 .101-.02.203-.072.294-.398.933-2.422 1.694-5.855 2.221-.317.051-.47.568-.654 1.41-.072.345-.153.68-.255 1.045-.102.335-.317.517-.685.517h-.051c-.235 0-.552-.03-.971-.112-.736-.152-1.543-.264-2.554-.264-.603 0-1.226.051-1.839.152-1.267.203-2.36.984-3.515 1.795-1.645 1.116-3.474 2.394-6.182 2.394" fill="#fff"/><path d="M23.97 1.657c1.757 0 7.816.467 10.677 6.826.94 2.089.685 5.883.521 8.915-.02.477-.072.943-.082 1.4l-.02.203.133.152c.051.071.531.568 1.625.598h.04c.715-.02 1.543-.254 2.411-.649.133-.071.296-.081.48-.081.204 0 .419.03.603.112l.02.02c.47.152.787.467.787.73 0 .152-.112.71-1.757 1.349-.153.071-.368.132-.603.203-1.052.335-2.657.842-3.208 2.089-.296.71-.215 1.562.255 2.495.204.446 3.229 7.222 10.033 8.337l-.02.112c-.112.264-.848 1.217-5.415 1.907-.715.112-.889.913-1.083 1.826-.072.335-.153.659-.255 1.014-.031.112-.031.112-.153.112h-.051c-.204 0-.521-.03-.868-.112-.654-.112-1.543-.284-2.677-.284-.633 0-1.287.071-1.941.162-1.41.233-2.544 1.035-3.75 1.876-1.625 1.095-3.3 2.272-5.855 2.272l-.337-.02h-.04l-.204.02c-2.554 0-4.23-1.177-5.855-2.313-1.206-.842-2.34-1.643-3.75-1.876-.654-.112-1.318-.162-1.941-.162-1.134 0-2.023.162-2.677.294-.347.071-.664.132-.868.132-.163 0-.163-.02-.204-.132-.102-.345-.184-.68-.255-1.014-.204-.933-.388-1.724-1.083-1.826-4.567-.7-5.323-1.643-5.415-1.907l-.02-.112c6.825-1.116 9.85-7.891 10.033-8.337.47-.943.552-1.795.255-2.495-.531-1.258-2.146-1.775-3.208-2.089-.255-.071-.45-.152-.603-.203-1.369-.548-1.808-1.075-1.737-1.41.072-.385.736-.781 1.318-.781.133 0 .255.02.337.071.94.436 1.808.659 2.554.659 1.185 0 1.706-.548 1.778-.619l.133-.152-.02-.203c-.02-.446-.051-.913-.082-1.4-.204-3.043-.439-6.826.521-8.915 2.84-6.329 8.869-6.806 10.636-6.806l.817-.02.072.03m0-1.085h-.112l-.807.02c-1.052 0-3.127.152-5.374 1.126-1.267.548-2.422 1.308-3.413 2.262-1.185 1.116-2.146 2.495-2.861 4.088-1.052 2.323-.807 6.258-.603 9.433l.072 1.045c-.153.071-.398.152-.766.152-.603 0-1.287-.203-2.095-.548-.235-.112-.501-.152-.787-.152-.47 0-.971.132-1.41.385-.552.314-.899.761-1.001 1.258-.072.335-.072.984.664 1.643.398.365.991.7 1.757.994l.685.233c.868.284 2.187.68 2.524 1.481.163.416.102.943-.215 1.582l-.02.051c-.082.183-.817 1.876-2.36 3.651-.868.994-1.839 1.846-2.84 2.505-1.236.801-2.595 1.308-3.995 1.562-.552.081-.95.578-.92 1.126.02.152.051.335.112.467.215.517.736.964 1.594 1.349 1.042.467 2.575.882 4.588 1.197.102.203.204.68.286.994.072.345.153.71.266 1.095.112.416.439.913 1.257.913.296 0 .664-.071 1.083-.152.603-.112 1.441-.284 2.462-.284.572 0 1.175.051 1.757.152 1.155.203 2.146.882 3.28 1.694 1.676 1.177 3.576 2.505 6.478 2.505l.235-.02.337.02c2.912 0 4.802-1.329 6.478-2.505 1.134-.811 2.146-1.491 3.28-1.694.603-.101 1.185-.152 1.757-.152.991 0 1.757.112 2.462.264.45.081.807.132 1.083.132h.04c.603 0 1.042-.335 1.206-.893.112-.385.204-.73.266-1.075.072-.314.184-.811.286-.994 2.023-.314 3.545-.71 4.588-1.177.838-.385 1.359-.832 1.594-1.349.072-.152.112-.314.112-.477.031-.548-.368-1.045-.92-1.126-6.273-1.035-9.104-7.424-9.216-7.708l-.02-.051c-.317-.649-.388-1.177-.215-1.582.337-.801 1.655-1.217 2.524-1.481.255-.081.48-.152.685-.233.848-.335 1.471-.7 1.87-1.116.48-.497.572-.964.572-1.278-.02-.751-.603-1.41-1.502-1.745-.296-.132-.654-.203-1.022-.203-.255 0-.603.03-.95.203-.736.335-1.39.527-1.962.548-.296-.02-.521-.081-.654-.152.02-.284.031-.598.072-.913l.02-.132c.204-3.154.45-7.09-.603-9.433-.715-1.613-1.686-2.992-2.881-4.088-1.001-.933-2.156-1.694-3.433-2.262-2.238-1.024-4.322-1.156-5.374-1.156" fill="#020202"/></g></svg>