<svg width="73" height="70" viewBox="0 0 73 70" xmlns="http://www.w3.org/2000/svg"><title>Group Copy</title><desc>Created with Sketch.</desc><path d="M36.944 69c-.206 0-.396 0-.538-.032-.111.032-.237.032-.364.032-4.226 0-7.043-2.036-9.559-3.829-1.788-1.292-3.466-2.52-5.444-2.86-.965-.178-1.947-.242-2.849-.242-1.678 0-3.007.258-3.957.452-.601.113-1.108.21-1.504.21-.411 0-.934-.113-1.14-.824-.174-.582-.285-1.131-.396-1.664-.285-1.341-.522-2.165-1.013-2.246-5.286-.824-8.451-2.068-9.069-3.538-.047-.162-.111-.323-.111-.452-.032-.452.285-.824.728-.905 4.194-.711 7.961-2.989 11.142-6.737 2.469-2.908 3.672-5.719 3.783-6.026l.032-.032c.601-1.276.728-2.359.364-3.247-.681-1.664-2.928-2.375-4.463-2.86-.396-.113-.728-.242-1.013-.339-1.314-.533-3.498-1.664-3.213-3.231.206-1.131 1.678-1.939 2.88-1.939.332 0 .617.048.855.178 1.345.63 2.564.953 3.608.953 1.298 0 1.915-.501 2.073-.662-.032-.711-.079-1.454-.127-2.149-.317-4.944-.681-11.083.855-14.605 4.606-10.534 14.386-11.374 17.283-11.374l1.266-.032h.174c2.896 0 12.677.824 17.283 11.374 1.551 3.522 1.171 9.677.855 14.605l-.032.242-.111 1.939c.158.129.728.614 1.899.63 1.013-.032 2.121-.372 3.387-.953.396-.178.807-.242 1.108-.242.443 0 .886.113 1.266.242h.032c1.06.404 1.757 1.163 1.757 1.955.032.743-.538 1.874-3.244 2.989-.285.113-.617.242-1.013.339-1.504.469-3.751 1.212-4.463 2.86-.396.872-.237 1.987.364 3.247l.032.032c.174.452 4.748 11.051 14.924 12.779.443.081.728.452.728.905 0 .162-.032.323-.111.469-.617 1.486-3.751 2.698-9.069 3.538-.491.081-.728.905-1.013 2.246-.111.549-.237 1.082-.396 1.664-.158.533-.491.824-1.06.824h-.079c-.364 0-.855-.048-1.504-.178-1.14-.242-2.39-.42-3.957-.42-.934 0-1.899.081-2.849.242-1.962.323-3.656 1.567-5.444 2.86-2.548 1.777-5.381 3.813-9.575 3.813" stroke-width="1.5" stroke="#000" fill="#fff"/></svg>