<?xml version="1.0" encoding="UTF-8"?>
<svg width="19px" height="18px" viewBox="0 0 19 18" version="1.1" xmlns="http://www.w3.org/2000/svg" xmlns:xlink="http://www.w3.org/1999/xlink">
    <!-- Generator: Sketch 47.1 (45422) - http://www.bohemiancoding.com/sketch -->
    <title>ic_confetti_shared-message</title>
    <desc>Created with Sketch.</desc>
    <defs></defs>
    <g id="Home-Page" stroke="none" stroke-width="1" fill="none" fill-rule="evenodd">
        <g id="ic_confetti_shared-message" transform="translate(0.000000, 0.497368)" fill="#00B88F">
            <path d="M2.1294,15.8202262 L2.1294,15.8202262 C2.1294,15.5268087 2.2334,15.2474592 2.4304,15.0304107 C3.2304,14.1561874 5.0604,11.7947796 5.0044,8.34611942 C4.9504,5.06225534 3.2194,2.83348835 2.4324,1.97534272 C2.2334,1.75929903 2.1294,1.47894466 2.1294,1.18452233 C2.1294,0.305274757 3.0504,-0.266487379 3.8334,0.12641068 L18.2294,7.36035728 C19.1664,7.83062913 19.1664,9.17512427 18.2294,9.64539612 L3.8334,16.8783379 C3.0504,17.2722408 2.1294,16.6994738 2.1294,15.8202262" id="Fill-1"></path>
            <path d="M14.8184,4.52345243 C15.3804,3.31260291 16.0754,2.43837961 16.5004,1.97514175 C16.6984,1.75909806 16.8024,1.47874369 16.8024,1.18432136 C16.8024,0.305073786 15.8824,-0.26668835 15.0994,0.126209709 L10.5834,2.39517087 L14.8184,4.52345243 Z" id="Fill-4"></path>
            <path d="M3.9995,8.36229757 C3.9865,7.44988981 3.8205,6.63796748 3.5855,5.91145777 L0.7035,7.35945291 C-0.2345,7.83072961 -0.2345,9.17522476 0.7035,9.6454966 L3.5795,11.0904772 C3.8405,10.2906131 4.0195,9.38322961 3.9995,8.36229757" id="Fill-6"></path>
            <path d="M14.8208,12.4817985 L10.5848,14.6100801 L15.0988,16.8780364 C15.8818,17.2719393 16.8028,16.7001772 16.8028,15.8199248 C16.8028,15.5265073 16.6988,15.2471578 16.5018,15.0311141 C16.0828,14.5729005 15.3858,13.6976723 14.8208,12.4817985" id="Fill-8"></path>
        </g>
    </g>
</svg>