<?xml version="1.0" encoding="UTF-8"?>
<svg width="26px" height="17px" viewBox="0 0 26 17" version="1.1" xmlns="http://www.w3.org/2000/svg" xmlns:xlink="http://www.w3.org/1999/xlink">
    <!-- Generator: Sketch 47.1 (45422) - http://www.bohemiancoding.com/sketch -->
    <title>ic_confetti_eye-orange</title>
    <desc>Created with Sketch.</desc>
    <defs></defs>
    <g id="Home-Page" stroke="none" stroke-width="1" fill="none" fill-rule="evenodd">
        <g id="ic_confetti_eye-orange" transform="translate(13.271277, 8.946188) rotate(2.000000) translate(-13.271277, -8.946188) translate(0.271277, 0.946188)" fill="#FF8A00">
            <path d="M10.7202,8.21960825 C9.6602,8.21960825 8.8002,7.3554335 8.8002,6.29028786 C8.8002,5.22514223 9.6602,4.36096748 10.7202,4.36096748 C11.7802,4.36096748 12.6402,5.22514223 12.6402,6.29028786 C12.6402,7.3554335 11.7802,8.21960825 10.7202,8.21960825 M25.2402,6.81281214 C25.1402,6.64198689 25.0302,6.47116165 24.9102,6.31038495 C24.7502,6.0692199 24.5802,5.8381034 24.4002,5.61703544 C21.7402,2.20053058 17.5902,-0.000100485437 12.9402,-0.000100485437 C8.1802,-0.000100485437 3.9502,2.30101602 1.3102,5.84815194 C1.1902,6.00892864 1.0702,6.17975388 0.9502,6.34053058 C0.6302,6.81281214 0.3302,7.29514223 0.0602,7.80761796 C0.0402,7.84781214 0.0202,7.87795777 0.0002,7.91815194 C1.9102,11.4552393 5.2202,14.1080549 9.2002,15.1330063 C9.3502,15.1732005 9.7402,15.0928121 9.9302,14.8918413 C10.1102,14.6908704 10.0902,14.3793655 10.0902,14.3793655 C10.0902,14.037715 9.8602,13.7463073 9.5302,13.6558704 C6.6202,12.8519869 4.1602,11.0131034 2.6002,8.58135583 C4.0102,6.28023932 6.2002,4.49159854 8.8202,3.55708398 C7.4302,4.63227816 6.5402,6.3204335 6.5402,8.21960825 C6.5402,11.4753364 9.1702,14.1181034 12.4102,14.1181034 C15.6502,14.1181034 18.2802,11.4753364 18.2802,8.21960825 C18.2802,5.9988801 17.0702,4.06955971 15.2702,3.07475388 C18.5902,3.70781214 21.4102,5.6773267 23.1502,8.3904335 C21.5902,10.912618 19.0902,12.8318898 16.1002,13.6558704 C15.7702,13.7463073 15.5402,14.037715 15.5402,14.3793655 C15.5402,14.3793655 15.5102,14.6205306 15.7502,14.9018898 C15.9002,15.0827636 16.2202,15.183249 16.3402,15.1531034 C19.4402,14.3793655 22.1502,12.6108218 24.1002,10.1891228 C24.7302,9.41538495 25.2902,8.57130728 25.7502,7.66693835 C25.5902,7.37553058 25.4202,7.08412282 25.2402,6.81281214" id="Fill-1"></path>
        </g>
    </g>
</svg>