<?xml version="1.0" encoding="UTF-8"?>
<svg width="48px" height="48px" viewBox="0 0 48 48" version="1.1" xmlns="http://www.w3.org/2000/svg" xmlns:xlink="http://www.w3.org/1999/xlink">
    <!-- Generator: Sketch 44.1 (41455) - http://www.bohemiancoding.com/sketch -->
    <title>Group 18</title>
    <desc>Created with Sketch.</desc>
    <defs></defs>
    <g id="Page-1" stroke="none" stroke-width="1" fill="none" fill-rule="evenodd">
        <g id="BLOG-DETAIL-Copy" transform="translate(-1252.000000, -1320.000000)">
            <g id="Group-12" transform="translate(116.000000, 785.000000)">
                <g id="Group-18" transform="translate(1136.000000, 535.000000)">
                    <rect id="Rectangle-4-Copy-2" stroke="#FFA600" stroke-width="2" x="1" y="1" width="46" height="46" rx="23"></rect>
                    <path d="M32.6042083,24.5888598 C31.9375417,24.5888598 31.395875,25.1484315 31.395875,25.837135 L31.395875,29.3882626 L16.4167083,29.3882626 L16.4167083,25.837135 C16.4167083,25.1484315 15.8750417,24.5888598 15.208375,24.5888598 C14.5417083,24.5888598 14.0000417,25.1484315 14.0000417,25.837135 L14.0000417,30.6150158 C14.0000417,31.3037193 14.5417083,31.8632909 15.208375,31.8632909 L32.6042083,31.8632909 C33.270875,31.8632909 33.8125417,31.3037193 33.8125417,30.6150158 L33.8125417,25.837135 C33.8125417,25.1484315 33.270875,24.5888598 32.6042083,24.5888598" id="Fill-1" fill="#FFA20A"></path>
                    <path d="M23.0833333,27.0208012 C23.3125,27.257543 23.625,27.3866749 23.9375,27.3866749 C24.25,27.3866749 24.5625,27.257543 24.7916667,27.0208012 L28.375,23.3190197 C28.8541667,22.824014 28.8541667,22.0492225 28.375,21.5542169 C27.8958333,21.0592112 27.1458333,21.0592112 26.6666667,21.5542169 L25.1458333,23.1253218 L25.1458333,15.2482752 C25.1458333,14.5595716 24.6041667,14 23.9375,14 C23.2708333,14 22.7291667,14.5595716 22.7291667,15.2482752 L22.7291667,23.1683658 L21.1666667,21.5542169 C20.6875,21.0592112 19.9375,21.0592112 19.4583333,21.5542169 C18.9791667,22.0492225 18.9791667,22.824014 19.4583333,23.3190197 L23.0833333,27.0208012 Z" id="Fill-4" fill="#FFA20A"></path>
                </g>
            </g>
        </g>
    </g>
</svg>