<?xml version="1.0" encoding="UTF-8"?>
<svg width="18px" height="18px" viewBox="0 0 18 18" version="1.1" xmlns="http://www.w3.org/2000/svg" xmlns:xlink="http://www.w3.org/1999/xlink">
    <title>link</title>
    <defs>
        <path d="M16.685856,1.133964 C18.197856,2.645964 18.197856,5.093964 16.685856,6.605964 L14.525856,8.765964 C13.543056,9.749124 12.134016,10.186524 10.637856,9.737964 L15.174576,5.129964 C15.858936,4.514004 15.925176,3.360924 15.174576,2.609964 C14.555016,1.922364 13.401576,1.861884 12.654576,2.609964 L8.082576,7.181964 C7.686216,5.849964 8.010216,4.337964 9.054216,3.293964 L11.214576,1.133964 C12.725856,-0.378036 15.174576,-0.378036 16.685856,1.133964 Z M5.129856,15.209964 L9.737856,10.673964 C10.134216,12.005604 9.809856,13.517964 8.765856,14.561964 L6.605856,16.721964 C5.071536,18.256284 2.665296,18.253044 1.133856,16.721964 C-0.377784,15.209964 -0.377784,12.761964 1.133856,11.249964 L3.293856,9.089964 C4.337856,8.009964 5.849856,7.721964 7.182216,8.117964 L2.609856,12.689964 C1.889856,13.338324 1.889856,14.561604 2.609856,15.209964 C3.257856,15.929964 4.482216,15.929964 5.129856,15.209964 Z M5.273856,11.033964 L11.034216,5.273964 C11.465496,4.841964 12.149856,4.841964 12.545496,5.273964 C12.977496,5.705964 12.977496,6.389964 12.545496,6.785964 L6.785856,12.545964 C6.351336,12.980484 5.707296,12.980484 5.273496,12.545964 C4.842216,12.113964 4.842216,11.465964 5.273856,11.033964 Z" id="path-1"></path>
    </defs>
    <g id="Page-1" stroke="none" stroke-width="1" fill="none" fill-rule="evenodd">
        <mask id="mask-2" fill="white">
            <use xlink:href="#path-1"></use>
        </mask>
        <use id="link" fill="#000000" xlink:href="#path-1"></use>
    </g>
</svg>