<?xml version="1.0" encoding="UTF-8"?>
<svg width="22px" height="13px" viewBox="0 0 22 13" version="1.1" xmlns="http://www.w3.org/2000/svg" xmlns:xlink="http://www.w3.org/1999/xlink">
    <title>mail</title>
    <defs></defs>
    <g id="Page-1" stroke="none" stroke-width="1" fill="none" fill-rule="evenodd">
        <path d="M8.015625,7.3594 L0.796875,12.97665 C0.862125,12.98965 0.930875,12.9999 1.000125,12.9999 L21.000125,12.9999 C21.069375,12.9999 21.137875,12.98965 21.203125,12.97665 L13.984375,7.3594 L12.148375,8.8829 C11.488625,9.4324 10.511375,9.4324 9.851625,8.8829 L8.015625,7.3594 Z M21.953125,0.7189 L14.765625,6.70315 L21.953125,12.28115 C21.979125,12.19165 22.000125,12.09815 22.000125,11.9999 L22.000125,1.00015 C22.000125,0.9019 21.979125,0.80815 21.953125,0.7189 L21.953125,0.7189 Z M0.046875,0.7189 C0.020875,0.80815 -0.000125,0.9019 -0.000125,1.00015 L-0.000125,11.9999 C-0.000125,12.09815 0.020875,12.19165 0.046875,12.28115 L7.234375,6.70315 L0.046875,0.7189 Z M1.000125,0.00015 C0.928125,0.00015 0.856625,0.00915 0.789125,0.0234 L10.492125,8.1094 C10.731375,8.30865 11.268625,8.30865 11.507875,8.1094 L21.210875,0.0234 C21.143375,0.00915 21.071875,0.00015 21.000125,0.00015 L1.000125,0.00015 Z" id="mail" fill="#000000"></path>
    </g>
</svg>