<?xml version="1.0" encoding="UTF-8"?>
<svg width="21px" height="17px" viewBox="0 0 21 17" version="1.1" xmlns="http://www.w3.org/2000/svg" xmlns:xlink="http://www.w3.org/1999/xlink">
    <title>twitter</title>
    <defs></defs>
    <g id="Page-1" stroke="none" stroke-width="1" fill="none" fill-rule="evenodd">
        <path d="M20.7776471,2.0143096 C20.0104644,2.35239009 19.1912693,2.58254489 18.3265635,2.68656966 C19.2068731,2.15734365 19.8843344,1.32124458 20.2029102,0.32520743 C19.3785139,0.806321981 18.4643963,1.15740557 17.4917647,1.35245201 C16.7141796,0.52025387 15.6063158,0.00013003096 14.3762229,0.00013003096 C12.0200619,0.00013003096 10.1086068,1.91158514 10.1086068,4.26514551 C10.1086068,4.60322601 10.1476161,4.92830341 10.2191331,5.24037771 C6.67188854,5.07133746 3.52643963,3.36793189 1.42123839,0.793318885 C1.05195046,1.4187678 0.843900929,2.14694118 0.843900929,2.94013003 C0.843900929,4.42248297 1.5980805,5.7266935 2.74235294,6.49257585 C2.04278638,6.47047059 1.38352941,6.27802477 0.80879257,5.95944892 L0.80879257,6.0114613 C0.80879257,8.07895356 2.27814241,9.80576471 4.23250774,10.1984582 C3.87362229,10.2946811 3.49653251,10.3466935 3.10773994,10.3466935 C2.83467492,10.3466935 2.574613,10.3206873 2.31455108,10.2712755 C2.86068111,11.9668793 4.43405573,13.2008731 6.30650155,13.2359814 C4.8501548,14.3802539 3.00371517,15.0616161 1.01424149,15.0616161 C0.676160991,15.0616161 0.338080495,15.0421115 0,15.0031022 C1.89845201,16.2123901 4.13498452,16.9197585 6.55356037,16.9197585 C14.4074303,16.9197585 18.698452,10.4182105 18.698452,4.78786997 C18.698452,4.60582663 18.698452,4.42378328 18.6854489,4.24173994 C19.5176471,3.64359752 20.2458204,2.88941796 20.8179567,2.03121362 L20.7776471,2.0143096 Z" id="twitter" fill="#000000"></path>
    </g>
</svg>