<?xml version="1.0" encoding="UTF-8"?>
<svg width="16px" height="17px" viewBox="0 0 16 17" version="1.1" xmlns="http://www.w3.org/2000/svg" xmlns:xlink="http://www.w3.org/1999/xlink">
    <!-- Generator: Sketch 46.2 (44496) - http://www.bohemiancoding.com/sketch -->
    <title>Link Large</title>
    <desc>Created with Sketch.</desc>
    <defs></defs>
    <g id="Symbols" stroke="none" stroke-width="1" fill="none" fill-rule="evenodd">
        <g id="Icon/LINK/LRG-Copy" transform="translate(-2.000000, -2.000000)">
            <g id="Link-Large" transform="translate(10.367603, 10.633149) rotate(-45.000000) translate(-10.367603, -10.633149) translate(0.367603, 6.133149)">
                <path d="M15.4841553,8.08725753 L13.9127268,8.08725753 C11.7425839,8.08725753 9.98415533,6.32882896 9.98415533,4.1586861 C9.98415533,1.98854324 11.7425839,0.230114672 13.9127268,0.230114672 L15.4841553,0.230114672 C17.6542982,0.230114672 19.4127268,1.98854324 19.4127268,4.1586861 C19.4127268,6.32882896 17.6542982,8.08725753 15.4841553,8.08725753 Z M16.2180125,5.73013039 C17.085441,5.73013039 17.789441,5.02613039 17.789441,4.15870181 C17.789441,3.29127324 17.085441,2.58727324 16.2180125,2.58727324 L13.9127268,2.58727324 C13.0452982,2.58727324 12.3412982,3.29127324 12.3412982,4.15870181 C12.3412982,5.02613039 13.0452982,5.73013039 13.9127268,5.73013039 L16.2180125,5.73013039 Z M6.0555839,8.08725753 L4.48415533,8.08725753 C2.31401247,8.08725753 0.5555839,6.32882896 0.5555839,4.1586861 C0.5555839,1.98854324 2.31401247,0.230114672 4.48415533,0.230114672 L6.0555839,0.230114672 C8.22572676,0.230114672 9.98415533,1.98854324 9.98415533,4.1586861 C9.98415533,6.32882896 8.22572676,8.08725753 6.0555839,8.08725753 Z M6.36986961,5.73013039 C7.23729819,5.73013039 7.94129819,5.02613039 7.94129819,4.15870181 C7.94129819,3.29127324 7.23729819,2.58727324 6.36986961,2.58727324 L4.48415533,2.58727324 C3.61594104,2.58727324 2.91272676,3.29127324 2.91272676,4.15870181 C2.91272676,5.02613039 3.61594104,5.73013039 4.48415533,5.73013039 L6.36986961,5.73013039 Z" id="Combined-Shape" fill="#B9C0C7"></path>
                <path d="M6.73651436,5.42891799 C5.97830007,5.42891799 5.36151436,4.81213227 5.36151436,4.05391799 C5.36151436,3.2957037 5.97830007,2.67891799 6.73651436,2.67891799 L13.8079429,2.67891799 C14.5661572,2.67891799 15.1829429,3.2957037 15.1829429,4.05391799 C15.1829429,4.81213227 14.5661572,5.42891799 13.8079429,5.42891799 L6.73651436,5.42891799 Z" id="Fill-11" fill="#B9C0C7"></path>
                <path d="M13.9127268,2.58727324 L6.84129819,2.58727324 C5.97465533,2.58727324 5.26986961,3.29205896 5.26986961,4.15870181 C5.26986961,5.02534467 5.97465533,5.73013039 6.84129819,5.73013039 L13.9127268,5.73013039 C14.7793696,5.73013039 15.4841553,5.02534467 15.4841553,4.15870181 C15.4841553,3.29205896 14.7793696,2.58727324 13.9127268,2.58727324 M13.9127268,2.98013039 C14.5632982,2.98013039 15.0912982,3.50813039 15.0912982,4.15870181 C15.0912982,4.80927324 14.5632982,5.33727324 13.9127268,5.33727324 L6.84129819,5.33727324 C6.19072676,5.33727324 5.66272676,4.80927324 5.66272676,4.15870181 C5.66272676,3.50813039 6.19072676,2.98013039 6.84129819,2.98013039 L13.9127268,2.98013039" id="Fill-13" fill="#FEFEFE"></path>
            </g>
        </g>
    </g>
</svg>