<svg width="39px" height="71px" viewBox="0 0 39 71" version="1.1" xmlns="http://www.w3.org/2000/svg" xmlns:xlink="http://www.w3.org/1999/xlink">
    <!-- Generator: Sketch 44.1 (41455) - http://www.bohemiancoding.com/sketch -->
    <desc>Created with Sketch.</desc>
    <defs></defs>
    <g id="Design" stroke="none" stroke-width="1" fill="none" fill-rule="evenodd">
        <g id="Ad-Products-—-Web-View" transform="translate(-674.000000, -1318.000000)">
            <g id="Group-3" transform="translate(430.000000, 1318.000000)">
                <g id="Group-2">
                    <g id="Group-18-Copy-12" transform="translate(245.000000, 0.000000)">
                        <g id="phone">
                            <g id="Group-20">
                                <g id="Group-16">
                                    <rect id="Path" fill="#9A9FA7" x="0" y="0" width="37" height="69" rx="2"></rect>
                                    <path d="M4,13 L32.9501846,13 L32.9501846,13 C34.6070388,13 35.9501846,14.3431458 35.9501846,16 L35.9501846,69 L1,69 L1,16 L1,16 C1,14.3431458 2.34314575,13 4,13 Z" id="Rectangle-19" fill="#FFFFFF"></path>
                                    <rect id="Rectangle-20-Copy" stroke="#FFF100" stroke-width="2" fill="#FFF100" stroke-linecap="round" stroke-linejoin="round" x="5" y="18" width="27" height="15.4303718"></rect>
                                    <rect id="Rectangle-20-Copy-3" stroke="#FFF100" stroke-width="2" fill="#FFF100" stroke-linecap="round" stroke-linejoin="round" x="5" y="39" width="27" height="15.4303718"></rect>
                                    <rect id="Rectangle-20-Copy-4" stroke="#FFF100" stroke-width="2" fill="#FFF100" stroke-linecap="round" stroke-linejoin="round" x="5" y="60" width="27" height="10"></rect>
                                    <path d="M6,8 L31.4,8" id="Line" stroke="#FFFFFF" stroke-width="4" stroke-linecap="round" stroke-linejoin="round"></path>
                                    <rect id="Rectangle-8" stroke="#000000" stroke-width="2" x="0" y="1" width="37" height="69" rx="2"></rect>
                                </g>
                            </g>
                        </g>
                    </g>
                </g>
            </g>
        </g>
    </g>
</svg>