<?xml version="1.0" encoding="UTF-8"?>
<svg xmlns="http://www.w3.org/2000/svg" width="214" height="183" viewBox="0 0 214 183">
  <title>Illo: Reaction</title>
  <desc>Created with Sketch.</desc>
  <g fill="none">
    <path d="M188.41 10.426h-114.519c-27.249 2.574-40.193 28.196-38.833 76.87 2.044 73.009-25.058 84.713-25.058 84.713h122.451s36.573-23.531 25.06-84.713c-1.446-7.685-2.417-14.65-2.965-20.957l38.89-.272c24.291-55.64-5.026-55.64-5.026-55.64" stroke="#fff" stroke-width="20" fill="#231F1F" stroke-linecap="round" stroke-linejoin="round"></path>
    <path d="M188.41 10.74c-23.453 0-41.976 15.687-30.462 76.869 11.513 61.182-25.059 84.713-25.059 84.713h-122.452s27.101-11.703 25.059-84.713c-1.362-48.673 11.582-74.296 38.832-76.869h114.083z" fill="#ff0"></path>
    <path d="M162.232 12.095c-21.528 14.188-29.729 40.059-16.402 85.125 4.784 30.601-6.151 55.637-32.804 75.11l6.151.835 10.251-.835 16.402-15.022 12.302-23.368 4.101-17.526-2.05-21.699-5.126-25.871-2.05-20.029 5.126-15.857 4.101-8.346 9.226-8.346 10.251-4.173c-8.012-11.797-14.505-11.797-19.477 0z" fill="#fff"></path>
    <path fill="#F8E81C" d="M154.906 66.342h40.214l8.367-23.368 1.675-17.526-5.863-10.849-12.564-4.173-14.239 3.338-8.376 7.511-5.863 11.684-4.188 16.691z"></path>
    <path d="M165.795 67.176c-5.026-20.586.279-38.668 15.915-54.246 0 0-18.427 2.504-20.94 10.849-2.513 8.346-6.701 22.533-5.863 32.548.558 6.676.558 10.571 0 11.684l10.889-.835z" fill="#E1C50D"></path>
    <path d="M181.709 10.426h8.376s29.316 0 5.026 55.64l-39.368.275" stroke="#000" stroke-width="3" stroke-linecap="round" stroke-linejoin="round"></path>
    <path d="M187.973 10.426c-23.453 0-41.976 15.687-30.462 76.869 11.513 61.182-25.059 84.713-25.059 84.713h-122.452s27.101-11.703 25.059-84.713c-1.362-48.673 11.582-74.296 38.832-76.869h114.083z" stroke="#000" stroke-width="3" stroke-linecap="round" stroke-linejoin="round"></path>
    <path d="M57.44 130.523c.898.031 1.792.187 2.686.467.899.28 1.669.717 2.311 1.309-.965.872-1.931 1.721-2.895 2.547-.329-.389-.757-.693-1.283-.911-.524-.218-1.045-.335-1.564-.351l-.909 3.739c.616.187 1.238.397 1.866.631.631.234 1.188.545 1.672.935.488.389.86.865 1.115 1.425.258.561.309 1.262.15 2.103-.162.857-.478 1.601-.951 2.232-.476.631-1.054 1.157-1.734 1.577-.684.421-1.433.74-2.247.958-.816.218-1.635.335-2.454.351l-.413 1.706h-2.086l.442-1.706c-1.196-.031-2.355-.222-3.474-.573-1.112-.351-2.015-.876-2.708-1.577.605-.421 1.212-.845 1.821-1.274.606-.428 1.205-.861 1.797-1.297.163.234.378.448.644.643.267.195.552.362.854.502.303.14.614.253.933.339.32.086.633.129.94.129l1.064-4.089c-.699-.187-1.358-.397-1.978-.631-.617-.234-1.129-.537-1.535-.911-.403-.374-.675-.83-.816-1.367-.138-.537-.085-1.196.158-1.975.238-.763.615-1.445 1.128-2.045.509-.6 1.084-1.106 1.723-1.519.635-.413 1.303-.732 2.006-.958.7-.226 1.362-.354 1.99-.386l.421-1.612h1.712l-.388 1.589zm-2.525 3.014c-.454.047-.893.206-1.32.479-.428.273-.714.666-.856 1.18-.138.499-.084.88.162 1.145.248.265.625.46 1.133.584l.881-3.388zm-.964 10.913c.621-.031 1.145-.206 1.569-.526.423-.319.695-.752.818-1.297.123-.545.035-.954-.263-1.227-.296-.273-.706-.487-1.228-.643l-.897 3.692z" fill="#000"></path>
    <path d="M54.393 103.062h67.029M71.145 141.452h45.262M54.393 79.695h50.256M52.718 56.327h73.709M62.769 32.959h51.932" stroke="#000" stroke-width="3" stroke-linecap="round" stroke-linejoin="round"></path>
  </g>
</svg>
