<?xml version="1.0" encoding="UTF-8"?>
<svg xmlns="http://www.w3.org/2000/svg" width="230" height="103" viewBox="0 0 230 103">
  <title>Illo: Resonance</title>
  <desc>Created with Sketch.</desc>
  <defs>
    <path d="M1.085 0h203.91v48.131h-203.91z"></path>
  </defs>
  <g fill="none">
    <path id="Rectangle-12" fill="#ff0" d="M10.055 45.526l200.851-35.48 8.375 47.409-200.851 35.48z"></path>
    <path fill="#F8E81C" d="M16.651 85.036l200.851-35.48.952 5.387-200.851 35.48z"></path>
    <path d="M51.764 40.759l3.39 19.192M31.878 44.272l1.522 8.618M71.65 37.246l1.522 8.618M110.429 30.396l1.522 8.618M150.201 23.37l1.522 8.618M189.974 16.344l1.522 8.618M170.286 19.822l3.39 19.192M91.139 33.803l3.39 19.192M130.713 26.812l3.39 19.192" stroke="#000" stroke-width="3" stroke-linecap="round" stroke-linejoin="round"></path>
    <path stroke="#000" stroke-width="3" d="M11.793 46.743l197.896-34.958 7.853 44.454-197.896 34.958z"></path>
    <path stroke="#fff" stroke-width="10" d="M4.26 41.471l210.701-37.22 10.115 57.259-210.701 37.22z"></path>
  </g>
</svg>
