<?xml version="1.0" encoding="UTF-8"?>
<svg xmlns="http://www.w3.org/2000/svg" width="91" height="157" viewBox="0 0 91 157">
  <title>phone</title>
  <desc>Created with Sketch.</desc>
  <g fill="none">
    <path d="M11.688 1.876s-9.116-.009-9.125 9.111l-.106 135.067s-.009 9.117 9.11 9.125l67.716.054s9.119.008 9.125-9.11l.109-135.069s.006-9.116-9.11-9.124l-67.719-.054z" fill="#fff"></path>
    <path d="M11.688 1.876s-9.116-.009-9.125 9.111l-.106 135.067s-.009 9.117 9.11 9.125l67.716.054s9.119.008 9.125-9.11l.109-135.069s.006-9.116-9.11-9.124l-67.719-.054z" stroke="#231F1F" stroke-width="3" stroke-linejoin="round"></path>
    <path d="M45.43 148.882c3.451.002 6.253-2.794 6.255-6.245.004-3.452-2.791-6.253-6.245-6.255-3.452-.004-6.253 2.794-6.255 6.246-.002 3.45 2.794 6.252 6.245 6.254" fill="#231F1F"></path>
    <path fill="#FFFC00" d="M13.033 13.203l-.094 116.768 65.011.052.093-116.769z"></path>
    <path stroke="#010101" stroke-width="3" stroke-linecap="round" stroke-linejoin="round" d="M28.281 71.36l9.264 13.107 25.275-31.172"></path>
    <path stroke="#231F1F" stroke-width="3" stroke-linejoin="round" d="M13.033 13.203l-.094 116.768 65.011.052.093-116.769z"></path>
  </g>
</svg>
