<?xml version="1.0" encoding="UTF-8"?>
<svg xmlns="http://www.w3.org/2000/svg" xmlns:xlink="http://www.w3.org/1999/xlink" width="231" height="165" viewBox="0 0 231 165">
  <title>Illo: Engagement</title>
  <desc>Created with Sketch.</desc>
  <defs>
    <path d="M0 26.425v117.915h210.645v-4.791h-24.613v-133.451h-27.72v12.874h-27.248v-18.295h-13.53v10.251c-18.561 18.462-50.265 29.5-95.111 33.113-.076 0-.076-5.713 0-17.139l-22.423-.478z" id="a"></path>
  </defs>
  <g fill="none">
    <g transform="translate(-815 -1743) translate(825 1753)">
      <path stroke="#fff" stroke-width="10" d="M27.367 38.586c39.765-3.833 68.131-13.846 85.167-29.78v-13.128h23.53v18.295h17.248v-12.874h37.72v133.451h24.613v14.791h-220.645v-128.023l32.456.692-.033 4.927c-.033 4.967-.052 8.851-.056 11.649z"></path>
    </g>
    <path id="Stroke-1" fill="#ff0" d="M33.77 152.407h27.244v-63.154h-27.244z"></path>
    <path id="Stroke-3" fill="#ff0" d="M78.351 152.407h27.244v-45.818h-27.244z"></path>
    <path id="Stroke-4" fill="#ff0" d="M122.932 151.168h27.244v-80.491h-27.244z"></path>
    <path id="Stroke-5" fill="#ff0" d="M168.751 151.168h27.244v-133.738h-27.244z"></path>
    <path fill="#F8E81C" d="M33.77 152.407h8.154v-63.154h-8.154z"></path>
    <path fill="#F8E81C" d="M78.351 152.407h8.154v-45.818h-8.154z"></path>
    <path fill="#F8E81C" d="M122.932 151.168h8.154v-80.491h-8.154z"></path>
    <path fill="#F8E81C" d="M168.751 151.168h8.154v-133.738h-8.154z"></path>
    <path stroke="#000" stroke-width="3" stroke-linecap="round" stroke-linejoin="round" d="M33.77 152.407h27.244v-63.154h-27.244zM78.351 152.407h27.244v-45.818h-27.244zM122.932 151.168h27.244v-80.491h-27.244zM168.751 151.168h27.244v-133.738h-27.244zM33.77 126.402l27.244-8.668M33.77 137.547l27.244-8.668M33.77 147.453l27.244-8.668M78.351 127.64l27.244-8.668M78.351 137.547l27.244-8.668M78.351 148.692l27.244-8.668M122.932 127.64l27.244-8.668M122.932 117.734l27.244-8.668M122.932 106.589l27.244-8.668M122.932 96.682l27.244-8.668M122.932 137.547l27.244-8.668M122.932 148.692l27.244-8.668M168.751 126.402l27.244-8.668M168.751 116.495l27.244-8.668M168.751 137.547l27.244-8.668M168.751 147.453l27.244-8.668M140.269 10c-21.664 26.67-61.802 44.579-107.737 44.579M126.647 10h14.86v14.86M13.398 37.78l-.101 114.834h208.085"></path>
  </g>
</svg>
