<?xml version="1.0" encoding="UTF-8"?>
<svg xmlns="http://www.w3.org/2000/svg" xmlns:xlink="http://www.w3.org/1999/xlink" width="196" height="196" viewBox="0 0 196 196">
  <title>Group 9</title>
  <desc>Created with Sketch.</desc>
  <defs>
    <circle id="b" cx="67" cy="67" r="66.5"></circle>
    <filter x="-39.1%" y="-33.1%" width="178.2%" height="178.2%" filterUnits="objectBoundingBox" id="a">
      <feOffset dy="8" in="SourceAlpha"></feOffset>
      <feGaussianBlur stdDeviation="16" in="shadowOffsetOuter1"></feGaussianBlur>
      <feColorMatrix in="shadowBlurOuter1"></feColorMatrix>
    </filter>
    <circle id="c" cx="62" cy="62" r="62"></circle>
    <path d="M108.141.542c12.219 11.648 19.833 28.083 19.833 46.297 0 35.318-28.633 63.952-63.952 63.952-35.32 0-63.952-28.634-63.952-63.952 0-18.214 7.614-34.649 19.833-46.297h88.239z" id="e"></path>
    <path d="M5.02.125c-3.188 7.603-4.95 15.953-4.95 24.714 0 12.092 3.356 23.401 9.189 33.045h100.045v-57.759h-104.283z" id="g"></path>
    <path d="M16.981.514c-10.499 11.393-16.911 26.61-16.911 43.325 0 35.318 28.632 63.952 63.952 63.952 19.437 0 36.849-8.672 48.578-22.357v-83.19c-.502-.586-1.015-1.163-1.537-1.73h-94.081z" id="i"></path>
  </defs>
  <g transform="translate(-622 -2775) translate(653 2798)" fill="none">
    <g></g>
    <g transform="translate(5 5)">
      <mask id="d"></mask>
      <path fill="#FFFC00" mask="url(#d)" d="M97.556 44.18l16.816-15.97 11.78 23-8.259 41.982-21.973 20.192-9.55-11.036 8.108-49.161z"></path>
      <g mask="url(#d)">
        <g transform="translate(-9 19) translate(0 2)">
          <mask id="f"></mask>
          <path fill="#FFFC00" mask="url(#f)" d="M-17.947 115.085l-30.539-36.497 36.02-24.126 60.797 24.72 82.076-78.64 3.647 116.355z"></path>
        </g>
        <g transform="translate(-9 19) translate(0 24)">
          <mask id="h"></mask>
          <path stroke="#020302" stroke-width="3" stroke-linecap="round" stroke-linejoin="round" mask="url(#h)" d="M-47.806 57.63l35.34-24.466 60.797 24.72 60.972-57.759"></path>
        </g>
        <path stroke="#020302" stroke-width="3" stroke-linecap="round" stroke-linejoin="round" d="M94.149 42.657l6.394-.05.049 6.392"></path>
        <g transform="translate(-9 19) translate(0 5)">
          <mask id="j"></mask>
          <path stroke="#020302" stroke-width="2" stroke-linecap="round" stroke-linejoin="round" mask="url(#j)" d="M-58 .514v101.97l170.6 10.516"></path>
        </g>
        <path d="M43.202 100.651c0 2.067-1.676 3.743-3.743 3.743-2.068 0-3.744-1.676-3.744-3.743s1.676-3.743 3.744-3.743c2.067 0 3.743 1.676 3.743 3.743" fill="#211E1E"></path>
        <path d="M56.458 23.802c-3.783-.62-7.273-1.975-10.364-3.881l-.417-.068c1.004 3.708 1.292 7.665.701 11.687-.585 3.976-1.972 7.62-3.954 10.807 3.601-.908 7.452-1.113 11.373-.47 3.922.643 7.53 2.071 10.703 4.09-.974-3.674-1.246-7.588-.661-11.564.592-4.022 2.005-7.699 4.026-10.914l-.415-.067c-3.494.826-7.21 1-10.992.38M16.511 63.349c-1.069-.175-2.053-.557-2.926-1.096l-.117-.018c.284 1.046.363 2.163.197 3.298-.166 1.123-.557 2.151-1.116 3.052 1.017-.257 2.105-.315 3.211-.134 1.106.182 2.126.585 3.021 1.155-.274-1.037-.352-2.141-.185-3.265.166-1.135.566-2.173 1.136-3.079l-.117-.02c-.987.233-2.035.282-3.104.107" fill="#F9D523"></path>
        <path d="M79.121 40.775c-.734-.729-1.29-1.571-1.674-2.468l-.08-.081c-.356.956-.905 1.852-1.661 2.623-.747.762-1.615 1.327-2.546 1.699.932.373 1.811.937 2.571 1.694.76.756 1.331 1.633 1.714 2.567.358-.943.905-1.827 1.651-2.591.754-.771 1.636-1.339 2.578-1.711l-.08-.081c-.895-.372-1.74-.921-2.473-1.651M24.069 55.414c-2.171 1.301-5.004.566-6.328-1.642-1.323-2.208-.636-5.051 1.536-6.354 2.172-1.301 5.005-.566 6.329 1.642 1.323 2.208.634 5.053-1.537 6.354" fill="#929297"></path>
        <path d="M41.163 57.119c-1.425.854-3.285.372-4.153-1.077-.868-1.449-.417-3.317 1.008-4.171 1.425-.854 3.285-.372 4.153 1.077.87 1.45.417 3.317-1.008 4.171" fill="#FFFC00"></path>
        <path d="M32.68 38.504c-.979.587-2.256.256-2.852-.739-.596-.995-.286-2.278.692-2.864.98-.588 2.256-.256 2.852.739.597.995.287 2.278-.692 2.864" fill="#929297"></path>
        <path d="M33.915 69.642c-.979.587-2.256.256-2.854-.74-.596-.996-.286-2.278.694-2.863.979-.587 2.256-.256 2.852.739.597.995.287 2.278-.692 2.864M57.57 61.222c-1.927 1.156-4.442.503-5.616-1.457-1.174-1.96-.565-4.484 1.363-5.64 1.928-1.156 4.443-.504 5.618 1.458 1.173 1.96.563 4.483-1.365 5.639" fill="#414143"></path>
      </g>
    </g>
    <circle stroke="#000" stroke-width="3" cx="67" cy="67" r="60.5"></circle>
  </g>
</svg>
