<?xml version="1.0" encoding="UTF-8"?>
<svg width="21px" height="21px" viewBox="0 0 21 21" version="1.1" xmlns="http://www.w3.org/2000/svg" xmlns:xlink="http://www.w3.org/1999/xlink">
    <!-- Generator: Sketch 47.1 (45422) - http://www.bohemiancoding.com/sketch -->
    <title>ic_confetti_star</title>
    <desc>Created with Sketch.</desc>
    <defs>
        <polygon id="path-1" points="4.9238364e-16 20.8755786 4.9238364e-16 0.000212834204 19.936 0.000212834204 19.936 20.8755786"></polygon>
    </defs>
    <g id="Home-Page" stroke="none" stroke-width="1" fill="none" fill-rule="evenodd">
        <g id="ic_confetti_star" transform="translate(10.535823, 10.506338) rotate(3.000000) translate(-10.535823, -10.506338) translate(0.535823, 0.006338)">
            <mask id="mask-2" fill="white">
                <use xlink:href="#path-1"></use>
            </mask>
            <g id="Clip-2"></g>
            <path d="M3.9976,12.9220252 L0.2886,9.38895728 C-0.2474,8.87849126 0.0006,7.97311748 0.7216,7.81133592 L6.1826,6.57837961 C6.4726,6.51306408 6.7146,6.3100835 6.8306,6.0347534 L9.2016,0.41862233 C9.4216,-0.101892233 10.1376,-0.14711068 10.4206,0.341248544 L13.6456,5.91517573 C13.7886,6.1623699 14.0376,6.33018058 14.3196,6.3693699 L19.1376,7.03257379 C19.8396,7.12903981 20.1756,7.95201553 19.7446,8.51674369 L16.3976,12.8918796 C16.2306,13.1109379 16.1686,13.3922971 16.2286,13.6605932 L17.3826,18.8406175 C17.5496,19.589234 16.7916,20.2062146 16.0976,19.8866709 L11.0096,17.5453602 C10.7296,17.4167388 10.4046,17.4358311 10.1426,17.5976126 L5.0406,20.7367777 C4.3876,21.1387194 3.5606,20.6141854 3.6406,19.8494913 L4.2806,13.6927485 C4.3106,13.4053602 4.2056,13.1199816 3.9976,12.9220252" id="Fill-1" fill="#FFE774" mask="url(#mask-2)"></path>
        </g>
    </g>
</svg>