<?xml version="1.0" encoding="UTF-8"?>
<svg width="19px" height="19px" viewBox="0 0 19 19" version="1.1" xmlns="http://www.w3.org/2000/svg" xmlns:xlink="http://www.w3.org/1999/xlink">
    <!-- Generator: Sketch 46.2 (44496) - http://www.bohemiancoding.com/sketch -->
    <title>Fill 4</title>
    <desc>Created with Sketch.</desc>
    <defs></defs>
    <g id="Symbols" stroke="none" stroke-width="1" fill="none" fill-rule="evenodd">
        <g id="Icon/DOWNLOAD/LRG-Copy" fill="#B9C0C7">
            <path d="M14.4889643,7.64578571 C14.9493929,8.10542857 14.9486071,8.85185714 14.4889643,9.3115 L10.3293929,13.4702857 C10.0221786,13.7759286 9.52560714,13.7759286 9.21839286,13.4695 L5.05960714,9.31071429 C4.59917857,8.85107143 4.59917857,8.10464286 5.05960714,7.645 C5.51925,7.18535714 6.26489286,7.18535714 6.72532143,7.645 L8.59532143,9.515 L8.59532143,1.17778571 C8.59532143,0.527214286 9.12253571,0 9.77310714,0 L9.77467857,0 C10.42525,0 10.9524643,0.527214286 10.9524643,1.17778571 L10.9524643,9.515 L12.8224643,7.645 C13.2821071,7.18535714 14.02775,7.18535714 14.4881786,7.645 L14.4889643,7.64578571 Z M18.8571429,13.75 L18.8571429,17.6628571 C18.8571429,18.3142143 18.3299286,18.8414286 17.6785714,18.8414286 L2.35714286,18.8414286 L2.35714286,18.8571429 L1.17857143,18.8571429 C0.528,18.8571429 0,18.3291429 0,17.6785714 L0,13.75 C0,13.0994286 0.528,12.5714286 1.17857143,12.5714286 C1.82992857,12.5714286 2.35714286,13.0994286 2.35714286,13.75 L2.35714286,16.0914286 C2.35714286,16.3082857 2.53392857,16.4842857 2.75,16.4842857 L16.1071429,16.4842857 C16.324,16.4842857 16.5,16.3082857 16.5,16.0914286 L16.5,13.75 C16.5,13.0994286 17.028,12.5714286 17.6785714,12.5714286 C18.3299286,12.5714286 18.8571429,13.0994286 18.8571429,13.75 Z" id="Fill-4"></path>
        </g>
    </g>
</svg>