<?xml version="1.0" encoding="UTF-8"?>
<svg width="16px" height="16px" viewBox="0 0 16 16" version="1.1" xmlns="http://www.w3.org/2000/svg" xmlns:xlink="http://www.w3.org/1999/xlink">
    <!-- Generator: Sketch 46.2 (44496) - http://www.bohemiancoding.com/sketch -->
    <title>ic_cs_video_black</title>
    <desc>Created with Sketch.</desc>
    <defs>
        <path d="M8,16 C3.581722,16 0,12.418278 0,8 C0,3.581722 3.581722,0 8,0 C12.418278,0 16,3.581722 16,8 C16,12.418278 12.418278,16 8,16 Z M7.08838602,5.54692513 L7.08838602,5.54692513 C7.01118724,5.50114095 6.92308768,5.47698108 6.83333333,5.47698108 C6.55719096,5.47698108 6.33333333,5.70083871 6.33333333,5.97698108 L6.33333333,10.0230189 C6.33333333,10.1127733 6.3574932,10.2008728 6.40327737,10.2780716 C6.54413908,10.5155849 6.85087267,10.5939366 7.08838602,10.4530749 L7.08838602,10.4530749 L10.4994904,8.43005596 C10.5715685,8.38730869 10.6317464,8.3271308 10.6744937,8.25505269 C10.8153554,8.01753934 10.7370038,7.71080575 10.4994904,7.56994404 L10.4994904,7.56994404 L7.08838602,5.54692513 Z" id="path-1"></path>
        <filter x="-237.5%" y="-212.5%" width="575.0%" height="575.0%" filterUnits="objectBoundingBox" id="filter-2">
            <feOffset dx="0" dy="4" in="SourceAlpha" result="shadowOffsetOuter1"></feOffset>
            <feGaussianBlur stdDeviation="12" in="shadowOffsetOuter1" result="shadowBlurOuter1"></feGaussianBlur>
            <feColorMatrix values="0 0 0 0 0   0 0 0 0 0   0 0 0 0 0  0 0 0 0.08 0" type="matrix" in="shadowBlurOuter1"></feColorMatrix>
        </filter>
    </defs>
    <g id="Specs" stroke="none" stroke-width="1" fill="none" fill-rule="evenodd">
        <g id="ic_cs_video_black">
            <g id="ic_video">
                <use fill="black" fill-opacity="1" filter="url(#filter-2)" xlink:href="#path-1"></use>
                <use fill="#000000" fill-rule="evenodd" xlink:href="#path-1"></use>
            </g>
        </g>
    </g>
</svg>