<?xml version="1.0" encoding="UTF-8"?>
<svg xmlns="http://www.w3.org/2000/svg" xmlns:xlink="http://www.w3.org/1999/xlink" width="76px" height="73px" viewBox="0 0 76 73">
  <!-- Generator: Sketch 45.2 (43514) - http://www.bohemiancoding.com/sketch -->
  <title>drive-action</title>
  <desc>Created with Sketch.</desc>
  <defs></defs>
  <g id="Page-1" stroke="none" stroke-width="1" fill="none" fill-rule="evenodd">
    <g id="drive-action">
      <g transform="translate(21.000000, 8.000000)">
        <g id="Group" transform="translate(0.500000, 0.000000)" fill-rule="nonzero">
          <path d="M3,1 L29.4,1 C30.5,1 31.4,1.9 31.4,3 L31.4,54.2 C31.4,55.3 30.5,56.2 29.4,56.2 L3,56.2 C1.9,56.2 1,55.3 1,54.2 L1,3 C1,1.9 1.9,1 3,1 Z" id="Shape" fill="#FFFF00"></path>
          <path d="M29.4,57.2 L3,57.2 C1.3,57.2 0,55.9 0,54.2 L0,3 C0,1.3 1.3,0 3,0 L29.4,0 C31.1,0 32.4,1.3 32.4,3 L32.4,54.2 C32.4,55.9 31.1,57.2 29.4,57.2 Z M3,2 C2.4,2 2,2.4 2,3 L2,54.2 C2,54.8 2.4,55.2 3,55.2 L29.4,55.2 C30,55.2 30.4,54.8 30.4,54.2 L30.4,3 C30.4,2.4 30,2 29.4,2 L3,2 Z" id="Shape" fill="#000000"></path>
        </g>
        <path d="M19.2,50.9 C19.2,49.8 18.3,48.9 17.2,48.9 C16.1,48.9 15.2,49.8 15.2,50.9 C15.2,52 16.1,52.9 17.2,52.9 C18.3,52.9 19.2,52 19.2,50.9" id="Shape" fill="#000000" fill-rule="nonzero"></path>
        <polyline id="Shape" fill="#FFFF00" fill-rule="nonzero" points="5.6 46 5.6 5.1 27.8 5.1 27.8 46"></polyline>
        <polyline id="Shape" fill="#FFFFFF" fill-rule="nonzero" points="27.9 5.1 6.1 46 5.6 43.5 6.1 11.5 6.1 5.1 23.6 5.1"></polyline>
        <polygon id="Shape" fill="#FFFFFF" fill-rule="nonzero" points="5.6 5.1 27.6 5.1 27.6 46.5 5.6 46.5"></polygon>
        <g id="Group" transform="translate(10.500000, 18.000000)">
          <polyline id="a" stroke="#000000" stroke-width="6" stroke-linecap="round" stroke-linejoin="round" points="1.6 10.6 4.4 14 10.5 1.6"></polyline>
          <path d="M4.4,15 C4.1,15 3.8,14.9 3.6,14.6 L0.8,11.2 C0.4,10.8 0.5,10.1 0.9,9.8 C1.3,9.4 2,9.5 2.3,9.9 L4.2,12.1 L9.6,1.1 C9.8,0.6 10.4,0.4 10.9,0.6 C11.4,0.8 11.6,1.4 11.4,1.9 L5.3,14.3 C5.2,14.6 4.9,14.8 4.5,14.8 C4.5,15 4.5,15 4.4,15 Z" id="Shape" fill="#F8E71C" fill-rule="nonzero"></path>
        </g>
        <path d="M27.8,47 L27.8,47 L5.6,47 C5,47 4.6,46.6 4.6,46 L4.6,5.1 C4.6,4.5 5,4.1 5.6,4.1 L27.8,4.1 C28.4,4.1 28.8,4.5 28.8,5.1 L28.8,46 C28.8,46.3 28.7,46.5 28.5,46.7 C28.3,46.9 28.1,47 27.8,47 Z M6.6,45 L26.8,45 L26.8,6.1 L6.6,6.1 L6.6,45 Z" id="Shape" fill="#000000" fill-rule="nonzero"></path>
      </g>
    </g>
  </g>
</svg>
