<?xml version="1.0" encoding="UTF-8"?>
<svg xmlns="http://www.w3.org/2000/svg" xmlns:xlink="http://www.w3.org/1999/xlink" width="76px" height="73px" viewBox="0 0 76 73">
  <!-- Generator: Sketch 45.2 (43514) - http://www.bohemiancoding.com/sketch -->
  <title>increase-consideration</title>
  <desc>Created with Sketch.</desc>
  <defs></defs>
  <g id="Page-1" stroke="none" stroke-width="1" fill="none" fill-rule="evenodd">
    <g id="increase-consideration" fill-rule="nonzero">
      <g transform="translate(19.000000, 8.000000)">
        <circle id="path-1" fill="#FFFFFF" cx="19" cy="19" r="18"></circle>
        <g id="Page-1">
          <g id="Homepage-_x2014_-Raise-Awareness">
            <g id="Group-2">
              <g id="increase-consideration">
                <circle id="Oval-18" fill="#FFFFFF" cx="19" cy="19" r="18"></circle>
                <g id="Oval-18_1_" transform="translate(4.000000, 4.000000)" fill="#FFFF00">
                  <path d="M31.9,14.9 C31.9,21.2 28.4,27 22.8,29.9 C22.4,30.1 22.2,30.6 22.3,31.1 C22.5,31.7 22.6,32.3 22.6,33 L22.6,33.6 L22.4,35.8 C21.1,36.1 19.8,36.3 18.4,36.3 C14.5,36.3 10.8,35 7.9,32.9 C5.5,31.2 3.6,28.9 2.3,26.2 C1.1,23.8 0.5,21.1 0.5,18.3 C0.5,8.4 8.6,0.3 18.5,0.3 C21.2,0.3 23.7,0.9 26,2 C26.4,2.3 26.8,2.7 27.2,3.1 C30.2,6.2 32,10.4 31.9,14.9 Z" id="Shape"></path>
                </g>
                <path d="M18.9,29.1 L19.7,29.1 C24.1,29.1 27.7,32.7 27.7,37.1 L27.7,37.8 L27.4,40.9 C27,45 23.6,48.2 19.4,48.2 L19.1,48.2 C15,48.2 11.5,45 11.1,40.9 L10.8,37.8 C10.4,33.4 13.7,29.5 18.1,29.1 C18.1,29.1 18.9,29.1 18.9,29.1 Z" id="Rectangle-6" fill="#FFFF00"></path>
                <g id="Group-6" transform="translate(13.000000, 18.000000)" fill="#000000">
                  <path d="M6,26.7 C5.4,26.7 5,26.3 5,25.7 L5,6.3 C5,5.7 5.4,5.3 6,5.3 C6.6,5.3 7,5.7 7,6.3 L7,25.7 C7,26.2 6.6,26.7 6,26.7 Z" id="Shape"></path>
                  <path d="M5.5,7.6 C4.5,7.6 3.2,6.9 2.2,5.6 C0.7,3.8 0.3,1.8 1.4,0.9 C2.5,3.66373598e-15 4.3,0.7 5.9,2.5 C7.4,4.3 7.8,6.3 6.7,7.2 C6.3,7.4 6,7.6 5.5,7.6 Z M2.8,2.6 C2.9,2.9 3.1,3.6 3.7,4.3 C4.3,5 4.9,5.4 5.3,5.5 C5.2,5.2 5,4.5 4.3,3.8 C3.6,3.1 3.1,2.7 2.8,2.6 Z" id="Shape"></path>
                  <path d="M7.1,7.6 C6.5,7.6 6.2,7.4 5.9,7.2 C4.8,6.3 5.2,4.3 6.7,2.5 C7.3,1.8 8,1.2 8.7,0.8 C10,0.2 10.8,0.6 11.1,0.9 C12.2,1.8 11.8,3.8 10.3,5.6 C9.8,6.3 9,6.9 8.3,7.3 C7.8,7.5 7.4,7.6 7.1,7.6 Z M8.2,3.8 C7.6,4.5 7.4,5.2 7.3,5.5 C7.6,5.4 8.2,5 8.9,4.3 C9.5,3.5 9.8,2.9 9.8,2.6 C9.4,2.7 8.9,3 8.2,3.8 Z" id="Shape"></path>
                </g>
                <path d="M12.1,43.1 L26.4,43.1 C27,43.1 27.4,43.5 27.4,44.1 L27.4,44.2 L26.8,49.4 C26.4,53 23.3,55.7 19.7,55.7 L18.8,55.7 C15.2,55.7 12.2,53 11.7,49.4 L11.1,44.2 C11,43.7 11.4,43.2 12,43.1 L12.1,43.1 Z" id="Rectangle-6_1_" fill="#C2C2C2"></path>
                <path d="M19.9,56.8 L18.7,56.8 C14.5,56.8 11.1,53.7 10.6,49.6 L10,44.4 C9.9,44 10,43.5 10.3,43.1 C10.4,43 10.5,42.9 10.6,42.8 C10.5,42.3 10.3,41.7 10.3,41.1 L10,38 C9.9,37.3 9.9,36.6 10.1,35.8 C3.8,32.3 0,26 0,19 C0,8.5 8.5,0 19,0 C24.1,0 28.9,2 32.5,5.6 C36,9.2 38,13.9 37.9,18.9 C37.9,25.7 34.3,31.9 28.4,35.3 C28.5,35.8 28.6,36.4 28.6,37 L28.6,37.7 L28.3,40.9 C28.3,41.4 28.2,42.1 28,42.7 C28.4,43.1 28.6,43.6 28.6,44.2 L28.6,44.4 L28,49.6 C27.4,53.7 23.9,56.8 19.9,56.8 Z M31.1,7 C30.7,6.6 30.3,6.2 29.9,5.9 C26.8,3.4 23,2 19,2 C9.6,2 2,9.6 2,19 C2,23.2 3.5,27.2 6.2,30.2 C7.7,31.9 9.4,33.3 11.5,34.3 C11.9,34.5 12.1,35 12,35.4 C11.9,35.9 11.8,36.4 11.8,36.9 C11.8,37.2 11.8,37.4 11.8,37.7 L12.1,40.8 C12.2,41.6 12.4,42.4 12.6,42.9 C12.7,43.2 12.6,43.5 12.5,43.7 C12.4,43.9 12.2,44.1 11.9,44.1 L12.5,49.3 C12.8,52.4 15.5,54.7 18.6,54.7 L19.8,54.7 C22.9,54.7 25.5,52.4 25.9,49.3 L26.5,44.2 C26.5,44 26.5,44 26.5,44 C26.2,43.9 26,43.8 25.8,43.5 C25.7,43.2 25.7,42.9 25.8,42.7 C26.1,42.1 26.2,41.4 26.2,40.8 L26.3,39.8 L26.5,37.6 L26.5,37 C26.5,36.3 26.4,35.7 26.2,35.1 C26.1,34.6 26.3,34.2 26.7,33.9 C32.3,30.9 35.8,25.2 35.8,18.9 C36,14.4 34.2,10.2 31.1,7 Z" id="Shape" fill="#000000"></path>
                <path d="M19,17.2 C18.4,17.2 18,16.8 18,16.2 L18,8.3 C18,7.7 18.4,7.3 19,7.3 C19.6,7.3 20,7.7 20,8.3 L20,16.2 C20,16.8 19.6,17.2 19,17.2 Z" id="Shape" fill="#F8E71C"></path>
                <path d="M25.7,18.3 C25.4,18.3 25.2,18.2 25,18 C24.6,17.6 24.6,17 25,16.6 L27,14.6 C27.4,14.2 28,14.2 28.4,14.6 C28.8,15 28.8,15.6 28.4,16 L26.4,18 C26.2,18.2 26,18.3 25.7,18.3 Z" id="Shape" fill="#F8E71C"></path>
                <path d="M12.8,18.3 C12.5,18.3 12.3,18.2 12.1,18 L10.1,16 C9.7,15.6 9.7,15 10.1,14.6 C10.5,14.2 11.1,14.2 11.5,14.6 L13.5,16.6 C13.9,17 13.9,17.6 13.5,18 C13.3,18.2 13.1,18.3 12.8,18.3 Z" id="Shape" fill="#F8E71C"></path>
                <path d="M11.6,48.8 C11.1,48.8 10.6,48.4 10.6,47.9 C10.6,47.3 11,46.9 11.5,46.9 L27.1,46 C27.6,46 28.1,46.4 28.1,46.9 C28.1,47.5 27.7,47.9 27.2,47.9 L11.6,48.8 C11.6,48.8 11.6,48.8 11.6,48.8 Z" id="Shape" fill="#000000"></path>
                <path d="M12.5,52.9 C12,52.9 11.5,52.5 11.5,52 C11.5,51.4 11.9,51 12.4,50.9 L26.3,50.1 C26.8,50.1 27.3,50.5 27.4,51 C27.4,51.6 27,52 26.5,52.1 L12.5,52.9 C12.5,52.9 12.5,52.9 12.5,52.9 Z" id="Shape" fill="#000000"></path>
              </g>
            </g>
          </g>
        </g>
      </g>
    </g>
  </g>
</svg>
