<?xml version="1.0" encoding="UTF-8"?>
<svg xmlns="http://www.w3.org/2000/svg" width="231" height="139" viewBox="0 0 231 139">
  <title>Illo: Reach</title>
  <desc>Created with Sketch.</desc>
  <g fill="none">
    <path d="M179.446 34.813l.959-.624c-.632.411-1.434.513-2.162.255.195.069.47.156.785.249l.418.12zm15.682 12.399l.961-.629c-.633.415-1.438.519-2.169.259.195.069.47.156.785.249l.423.121zm-183.688 20.586c17.636-37.004 58.189-61.045 103.21-61.045 17.094 0 33.765 3.46 48.928 10.042 1.955.298 3.764.297 5.3-.008 2.877-.57 4.471-2.074 5.441-5.481 1.141-4.011 5.317-6.339 9.327-5.192 4.006 1.145 6.324 5.321 5.184 9.327-1.145 4.026-3.023 7.392-5.532 10.022-1.524 1.597-3.28 2.923-5.247 3.96l-.56.285c-1.38.676-2.858 1.215-4.428 1.611l-1.223-4.848 2.45-4.358c1.428.803 2.835 1.634 4.221 2.493.633.393 1.262.791 1.886 1.195l-2.718 4.197-2.725-4.192c1.075-.699 2.3-1.107 3.558-1.2 1.024-.076 2.07.058 3.075.414l.27.082c.385.113.817.224 1.282.327l.16.035c2.436.519 4.714.6 6.588.229 2.876-.57 4.469-2.074 5.439-5.481 1.141-4.011 5.317-6.339 9.327-5.192 4.006 1.145 6.324 5.321 5.184 9.327-1.772 6.23-5.294 10.868-10.175 13.651-1.148.655-2.371 1.207-3.664 1.653-1.018.351-2.079.637-3.181.855l-.63.117c-2.076.359-4.222.474-6.416.362l.254-4.994 3.111-3.914c1.981 1.574 3.899 3.212 5.752 4.908.652.597 1.296 1.202 1.931 1.814l-3.468 3.602-2.739-4.183c1.277-.836 2.768-1.262 4.276-1.233.798.015 1.6.158 2.377.433l.27.082c.385.114.818.225 1.282.327.284.063.566.119.846.17 2.177.395 4.206.43 5.903.094 2.876-.569 4.468-2.072 5.438-5.478 1.141-4.01 5.317-6.338 9.328-5.192 4.006 1.145 6.323 5.322 5.183 9.328-2.469 8.677-8.333 14.264-16.538 16.054 3.429 4.766 6.413 9.8 8.914 15.059l.083.176.103.222.031.067 2.069 4.498-13.959 6.587.091-15.46h4.971l.504.017c1.835.122 3.53.907 4.8 2.164.435.43.819.915 1.143 1.448l.163.282c.165.301.31.612.432.931.262.683.424 1.405.477 2.146.015.204.021.41.02.617l-.006.749-.225.714-.206.652c-.322 1.013-.375 1.146-.572 1.565-.098.209-.208.408-.327.599-.292.465-.647.876-1.058 1.224-.411.348-.878.635-1.395.854l-3.087 1.308-7.776-7.704 9.199-9.114 3.5 4.055c.239.277.346.406.519.643.251.344.466.7.661 1.095l.094.189.077.196c.246.624.302.873.52 2.023l.088.462v.47l-.007.325c-.008.195-.024.389-.047.582-.047.392-.125.778-.232 1.154-.226.798-.583 1.554-1.056 2.237l-.249.339c-.148.191-.306.374-.472.55l-.337.335c-.924.863-2.048 1.478-3.272 1.791-.217.056-.438.102-.661.138-.232.038-.466.065-.703.081l-.523.018c-1.049 0-2.075-.217-3.021-.631l-.3-.139 2.203-4.488 4.462 2.257c-.439.868-.891 1.728-1.356 2.58l-.101.185c-18.249 33.289-56.209 54.88-98.503 54.88-32.481 0-62.66-12.697-83.328-34.278-2.305.124-4.637-.808-6.222-2.724-.519-.627-1.034-1.267-1.545-1.92-1.784-2.28-3.495-4.679-5.123-7.173-2.147 1.957-5.329 2.576-8.154 1.317-3.804-1.696-5.514-6.155-3.825-9.961l4.573-10.308 4.57 2.028-4.751-1.558.105-.299c.136-.364.3-.717.49-1.056l.185-.312c1.36-2.177 3.73-3.535 6.41-3.535h5v10.071l-5.038-.038c.777.006 1.552-.375 2.031-1.052l.011-.016.048-.071-.117.172.069-.102.01-.015.05-.079.077-.132.005-.008.062-.117.004-.007.07-.147-.054.119-.06.116.04-.081.018-.039-.014.031-.061.137-9.267-3.743.076-.2c.103-.258.22-.51.351-.755.108-.202.225-.4.352-.593l8.403 5.42.078-.132.004-.008-8.923-4.506.086-.181.094-.197z" stroke="#fff" stroke-width="10" stroke-linecap="round" stroke-linejoin="round"></path>
    <path d="M114.649 14.303c-43.532 0-80.841 23.612-96.615 57.198 15.773 33.621 53.083 57.228 96.615 57.228 43.527 0 80.841-23.607 96.615-57.193-15.773-33.621-53.088-57.233-96.615-57.233z" fill="#ff0"></path>
    <path d="M19.328 73.75c20.257-25.612 49.654-40.062 88.192-43.35 30.528-2.267 65.579 11.9 105.152 42.5l-11.024-18.7-17.808-17.85-21.2-12.75-27.136-8.5-27.984-2.55-20.352 4.25-24.592 9.35-22.896 15.3-13.568 17-6.784 15.3z" fill="#F8E81C"></path>
    <path d="M211.264 71.536h.015l-.01-.02.01-.015h-.015c-15.773-33.586-53.088-57.198-96.615-57.198-43.532 0-80.841 23.612-96.615 57.198h-.02l.01.015-.01.02h.02" stroke="#221F20" stroke-width="3" stroke-linecap="round" stroke-linejoin="round"></path>
    <g transform="translate(74.696 33.7)">
      <path d="M61.444 31.742c0 17.238-13.705 31.211-30.609 31.211-16.911 0-30.613-13.973-30.613-31.211 0-17.241 13.702-31.214 30.613-31.214 16.904 0 30.609 13.973 30.609 31.214" fill="#221F20"></path>
      <ellipse fill="#fff" cx="20.899" cy="22.752" rx="10.233" ry="10.279"></ellipse>
    </g>
    <path d="M192.196 44.533s18.812 6.675 23.515-9.852M178.196 33.057s18.812 6.675 23.515-9.857M159.196 23.231s18.817 6.675 23.52-9.857M30.909 91.912c-8.157-9.857-12.895-20.379-12.895-20.379l-4.668 10.521" stroke="#221F20" stroke-width="3" stroke-linecap="round" stroke-linejoin="round"></path>
  </g>
</svg>
