<?xml version="1.0" encoding="UTF-8"?>
<svg width="48px" height="45px" viewBox="0 0 48 45" version="1.1" xmlns="http://www.w3.org/2000/svg" xmlns:xlink="http://www.w3.org/1999/xlink">
    <!-- Generator: Sketch 45.2 (43514) - http://www.bohemiancoding.com/sketch -->
    <title>ghost copy</title>
    <desc>Created with Sketch.</desc>
    <defs></defs>
    <g id="Page-1" stroke="none" stroke-width="1" fill="none" fill-rule="evenodd">
        <g id="ghost-copy" transform="translate(1.000000, 1.000000)" fill-rule="nonzero">
            <path d="M23.2878127,43 C23.1545132,43 23.0314674,43 22.9391832,42.9795676 C22.8674065,43 22.785376,43 22.7033455,43 C19.9655785,43 18.1404005,41.7127584 16.5100448,40.5787598 C15.3513644,39.7614635 14.2644606,38.9850321 12.9827344,38.7704918 C12.3572521,38.6581136 11.7215159,38.6172488 11.1370488,38.6172488 C10.050145,38.6172488 9.18882505,38.780708 8.5735965,38.9033024 C8.18395175,38.9748159 7.85582986,39.0361131 7.59948463,39.0361131 C7.33288559,39.0361131 6.99450989,38.9645997 6.86121037,38.5150867 C6.74841847,38.1473034 6.6766418,37.7999525 6.60486514,37.4628178 C6.42029657,36.6148729 6.26648944,36.0938465 5.94862135,36.0427655 C2.52384909,35.5217391 0.473087252,34.7350915 0.0731886939,33.805417 C0.0424272664,33.7032549 0.00141202966,33.6010929 0.00141202966,33.5193633 C-0.0190955887,33.2333096 0.185980595,32.9983369 0.473087252,32.9472559 C3.19034668,32.4977429 5.63075327,31.0572583 7.69176891,28.6870991 C9.29136314,26.8481825 10.0706526,25.0705631 10.1424293,24.8764552 C10.1424293,24.8560228 10.1629369,24.8560228 10.1629369,24.8560228 C10.5525817,24.0489427 10.6346121,23.3644571 10.3987745,22.8025659 C9.95786074,21.750297 8.50181984,21.300784 7.50720035,20.9942979 C7.25085512,20.9227845 7.03552513,20.8410549 6.85095656,20.7797577 C5.9998904,20.442623 4.58486473,19.7274887 4.7694333,18.736517 C4.90273282,18.0213828 5.85633707,17.5105726 6.63562657,17.5105726 C6.85095656,17.5105726 7.03552513,17.5412212 7.18933226,17.6229508 C8.06090604,18.0213828 8.85044935,18.2257068 9.52720076,18.2257068 C10.3680131,18.2257068 10.7679117,17.9090045 10.8704498,17.8068425 C10.8499421,17.3573295 10.8191807,16.8873842 10.7884193,16.4480874 L10.7884193,16.4480874 C10.5833431,13.3219292 10.3475055,9.43977192 11.342125,7.21263958 C14.3259835,0.551674982 20.6628375,0.0204324067 22.5392846,0.0204324067 C22.5905536,0.0204324067 23.3595893,0 23.3595893,0 L23.4723812,0 C25.3488283,0 31.6856824,0.521026372 34.6695409,7.19220718 C35.6744142,9.41933951 35.4283227,13.311713 35.2232466,16.427655 L35.2027389,16.5808981 C35.1822313,16.9997624 35.1514699,17.3981943 35.1309623,17.8068425 C35.2335004,17.8885721 35.6026375,18.1950582 36.3614194,18.2052744 C37.0176632,18.184842 37.7354298,17.9703017 38.5557345,17.6025184 C38.8120798,17.4901402 39.0786788,17.4492754 39.2735012,17.4492754 C39.5606078,17.4492754 39.8477145,17.5207888 40.0938059,17.6025184 L40.1143135,17.6025184 C40.8013187,17.8579235 41.2524864,18.3380851 41.2524864,18.838679 C41.272994,19.3086244 40.9038568,20.0237586 39.1504555,20.7286766 C38.9658869,20.8001901 38.7505569,20.8819197 38.4942117,20.9432169 C37.5200998,21.2394868 36.0640589,21.7094322 35.6026375,22.7514849 C35.3462923,23.3031599 35.4488304,24.0080779 35.8384751,24.8049418 C35.8384751,24.8253742 35.8589827,24.8253742 35.8589827,24.8253742 C35.9717746,25.1114279 38.9351255,31.8132573 45.5283248,32.9063911 C45.8154314,32.9574721 46,33.1924448 46,33.4784985 C46,33.5806605 45.9794924,33.6828225 45.9282233,33.7747684 C45.5283248,34.7146591 43.4980706,35.4808743 40.0527907,36.0121169 C39.7349226,36.0631979 39.5811155,36.5842243 39.3965469,37.4321692 C39.3247702,37.7795201 39.2427398,38.1166548 39.1402017,38.4844381 C39.0376636,38.8215728 38.8223336,39.0054645 38.4531964,39.0054645 L38.4019274,39.0054645 C38.1660898,39.0054645 37.8482217,38.9748159 37.4278155,38.8930862 C36.6895413,38.7398432 35.8794903,38.627465 34.8643632,38.627465 C34.2593885,38.627465 33.6339061,38.678546 33.0186776,38.780708 C31.7472052,38.9850321 30.6500477,39.7716797 29.4913672,40.588976 C27.8405039,41.7127584 26.0050721,43 23.2878127,43" id="Shape" fill="#FFFFFF"></path>
            <path d="M36.310249,24.6315187 C36.3038261,24.6153507 36.2961905,24.5997297 36.2872264,24.5844348 C36.287321,24.5846284 36.2949952,24.6003231 36.310249,24.6315187 Z M35.3892978,25.0245773 C34.9241107,24.0416015 34.833159,23.2209347 35.1454532,22.5490435 C35.6057307,21.5095742 36.5629226,21.0079917 38.37793,20.4569263 C38.5647905,20.4122442 38.7148985,20.3612188 38.963949,20.2647636 C40.2927119,19.7305625 40.7690188,19.2284347 40.7524864,18.838679 C40.7524864,18.5883455 40.4670487,18.2752514 39.9698078,18.0824663 C39.6853792,17.9937288 39.46635,17.9492754 39.2735012,17.9492754 C39.1162,17.9492754 38.9233201,17.9873095 38.7602905,18.0587605 C37.8464188,18.4684945 37.0818113,18.683087 36.354688,18.7052291 C35.9003525,18.6991119 35.5169068,18.6034081 35.1977896,18.4429853 C35.0390283,18.3631747 34.9460915,18.2988853 34.8193147,18.1978359 L34.6187346,18.0379603 L34.6315907,17.781782 C34.6378328,17.6573976 34.6451473,17.5302186 34.655082,17.3695979 C34.6614313,17.2677158 34.6614313,17.2677158 34.6678438,17.1662018 C34.6862986,16.8738471 34.6948827,16.7291273 34.7071569,16.5145772 C35.0472006,11.4890378 34.9917366,9.12204295 34.213116,7.39635502 C31.9564044,2.35089749 27.7488743,0.5 23.4723812,0.5 C23.2766165,0.502380941 23.2766165,0.502380941 22.9815145,0.510051011 C22.7085847,0.517053014 22.5680659,0.520432407 22.5392846,0.520432407 C18.2735471,0.520432407 14.0555615,2.37838694 11.7986661,7.41652721 C11.0265179,9.14550641 10.9682322,11.5508086 11.2871979,16.4131608 C11.3256685,16.9625496 11.3517244,17.3849951 11.3699302,17.7840553 L11.3800085,18.0049639 L11.223353,18.1610448 C10.8992404,18.4839687 10.3263689,18.7257068 9.52720076,18.7257068 C8.77233166,18.7257068 7.91503778,18.504468 6.9547108,18.0644854 C6.8901391,18.0301734 6.78896361,18.0105726 6.63562657,18.0105726 C6.0116294,18.0105726 5.3357672,18.426846 5.26098032,18.8280677 C5.17424179,19.2937777 5.8972871,19.8641772 7.00854826,20.3052423 C7.05003007,20.3190188 7.33074914,20.4163693 7.41891991,20.4450719 C7.49678072,20.4704183 7.5694454,20.4925706 7.65444046,20.5164691 C9.52855908,21.0939677 10.4186534,21.5562069 10.8598115,22.609059 C11.1574886,23.318285 11.061535,24.1447771 10.6132084,25.0734063 L10.5321419,25.2413213 C10.4068199,25.5236477 10.1859938,25.9600331 9.92292378,26.4151809 C9.41574998,27.2926623 8.79782738,28.1774004 8.06907107,29.0151891 C5.93409128,31.4704068 3.39089292,32.9713623 0.560670124,33.4395254 C0.50141203,33.4983591 0.507757905,33.5228065 0.529600533,33.5902703 C0.834979176,34.3110452 2.78805286,35.0561805 6.02795294,35.5490991 C6.63399297,35.646489 6.81631629,36.0833799 7.09390456,37.3587003 C7.21024795,37.9051648 7.2527705,38.0865467 7.34057732,38.3729342 C7.38126091,38.5101275 7.42847688,38.5361131 7.59948463,38.5361131 C7.77072062,38.5361131 7.95036362,38.5093359 8.4758843,38.4129431 C9.49113609,38.2106374 10.2026502,38.1172488 11.1370488,38.1172488 C11.8062693,38.1172488 12.4582106,38.1682465 13.065278,38.2773523 C13.9816239,38.4307338 14.8109747,38.8229054 15.8614255,39.5213204 C16.1188555,39.6924783 16.28923,39.8111331 16.7955496,40.1682881 C17.1017242,40.3812487 17.176794,40.4333002 17.3203382,40.5315894 C19.3272463,41.9057823 20.7499343,42.5 22.7033455,42.5 C22.7532925,42.5 22.8267968,42.488022 22.9238583,42.4640659 C23.0743019,42.4973752 23.1348947,42.5 23.2878127,42.5 L23.2878127,43.5 C23.1273513,43.5 23.0332099,43.4981613 22.9494649,43.4881776 C22.8814996,43.4979834 22.8099052,43.5 22.7033455,43.5 C20.5070476,43.5 18.9134161,42.8343839 16.7553616,41.3566963 C16.6089714,41.2564584 16.5330171,41.2037936 16.2218434,40.9873427 C15.7209722,40.6340441 15.5545964,40.5181741 15.3077606,40.3540599 C14.3641984,39.7267122 13.6504747,39.3892167 12.8943169,39.2626121 C12.3436864,39.1636822 11.7500941,39.1172488 11.1370488,39.1172488 C10.2816916,39.1172488 9.62766654,39.2030918 8.66385636,39.3950881 C8.05822677,39.5062423 7.85782928,39.5361131 7.59948463,39.5361131 C7.02885911,39.5361131 6.567107,39.2819855 6.38318509,38.6616877 C6.28505279,38.3417053 6.23849122,38.1430946 6.11630481,37.5691606 C6.01465165,37.1021457 5.94109185,36.8281498 5.86529921,36.6465322 C2.27814016,35.9901114 0.113378484,35.1642131 -0.405578689,33.9495759 C-0.482107975,33.7119574 -0.49858797,33.6484685 -0.497307984,33.5551173 C-0.536383564,33.0100655 -0.15097494,32.5504349 0.391481952,32.4539603 C2.98934085,32.0241996 5.32706654,30.6445108 7.31452064,28.3589471 C8.47427038,27.025682 9.35755029,25.5139615 9.65239047,24.7584597 C9.6661138,24.6872992 9.69499456,24.6284503 9.74498546,24.5703463 C10.0508998,23.9104809 10.1040288,23.3922673 9.93762105,22.995795 C9.66128324,22.3362971 8.92713149,21.9550413 7.37284406,21.4759081 C7.28614053,21.4517202 7.20006475,21.4254794 7.10937428,21.3959565 C7.00989158,21.3635715 6.72536869,21.2649019 6.66681223,21.2446134 C5.08109225,20.6164587 4.06063181,19.8114328 4.27789936,18.6448961 C4.45358359,17.7023735 5.5767927,17.0105726 6.63562657,17.0105726 C6.93931644,17.0105726 7.19603972,17.0603079 7.39721137,17.1682132 C8.20963468,17.5396051 8.93077356,17.7257068 9.52720076,17.7257068 C9.91018252,17.7257068 10.1832876,17.6556948 10.357906,17.5649501 C10.3411992,17.2492365 10.3191219,16.9040133 10.2894917,16.4808171 C9.95753647,11.4205295 10.0173319,8.9529245 10.8858169,7.00823092 C13.3351164,1.54057974 17.9213171,-0.479567593 22.5392846,-0.479567593 C22.5540302,-0.479567593 22.7139322,-0.483413141 22.9352737,-0.489091148 C23.2503032,-0.497272839 23.2503032,-0.497272839 23.3595893,-0.5 C28.1012196,-0.5 32.6770684,1.51292137 35.1252974,6.98657163 C36.0013165,8.92812042 36.0581843,11.3550232 35.7188286,16.4939759 C35.6933861,16.7841607 35.6845991,16.9323006 35.6658574,17.229201 C35.6594527,17.3305921 35.6594527,17.3305921 35.6531746,17.4313314 C35.83224,17.6426809 36.0669601,17.7012645 36.3458592,17.7055166 C36.9010386,17.6882309 37.5463574,17.5071176 38.3549845,17.1445889 C38.652306,17.0142473 38.9817934,16.9492754 39.2735012,16.9492754 C39.5879412,16.9492754 39.9041469,17.0131137 40.24594,17.1261939 C41.156941,17.4566971 41.7524864,18.0998241 41.752011,18.8168806 C41.790569,19.7004629 41.0151627,20.5179045 39.3311009,21.1949032 C39.0373634,21.3087155 38.8516697,21.3718375 38.6397031,21.4215811 C37.1444895,21.8763407 36.353423,22.290871 36.0560759,22.9621828 C35.9025493,23.292584 35.9340319,23.7516562 36.1703313,24.3253742 L36.3241292,24.6419654 C36.6197628,25.3917275 37.476888,26.8730892 38.6436157,28.2384003 C40.5296616,30.4454615 42.8454325,31.9547495 45.6159076,32.4141216 C46.1409306,32.5075318 46.5,32.9491326 46.5,33.4784985 C46.5,33.6686347 46.4574535,33.8523266 46.3883103,33.9705232 C45.8914269,35.1383597 43.7677329,35.945203 40.1321223,36.5057833 C40.0603202,36.7975012 39.9867604,37.0714971 39.886202,37.5333516 C39.8118797,37.8930218 39.7270771,38.2412292 39.6185655,38.6299304 C39.4503008,39.1831677 39.0377425,39.5054645 38.4531964,39.5054645 C38.1108622,39.5054645 37.7551844,39.4660897 37.3261969,39.382651 C36.5068523,39.2125802 35.7472304,39.127465 34.8643632,39.127465 C34.2830211,39.127465 33.6849644,39.1769142 33.0980092,39.2743744 C32.3501765,39.3945502 31.631937,39.7365336 30.6676428,40.3810915 C30.4288863,40.5406821 30.2829809,40.6424679 29.7727268,41.0023 C29.2736361,41.3420431 29.3553756,41.2864914 29.2040008,41.3881193 C27.0306977,42.8472006 25.4517272,43.5 23.2878127,43.5 L23.2878127,42.5 C25.2114391,42.5 26.6231481,41.9163521 28.6466026,40.557874 C28.7952256,40.4580936 28.7142097,40.5131535 29.2031659,40.1803931 C29.7142471,39.8198927 29.8634273,39.7158224 30.1119312,39.5497163 C31.185328,38.8322315 32.0200966,38.4347639 32.9367714,38.2874622 C33.5752211,38.1814442 34.2280655,38.127465 34.8643632,38.127465 C35.8188678,38.127465 36.6459691,38.2201413 37.5232323,38.402275 C37.887013,38.4729963 38.1803021,38.5054645 38.4019274,38.5054645 C38.5868629,38.5054645 38.618774,38.480535 38.6585699,38.350159 C38.7578062,37.9942186 38.8372386,37.6680616 38.9079866,37.3258263 C39.1850957,36.0527313 39.3674191,35.6158404 39.976594,35.5179569 C43.2511255,35.0130428 45.1678252,34.2848417 45.4915244,33.5312648 C45.5,33.4277755 45.4823449,33.4060624 45.4465426,33.3996574 C42.4239436,32.8985191 39.9108946,31.2606563 37.8833863,28.8880549 C37.1668637,28.0495763 36.5588277,27.1719143 36.0574557,26.3053976 C35.7737513,25.8150739 35.54401,25.3582548 35.4319015,25.1001416 C35.4085058,25.044238 35.5508662,24.9526489 35.8589827,24.8253742 L35.8589827,25.3253742 C35.7843694,25.3251117 35.7843694,25.3251117 35.6257789,25.2703615 C35.5394672,25.2084907 35.4764964,25.1549666 35.4319015,25.1001416 C35.3948344,25.0545715 35.3704628,25.0081026 35.3559355,24.9551946 C35.3437318,24.9107491 35.3384751,24.8617596 35.3384751,24.8049418 L35.8384751,24.8049418 L35.3892978,25.0245773 Z" id="Shape" fill="#000000"></path>
        </g>
    </g>
</svg>